<?xml version="1.0" encoding="utf-8" standalone="no"?>
<!DOCTYPE svg PUBLIC "-//W3C//DTD SVG 1.1//EN"
  "http://www.w3.org/Graphics/SVG/1.1/DTD/svg11.dtd">
<svg xmlns:xlink="http://www.w3.org/1999/xlink" width="398.50625pt" height="348.519688pt" viewBox="0 0 398.50625 348.519688" xmlns="http://www.w3.org/2000/svg" version="1.1">
 <metadata>
  <rdf:RDF xmlns:dc="http://purl.org/dc/elements/1.1/" xmlns:cc="http://creativecommons.org/ns#" xmlns:rdf="http://www.w3.org/1999/02/22-rdf-syntax-ns#">
   <cc:Work>
    <dc:type rdf:resource="http://purl.org/dc/dcmitype/StillImage"/>
    <dc:date>2024-03-06T12:24:29.144883</dc:date>
    <dc:format>image/svg+xml</dc:format>
    <dc:creator>
     <cc:Agent>
      <dc:title>Matplotlib v3.8.0, https://matplotlib.org/</dc:title>
     </cc:Agent>
    </dc:creator>
   </cc:Work>
  </rdf:RDF>
 </metadata>
 <defs>
  <style type="text/css">*{stroke-linejoin: round; stroke-linecap: butt}</style>
 </defs>
 <g id="figure_1">
  <g id="patch_1">
   <path d="M 0 348.519688 
L 398.50625 348.519688 
L 398.50625 0 
L 0 0 
z
" style="fill: #ffffff"/>
  </g>
  <g id="axes_1">
   <g id="patch_2">
    <path d="M 56.50625 299.64 
L 391.30625 299.64 
L 391.30625 22.44 
L 56.50625 22.44 
z
" style="fill: #ffffff"/>
   </g>
   <g id="matplotlib.axis_1">
    <g id="xtick_1">
     <g id="line2d_1">
      <defs>
       <path id="m0883987730" d="M 0 0 
L 0 3.5 
" style="stroke: #000000; stroke-width: 0.8"/>
      </defs>
      <g>
       <use xlink:href="#m0883987730" x="102.160795" y="299.64" style="stroke: #000000; stroke-width: 0.8"/>
      </g>
     </g>
     <g id="text_1">
      <!-- 10.76 -->
      <g transform="translate(87.846733 314.238438) scale(0.1 -0.1)">
       <defs>
        <path id="DejaVuSans-31" d="M 794 531 
L 1825 531 
L 1825 4091 
L 703 3866 
L 703 4441 
L 1819 4666 
L 2450 4666 
L 2450 531 
L 3481 531 
L 3481 0 
L 794 0 
L 794 531 
z
" transform="scale(0.015625)"/>
        <path id="DejaVuSans-30" d="M 2034 4250 
Q 1547 4250 1301 3770 
Q 1056 3291 1056 2328 
Q 1056 1369 1301 889 
Q 1547 409 2034 409 
Q 2525 409 2770 889 
Q 3016 1369 3016 2328 
Q 3016 3291 2770 3770 
Q 2525 4250 2034 4250 
z
M 2034 4750 
Q 2819 4750 3233 4129 
Q 3647 3509 3647 2328 
Q 3647 1150 3233 529 
Q 2819 -91 2034 -91 
Q 1250 -91 836 529 
Q 422 1150 422 2328 
Q 422 3509 836 4129 
Q 1250 4750 2034 4750 
z
" transform="scale(0.015625)"/>
        <path id="DejaVuSans-2e" d="M 684 794 
L 1344 794 
L 1344 0 
L 684 0 
L 684 794 
z
" transform="scale(0.015625)"/>
        <path id="DejaVuSans-37" d="M 525 4666 
L 3525 4666 
L 3525 4397 
L 1831 0 
L 1172 0 
L 2766 4134 
L 525 4134 
L 525 4666 
z
" transform="scale(0.015625)"/>
        <path id="DejaVuSans-36" d="M 2113 2584 
Q 1688 2584 1439 2293 
Q 1191 2003 1191 1497 
Q 1191 994 1439 701 
Q 1688 409 2113 409 
Q 2538 409 2786 701 
Q 3034 994 3034 1497 
Q 3034 2003 2786 2293 
Q 2538 2584 2113 2584 
z
M 3366 4563 
L 3366 3988 
Q 3128 4100 2886 4159 
Q 2644 4219 2406 4219 
Q 1781 4219 1451 3797 
Q 1122 3375 1075 2522 
Q 1259 2794 1537 2939 
Q 1816 3084 2150 3084 
Q 2853 3084 3261 2657 
Q 3669 2231 3669 1497 
Q 3669 778 3244 343 
Q 2819 -91 2113 -91 
Q 1303 -91 875 529 
Q 447 1150 447 2328 
Q 447 3434 972 4092 
Q 1497 4750 2381 4750 
Q 2619 4750 2861 4703 
Q 3103 4656 3366 4563 
z
" transform="scale(0.015625)"/>
       </defs>
       <use xlink:href="#DejaVuSans-31"/>
       <use xlink:href="#DejaVuSans-30" x="63.623047"/>
       <use xlink:href="#DejaVuSans-2e" x="127.246094"/>
       <use xlink:href="#DejaVuSans-37" x="159.033203"/>
       <use xlink:href="#DejaVuSans-36" x="222.65625"/>
      </g>
     </g>
    </g>
    <g id="xtick_2">
     <g id="line2d_2">
      <g>
       <use xlink:href="#m0883987730" x="163.033523" y="299.64" style="stroke: #000000; stroke-width: 0.8"/>
      </g>
     </g>
     <g id="text_2">
      <!-- 10.78 -->
      <g transform="translate(148.71946 314.238438) scale(0.1 -0.1)">
       <defs>
        <path id="DejaVuSans-38" d="M 2034 2216 
Q 1584 2216 1326 1975 
Q 1069 1734 1069 1313 
Q 1069 891 1326 650 
Q 1584 409 2034 409 
Q 2484 409 2743 651 
Q 3003 894 3003 1313 
Q 3003 1734 2745 1975 
Q 2488 2216 2034 2216 
z
M 1403 2484 
Q 997 2584 770 2862 
Q 544 3141 544 3541 
Q 544 4100 942 4425 
Q 1341 4750 2034 4750 
Q 2731 4750 3128 4425 
Q 3525 4100 3525 3541 
Q 3525 3141 3298 2862 
Q 3072 2584 2669 2484 
Q 3125 2378 3379 2068 
Q 3634 1759 3634 1313 
Q 3634 634 3220 271 
Q 2806 -91 2034 -91 
Q 1263 -91 848 271 
Q 434 634 434 1313 
Q 434 1759 690 2068 
Q 947 2378 1403 2484 
z
M 1172 3481 
Q 1172 3119 1398 2916 
Q 1625 2713 2034 2713 
Q 2441 2713 2670 2916 
Q 2900 3119 2900 3481 
Q 2900 3844 2670 4047 
Q 2441 4250 2034 4250 
Q 1625 4250 1398 4047 
Q 1172 3844 1172 3481 
z
" transform="scale(0.015625)"/>
       </defs>
       <use xlink:href="#DejaVuSans-31"/>
       <use xlink:href="#DejaVuSans-30" x="63.623047"/>
       <use xlink:href="#DejaVuSans-2e" x="127.246094"/>
       <use xlink:href="#DejaVuSans-37" x="159.033203"/>
       <use xlink:href="#DejaVuSans-38" x="222.65625"/>
      </g>
     </g>
    </g>
    <g id="xtick_3">
     <g id="line2d_3">
      <g>
       <use xlink:href="#m0883987730" x="223.90625" y="299.64" style="stroke: #000000; stroke-width: 0.8"/>
      </g>
     </g>
     <g id="text_3">
      <!-- 10.80 -->
      <g transform="translate(209.592188 314.238438) scale(0.1 -0.1)">
       <use xlink:href="#DejaVuSans-31"/>
       <use xlink:href="#DejaVuSans-30" x="63.623047"/>
       <use xlink:href="#DejaVuSans-2e" x="127.246094"/>
       <use xlink:href="#DejaVuSans-38" x="159.033203"/>
       <use xlink:href="#DejaVuSans-30" x="222.65625"/>
      </g>
     </g>
    </g>
    <g id="xtick_4">
     <g id="line2d_4">
      <g>
       <use xlink:href="#m0883987730" x="284.778977" y="299.64" style="stroke: #000000; stroke-width: 0.8"/>
      </g>
     </g>
     <g id="text_4">
      <!-- 10.82 -->
      <g transform="translate(270.464915 314.238438) scale(0.1 -0.1)">
       <defs>
        <path id="DejaVuSans-32" d="M 1228 531 
L 3431 531 
L 3431 0 
L 469 0 
L 469 531 
Q 828 903 1448 1529 
Q 2069 2156 2228 2338 
Q 2531 2678 2651 2914 
Q 2772 3150 2772 3378 
Q 2772 3750 2511 3984 
Q 2250 4219 1831 4219 
Q 1534 4219 1204 4116 
Q 875 4013 500 3803 
L 500 4441 
Q 881 4594 1212 4672 
Q 1544 4750 1819 4750 
Q 2544 4750 2975 4387 
Q 3406 4025 3406 3419 
Q 3406 3131 3298 2873 
Q 3191 2616 2906 2266 
Q 2828 2175 2409 1742 
Q 1991 1309 1228 531 
z
" transform="scale(0.015625)"/>
       </defs>
       <use xlink:href="#DejaVuSans-31"/>
       <use xlink:href="#DejaVuSans-30" x="63.623047"/>
       <use xlink:href="#DejaVuSans-2e" x="127.246094"/>
       <use xlink:href="#DejaVuSans-38" x="159.033203"/>
       <use xlink:href="#DejaVuSans-32" x="222.65625"/>
      </g>
     </g>
    </g>
    <g id="xtick_5">
     <g id="line2d_5">
      <g>
       <use xlink:href="#m0883987730" x="345.651705" y="299.64" style="stroke: #000000; stroke-width: 0.8"/>
      </g>
     </g>
     <g id="text_5">
      <!-- 10.84 -->
      <g transform="translate(331.337642 314.238438) scale(0.1 -0.1)">
       <defs>
        <path id="DejaVuSans-34" d="M 2419 4116 
L 825 1625 
L 2419 1625 
L 2419 4116 
z
M 2253 4666 
L 3047 4666 
L 3047 1625 
L 3713 1625 
L 3713 1100 
L 3047 1100 
L 3047 0 
L 2419 0 
L 2419 1100 
L 313 1100 
L 313 1709 
L 2253 4666 
z
" transform="scale(0.015625)"/>
       </defs>
       <use xlink:href="#DejaVuSans-31"/>
       <use xlink:href="#DejaVuSans-30" x="63.623047"/>
       <use xlink:href="#DejaVuSans-2e" x="127.246094"/>
       <use xlink:href="#DejaVuSans-38" x="159.033203"/>
       <use xlink:href="#DejaVuSans-34" x="222.65625"/>
      </g>
     </g>
    </g>
    <g id="text_6">
     <!-- $\beta$ -->
     <g transform="translate(220.70625 328.018125) scale(0.1 -0.1)">
      <defs>
       <path id="DejaVuSans-Oblique-3b2" d="M 872 216 
L 572 -1331 
L -6 -1331 
L 928 3478 
Q 1206 4903 2538 4903 
Q 3888 4903 3659 3700 
Q 3503 2844 2894 2531 
Q 3713 2250 3553 1416 
Q 3272 -69 1759 -66 
Q 1097 -63 872 216 
z
M 1019 966 
Q 1259 422 1875 425 
Q 2775 425 2966 1406 
Q 3138 2288 1675 2219 
L 1778 2750 
Q 2909 2731 3106 3750 
Q 3241 4438 2509 4434 
Q 1691 4434 1503 3459 
L 1019 966 
z
" transform="scale(0.015625)"/>
      </defs>
      <use xlink:href="#DejaVuSans-Oblique-3b2" transform="translate(0 0.390625)"/>
     </g>
    </g>
   </g>
   <g id="matplotlib.axis_2">
    <g id="ytick_1">
     <g id="line2d_6">
      <defs>
       <path id="m0dd01bdf3b" d="M 0 0 
L -3.5 0 
" style="stroke: #000000; stroke-width: 0.8"/>
      </defs>
      <g>
       <use xlink:href="#m0dd01bdf3b" x="56.50625" y="252.683493" style="stroke: #000000; stroke-width: 0.8"/>
      </g>
     </g>
     <g id="text_7">
      <!-- 0.434 -->
      <g transform="translate(20.878125 256.482712) scale(0.1 -0.1)">
       <defs>
        <path id="DejaVuSans-33" d="M 2597 2516 
Q 3050 2419 3304 2112 
Q 3559 1806 3559 1356 
Q 3559 666 3084 287 
Q 2609 -91 1734 -91 
Q 1441 -91 1130 -33 
Q 819 25 488 141 
L 488 750 
Q 750 597 1062 519 
Q 1375 441 1716 441 
Q 2309 441 2620 675 
Q 2931 909 2931 1356 
Q 2931 1769 2642 2001 
Q 2353 2234 1838 2234 
L 1294 2234 
L 1294 2753 
L 1863 2753 
Q 2328 2753 2575 2939 
Q 2822 3125 2822 3475 
Q 2822 3834 2567 4026 
Q 2313 4219 1838 4219 
Q 1578 4219 1281 4162 
Q 984 4106 628 3988 
L 628 4550 
Q 988 4650 1302 4700 
Q 1616 4750 1894 4750 
Q 2613 4750 3031 4423 
Q 3450 4097 3450 3541 
Q 3450 3153 3228 2886 
Q 3006 2619 2597 2516 
z
" transform="scale(0.015625)"/>
       </defs>
       <use xlink:href="#DejaVuSans-30"/>
       <use xlink:href="#DejaVuSans-2e" x="63.623047"/>
       <use xlink:href="#DejaVuSans-34" x="95.410156"/>
       <use xlink:href="#DejaVuSans-33" x="159.033203"/>
       <use xlink:href="#DejaVuSans-34" x="222.65625"/>
      </g>
     </g>
    </g>
    <g id="ytick_2">
     <g id="line2d_7">
      <g>
       <use xlink:href="#m0dd01bdf3b" x="56.50625" y="194.598828" style="stroke: #000000; stroke-width: 0.8"/>
      </g>
     </g>
     <g id="text_8">
      <!-- 0.436 -->
      <g transform="translate(20.878125 198.398047) scale(0.1 -0.1)">
       <use xlink:href="#DejaVuSans-30"/>
       <use xlink:href="#DejaVuSans-2e" x="63.623047"/>
       <use xlink:href="#DejaVuSans-34" x="95.410156"/>
       <use xlink:href="#DejaVuSans-33" x="159.033203"/>
       <use xlink:href="#DejaVuSans-36" x="222.65625"/>
      </g>
     </g>
    </g>
    <g id="ytick_3">
     <g id="line2d_8">
      <g>
       <use xlink:href="#m0dd01bdf3b" x="56.50625" y="136.514163" style="stroke: #000000; stroke-width: 0.8"/>
      </g>
     </g>
     <g id="text_9">
      <!-- 0.438 -->
      <g transform="translate(20.878125 140.313382) scale(0.1 -0.1)">
       <use xlink:href="#DejaVuSans-30"/>
       <use xlink:href="#DejaVuSans-2e" x="63.623047"/>
       <use xlink:href="#DejaVuSans-34" x="95.410156"/>
       <use xlink:href="#DejaVuSans-33" x="159.033203"/>
       <use xlink:href="#DejaVuSans-38" x="222.65625"/>
      </g>
     </g>
    </g>
    <g id="ytick_4">
     <g id="line2d_9">
      <g>
       <use xlink:href="#m0dd01bdf3b" x="56.50625" y="78.429498" style="stroke: #000000; stroke-width: 0.8"/>
      </g>
     </g>
     <g id="text_10">
      <!-- 0.440 -->
      <g transform="translate(20.878125 82.228717) scale(0.1 -0.1)">
       <use xlink:href="#DejaVuSans-30"/>
       <use xlink:href="#DejaVuSans-2e" x="63.623047"/>
       <use xlink:href="#DejaVuSans-34" x="95.410156"/>
       <use xlink:href="#DejaVuSans-34" x="159.033203"/>
       <use xlink:href="#DejaVuSans-30" x="222.65625"/>
      </g>
     </g>
    </g>
    <g id="text_11">
     <!-- $\langle$ S $\rangle$ -->
     <g transform="translate(14.798438 171.34) rotate(-90) scale(0.1 -0.1)">
      <defs>
       <path id="DejaVuSans-27e8" d="M 572 2006 
L 1453 4856 
L 1984 4856 
L 1103 2006 
L 1984 -844 
L 1453 -844 
L 572 2006 
z
" transform="scale(0.015625)"/>
       <path id="DejaVuSans-20" transform="scale(0.015625)"/>
       <path id="DejaVuSans-53" d="M 3425 4513 
L 3425 3897 
Q 3066 4069 2747 4153 
Q 2428 4238 2131 4238 
Q 1616 4238 1336 4038 
Q 1056 3838 1056 3469 
Q 1056 3159 1242 3001 
Q 1428 2844 1947 2747 
L 2328 2669 
Q 3034 2534 3370 2195 
Q 3706 1856 3706 1288 
Q 3706 609 3251 259 
Q 2797 -91 1919 -91 
Q 1588 -91 1214 -16 
Q 841 59 441 206 
L 441 856 
Q 825 641 1194 531 
Q 1563 422 1919 422 
Q 2459 422 2753 634 
Q 3047 847 3047 1241 
Q 3047 1584 2836 1778 
Q 2625 1972 2144 2069 
L 1759 2144 
Q 1053 2284 737 2584 
Q 422 2884 422 3419 
Q 422 4038 858 4394 
Q 1294 4750 2059 4750 
Q 2388 4750 2728 4690 
Q 3069 4631 3425 4513 
z
" transform="scale(0.015625)"/>
       <path id="DejaVuSans-27e9" d="M 1925 2006 
L 1044 -844 
L 513 -844 
L 1394 2006 
L 513 4856 
L 1044 4856 
L 1925 2006 
z
" transform="scale(0.015625)"/>
      </defs>
      <use xlink:href="#DejaVuSans-27e8" transform="translate(0 0.125)"/>
      <use xlink:href="#DejaVuSans-20" transform="translate(39.013672 0.125)"/>
      <use xlink:href="#DejaVuSans-53" transform="translate(70.800781 0.125)"/>
      <use xlink:href="#DejaVuSans-20" transform="translate(134.277344 0.125)"/>
      <use xlink:href="#DejaVuSans-27e9" transform="translate(166.064453 0.125)"/>
     </g>
    </g>
   </g>
   <g id="line2d_10">
    <path d="M 71.724432 35.142787 
L 74.768068 37.607216 
L 77.811705 40.063118 
L 80.855341 42.513874 
L 83.898977 44.962689 
L 86.942614 47.412355 
L 89.98625 49.864942 
L 93.029886 52.321463 
L 96.073523 54.781611 
L 99.117159 57.243704 
L 102.160795 59.704905 
L 105.204432 62.161736 
L 108.248068 64.61078 
L 111.291705 67.049419 
L 114.335341 69.476401 
L 117.378977 71.892069 
L 120.422614 74.298163 
L 123.46625 76.697265 
L 126.509886 79.092066 
L 129.553523 81.484716 
L 132.597159 83.876455 
L 135.640795 86.267618 
L 138.684432 88.657943 
L 141.728068 91.04702 
L 144.771705 93.434725 
L 147.815341 95.821551 
L 150.858977 98.208832 
L 153.902614 100.598918 
L 156.94625 102.995409 
L 159.989886 105.403578 
L 163.033523 107.83125 
L 166.077159 110.290553 
L 169.120795 112.801135 
L 172.164432 115.395528 
L 175.208068 118.126851 
L 178.251705 121.077317 
L 181.295341 124.361274 
L 184.338977 128.108258 
L 187.382614 132.40643 
L 190.42625 137.208649 
L 193.469886 142.269098 
L 196.513523 147.212826 
L 199.557159 151.721037 
L 202.600795 155.664595 
L 205.644432 159.088505 
L 208.688068 162.118127 
L 211.731705 164.882659 
L 214.775341 167.482512 
L 217.818977 169.985328 
L 220.862614 172.432736 
L 223.90625 174.848559 
L 226.949886 177.245442 
L 229.993523 179.629579 
L 233.037159 182.003853 
L 236.080795 184.369746 
L 239.124432 186.72829 
L 242.168068 189.080332 
L 245.211705 191.426412 
L 248.255341 193.766567 
L 251.298977 196.100249 
L 254.342614 198.426435 
L 257.38625 200.743848 
L 260.429886 203.051229 
L 263.473523 205.347564 
L 266.517159 207.63226 
L 269.560795 209.905263 
L 272.604432 212.167108 
L 275.648068 214.418897 
L 278.691705 216.662199 
L 281.735341 218.898898 
L 284.778977 221.130997 
L 287.822614 223.360448 
L 290.86625 225.589001 
L 293.909886 227.818102 
L 296.953523 230.048837 
L 299.997159 232.28189 
L 303.040795 234.51751 
L 306.084432 236.755458 
L 309.128068 238.994956 
L 312.171705 241.234661 
L 315.215341 243.472701 
L 318.258977 245.706809 
L 321.302614 247.934551 
L 324.34625 250.153635 
L 327.389886 252.362248 
L 330.433523 254.55937 
L 333.477159 256.745 
L 336.520795 258.920238 
L 339.564432 261.087184 
L 342.608068 263.248635 
L 345.651705 265.407616 
L 348.695341 267.566823 
L 351.738977 269.728104 
L 354.782614 271.892129 
L 357.82625 274.058346 
L 360.869886 276.225255 
L 363.913523 278.39092 
L 366.957159 280.553549 
L 370.000795 282.711979 
L 373.044432 284.865959 
L 376.088068 287.016194 
" clip-path="url(#pb05d97451b)" style="fill: none; stroke-dasharray: 1.5,2.475; stroke-dashoffset: 0; stroke: #1f77b4; stroke-width: 1.5"/>
   </g>
   <g id="line2d_11">
    <path d="M 71.724432 35.128985 
L 74.768068 37.597663 
L 77.811705 40.055463 
L 80.855341 42.505177 
L 83.898977 44.950321 
L 86.942614 47.39481 
L 89.98625 49.842166 
L 93.029886 52.294619 
L 96.073523 54.752451 
L 99.117159 57.213824 
L 102.160795 59.675218 
L 105.204432 62.132337 
L 108.248068 64.581214 
L 111.291705 67.01915 
L 114.335341 69.445233 
L 117.378977 71.860309 
L 120.422614 74.266511 
L 123.46625 76.666536 
L 126.509886 79.062941 
L 129.553523 81.457637 
L 132.597159 83.851706 
L 135.640795 86.245506 
L 138.684432 88.638953 
L 141.728068 91.031873 
L 144.771705 93.424304 
L 147.815341 95.816765 
L 150.858977 98.210462 
L 153.902614 100.607504 
L 156.94625 103.011143 
L 159.989886 105.42615 
L 163.033523 107.859595 
L 166.077159 110.322478 
L 169.120795 112.832975 
L 172.164432 115.422152 
L 175.208068 118.142666 
L 178.251705 121.079168 
L 181.295341 124.353934 
L 184.338977 128.111274 
L 187.382614 132.456265 
L 190.42625 137.346058 
L 193.469886 142.511655 
L 196.513523 147.536594 
L 199.557159 152.074129 
L 202.600795 155.997686 
L 205.644432 159.373049 
L 208.688068 162.346251 
L 211.731705 165.059188 
L 214.775341 167.617482 
L 217.818977 170.089384 
L 220.862614 172.514972 
L 223.90625 174.915863 
L 226.949886 177.30263 
L 229.993523 179.67986 
L 233.037159 182.049351 
L 236.080795 184.411947 
L 239.124432 186.768346 
L 242.168068 189.119222 
L 245.211705 191.464988 
L 248.255341 193.80552 
L 251.298977 196.140032 
L 254.342614 198.467178 
L 257.38625 200.785322 
L 260.429886 203.092879 
L 263.473523 205.388653 
L 266.517159 207.672094 
L 269.560795 209.943451 
L 272.604432 212.203772 
L 275.648068 214.454768 
L 278.691705 216.698545 
L 281.735341 218.937281 
L 284.778977 221.172923 
L 287.822614 223.406987 
L 290.86625 225.640488 
L 293.909886 227.874017 
L 296.953523 230.107889 
L 299.997159 232.342291 
L 303.040795 234.577338 
L 306.084432 236.813018 
L 309.128068 239.049026 
L 312.171705 241.284594 
L 315.215341 243.518385 
L 318.258977 245.748522 
L 321.302614 247.972779 
L 324.34625 250.188901 
L 327.389886 252.395003 
L 330.433523 254.589959 
L 333.477159 256.773702 
L 336.520795 258.947339 
L 339.564432 261.113029 
L 342.608068 263.273626 
L 345.651705 265.432132 
L 348.695341 267.591089 
L 351.738977 269.752078 
L 354.782614 271.915463 
L 357.82625 274.080466 
L 360.869886 276.245568 
L 363.913523 278.409067 
L 366.957159 280.56962 
L 370.000795 282.72656 
L 373.044432 284.879931 
L 376.088068 287.030278 
" clip-path="url(#pb05d97451b)" style="fill: none; stroke-dasharray: 1.5,2.475; stroke-dashoffset: 0; stroke: #ff7f0e; stroke-width: 1.5"/>
   </g>
   <g id="line2d_12">
    <path d="M 71.724432 35.164538 
L 74.768068 37.620077 
L 77.811705 40.067071 
L 80.855341 42.508434 
L 83.898977 44.947732 
L 86.942614 47.388542 
L 89.98625 49.833708 
L 93.029886 52.284705 
L 96.073523 54.741276 
L 99.117159 57.201452 
L 102.160795 59.661968 
L 105.204432 62.118974 
L 108.248068 64.568884 
L 111.291705 67.009131 
L 114.335341 69.438635 
L 117.378977 71.857873 
L 120.422614 74.268528 
L 123.46625 76.672875 
L 126.509886 79.073092 
L 129.553523 81.470746 
L 132.597159 83.866594 
L 135.640795 86.260722 
L 138.684432 88.652896 
L 141.728068 91.042972 
L 144.771705 93.431239 
L 147.815341 95.818665 
L 150.858977 98.207096 
L 153.902614 100.5995 
L 156.94625 103.000359 
L 159.989886 105.41637 
L 163.033523 107.85771 
L 166.077159 110.340367 
L 169.120795 112.890171 
L 172.164432 115.549115 
L 175.208068 118.38355 
L 178.251705 121.49085 
L 181.295341 124.994639 
L 184.338977 129.01054 
L 187.382614 133.569166 
L 190.42625 138.527091 
L 193.469886 143.561294 
L 196.513523 148.307379 
L 199.557159 152.536863 
L 202.600795 156.215686 
L 205.644432 159.437776 
L 208.688068 162.334072 
L 211.731705 165.019046 
L 214.775341 167.574931 
L 217.818977 170.054675 
L 220.862614 172.489975 
L 223.90625 174.898713 
L 226.949886 177.290435 
L 229.993523 179.670059 
L 233.037159 182.04026 
L 236.080795 184.402848 
L 239.124432 186.75936 
L 242.168068 189.111068 
L 245.211705 191.45869 
L 248.255341 193.802089 
L 251.298977 196.140174 
L 254.342614 198.471095 
L 257.38625 200.792665 
L 260.429886 203.102875 
L 263.473523 205.400352 
L 266.517159 207.684663 
L 269.560795 209.956407 
L 272.604432 212.21709 
L 275.648068 214.468821 
L 278.691705 216.713906 
L 281.735341 218.954431 
L 284.778977 221.191959 
L 287.822614 223.427403 
L 290.86625 225.66112 
L 293.909886 227.893178 
L 296.953523 230.123665 
L 299.997159 232.352928 
L 303.040795 234.58159 
L 306.084432 236.810364 
L 309.128068 239.039711 
L 312.171705 241.269494 
L 315.215341 243.498787 
L 318.258977 245.725894 
L 321.302614 247.948597 
L 324.34625 250.164552 
L 327.389886 252.371738 
L 330.433523 254.568849 
L 333.477159 256.755568 
L 336.520795 258.932664 
L 339.564432 261.10188 
L 342.608068 263.265628 
L 345.651705 265.426514 
L 348.695341 267.586799 
L 351.738977 269.747932 
L 354.782614 271.910294 
L 357.82625 274.073257 
L 360.869886 276.235544 
L 363.913523 278.395759 
L 366.957159 280.552897 
L 370.000795 282.706653 
L 373.044432 284.857455 
L 376.088068 287.006266 
" clip-path="url(#pb05d97451b)" style="fill: none; stroke-dasharray: 1.5,2.475; stroke-dashoffset: 0; stroke: #2ca02c; stroke-width: 1.5"/>
   </g>
   <g id="line2d_13">
    <path d="M 71.724432 35.125312 
L 74.768068 37.60489 
L 77.811705 40.071115 
L 80.855341 42.527602 
L 83.898977 44.978763 
L 86.942614 47.429028 
L 89.98625 49.881947 
L 93.029886 52.339442 
L 96.073523 54.801431 
L 99.117159 57.265898 
L 102.160795 59.729404 
L 105.204432 62.18789 
L 108.248068 64.637588 
L 111.291705 67.075808 
L 114.335341 69.501436 
L 117.378977 71.915026 
L 120.422614 74.318509 
L 123.46625 76.714614 
L 126.509886 79.106178 
L 129.553523 81.495566 
L 132.597159 83.884325 
L 135.640795 86.273131 
L 138.684432 88.661988 
L 141.728068 91.050552 
L 144.771705 93.438511 
L 147.815341 95.825934 
L 150.858977 98.213596 
L 153.902614 100.603289 
L 156.94625 102.998173 
L 159.989886 105.403324 
L 163.033523 107.826772 
L 166.077159 110.281535 
L 169.120795 112.78935 
L 172.164432 115.386814 
L 175.208068 118.134014 
L 178.251705 121.123416 
L 181.295341 124.481043 
L 184.338977 128.342452 
L 187.382614 132.783038 
L 190.42625 137.714962 
L 193.469886 142.839882 
L 196.513523 147.758447 
L 199.557159 152.174514 
L 202.600795 156.003443 
L 205.644432 159.323849 
L 208.688068 162.274335 
L 211.731705 164.983801 
L 214.775341 167.547224 
L 217.818977 170.026415 
L 220.862614 172.458465 
L 223.90625 174.864193 
L 226.949886 177.254487 
L 229.993523 179.634626 
L 233.037159 182.00705 
L 236.080795 184.372978 
L 239.124432 186.733179 
L 242.168068 189.088147 
L 245.211705 191.437977 
L 248.255341 193.782212 
L 251.298977 196.119821 
L 254.342614 198.44935 
L 257.38625 200.769189 
L 260.429886 203.077868 
L 263.473523 205.374332 
L 266.517159 207.658154 
L 269.560795 209.929656 
L 272.604432 212.189931 
L 275.648068 214.440719 
L 278.691705 216.684165 
L 281.735341 218.9225 
L 284.778977 221.157721 
L 287.822614 223.391375 
L 290.86625 225.624478 
L 293.909886 227.857601 
L 296.953523 230.091046 
L 299.997159 232.325031 
L 303.040795 234.559777 
L 306.084432 236.795446 
L 309.128068 239.031955 
L 312.171705 241.268738 
L 315.215341 243.504577 
L 318.258977 245.737575 
L 321.302614 247.965313 
L 324.34625 250.185177 
L 327.389886 252.394795 
L 330.433523 254.592503 
L 333.477159 256.777755 
L 336.520795 258.951365 
L 339.564432 261.115504 
L 342.608068 263.273403 
L 345.651705 265.428765 
L 348.695341 267.585003 
L 351.738977 269.744475 
L 354.782614 271.907953 
L 357.82625 274.074499 
L 360.869886 276.241815 
L 363.913523 278.406964 
L 366.957159 280.567197 
L 370.000795 282.720633 
L 373.044432 284.866578 
L 376.088068 287.005469 
" clip-path="url(#pb05d97451b)" style="fill: none; stroke-dasharray: 1.5,2.475; stroke-dashoffset: 0; stroke: #d62728; stroke-width: 1.5"/>
   </g>
   <g id="line2d_14">
    <path d="M 71.724432 35.101476 
L 74.768068 37.584276 
L 77.811705 40.059156 
L 80.855341 42.527066 
L 83.898977 44.98863 
L 86.942614 47.444268 
L 89.98625 49.894261 
L 93.029886 52.338832 
L 96.073523 54.77823 
L 99.117159 57.212799 
L 102.160795 59.643011 
L 105.204432 62.06947 
L 108.248068 64.492871 
L 111.291705 66.913914 
L 114.335341 69.333209 
L 117.378977 71.751176 
L 120.422614 74.168004 
L 123.46625 76.583658 
L 126.509886 78.997959 
L 129.553523 81.410672 
L 132.597159 83.821599 
L 135.640795 86.230621 
L 138.684432 88.637747 
L 141.728068 91.043174 
L 144.771705 93.447407 
L 147.815341 95.851449 
L 150.858977 98.257034 
L 153.902614 100.666916 
L 156.94625 103.085266 
L 159.989886 105.518351 
L 163.033523 107.975786 
L 166.077159 110.472851 
L 169.120795 113.034422 
L 172.164432 115.700967 
L 175.208068 118.53618 
L 178.251705 121.633073 
L 181.295341 125.109478 
L 184.338977 129.076437 
L 187.382614 133.566896 
L 190.42625 138.451407 
L 193.469886 143.42771 
L 196.513523 148.144831 
L 199.557159 152.372605 
L 202.600795 156.066562 
L 205.644432 159.310998 
L 208.688068 162.231402 
L 211.731705 164.939665 
L 214.775341 167.516409 
L 217.818977 170.013154 
L 220.862614 172.46054 
L 223.90625 174.87623 
L 226.949886 177.270543 
L 229.993523 179.649839 
L 233.037159 182.018239 
L 236.080795 184.378365 
L 239.124432 186.731647 
L 242.168068 189.078535 
L 245.211705 191.418792 
L 248.255341 193.751844 
L 251.298977 196.077147 
L 254.342614 198.394453 
L 257.38625 200.703931 
L 260.429886 203.006117 
L 263.473523 205.301757 
L 266.517159 207.591591 
L 269.560795 209.87615 
L 272.604432 212.155628 
L 275.648068 214.429839 
L 278.691705 216.698273 
L 281.735341 218.960225 
L 284.778977 221.214983 
L 287.822614 223.462032 
L 290.86625 225.701243 
L 293.909886 227.932982 
L 296.953523 230.15812 
L 299.997159 232.377905 
L 303.040795 234.593739 
L 306.084432 236.806911 
L 309.128068 239.018372 
L 312.171705 241.228614 
L 315.215341 243.437683 
L 318.258977 245.645286 
L 321.302614 247.850943 
L 324.34625 250.054121 
L 327.389886 252.25432 
L 330.433523 254.45112 
L 333.477159 256.644211 
L 336.520795 258.833436 
L 339.564432 261.01884 
L 342.608068 263.200702 
L 345.651705 265.379511 
L 348.695341 267.555879 
L 351.738977 269.730386 
L 354.782614 271.903414 
L 357.82625 274.075011 
L 360.869886 276.244847 
L 363.913523 278.412256 
L 366.957159 280.576354 
L 370.000795 282.736195 
L 373.044432 284.890939 
L 376.088068 287.04 
" clip-path="url(#pb05d97451b)" style="fill: none; stroke-dasharray: 1.5,2.475; stroke-dashoffset: 0; stroke: #9467bd; stroke-width: 1.5"/>
   </g>
   <g id="line2d_15">
    <path d="M 71.724432 35.13262 
L 74.768068 37.602824 
L 77.811705 40.063185 
L 80.855341 42.51643 
L 83.898977 44.965627 
L 86.942614 47.413801 
L 89.98625 49.863405 
L 93.029886 52.315812 
L 96.073523 54.771 
L 99.117159 57.227536 
L 102.160795 59.682901 
L 105.204432 62.134082 
L 108.248068 64.578267 
L 111.291705 67.013484 
L 114.335341 69.438983 
L 117.378977 71.855291 
L 120.422614 74.263943 
L 123.46625 76.66699 
L 126.509886 79.066447 
L 129.553523 81.463868 
L 132.597159 83.860136 
L 135.640795 86.25552 
L 138.684432 88.649906 
L 141.728068 91.043118 
L 144.771705 93.435237 
L 147.815341 95.826873 
L 150.858977 98.219404 
L 153.902614 100.615225 
L 156.94625 103.01807 
L 159.989886 105.433555 
L 163.033523 107.870223 
L 166.077159 110.341557 
L 169.120795 112.869611 
L 172.164432 115.490915 
L 175.208068 118.264652 
L 178.251705 121.280765 
L 181.295341 124.660073 
L 184.338977 128.529792 
L 187.382614 132.956359 
L 190.42625 137.849633 
L 193.469886 142.921928 
L 196.513523 147.792016 
L 199.557159 152.17583 
L 202.600795 155.989594 
L 205.644432 159.306835 
L 208.688068 162.260838 
L 211.731705 164.976872 
L 214.775341 167.547712 
L 217.818977 170.033791 
L 220.862614 172.471338 
L 223.90625 174.880711 
L 226.949886 177.272707 
L 229.993523 179.652793 
L 233.037159 182.02375 
L 236.080795 184.387177 
L 239.124432 186.744164 
L 242.168068 189.095461 
L 245.211705 191.441372 
L 248.255341 193.781646 
L 251.298977 196.115484 
L 254.342614 198.441702 
L 257.38625 200.758991 
L 260.429886 203.066193 
L 263.473523 205.362532 
L 266.517159 207.647753 
L 269.560795 209.922186 
L 272.604432 212.186706 
L 275.648068 214.442609 
L 278.691705 216.691418 
L 281.735341 218.934667 
L 284.778977 221.173717 
L 287.822614 223.409649 
L 290.86625 225.643266 
L 293.909886 227.875176 
L 296.953523 230.105911 
L 299.997159 232.336009 
L 303.040795 234.565991 
L 306.084432 236.796239 
L 309.128068 239.026804 
L 312.171705 241.25722 
L 315.215341 243.486427 
L 318.258977 245.712817 
L 321.302614 247.934437 
L 324.34625 250.149277 
L 327.389886 252.355621 
L 330.433523 254.55236 
L 333.477159 256.739247 
L 336.520795 258.917008 
L 339.564432 261.087288 
L 342.608068 263.252399 
L 345.651705 265.414907 
L 348.695341 267.577118 
L 351.738977 269.740595 
L 354.782614 271.905851 
L 357.82625 274.072316 
L 360.869886 276.238606 
L 363.913523 278.402993 
L 366.957159 280.563923 
L 370.000795 282.720404 
L 373.044432 284.872172 
L 376.088068 287.019641 
" clip-path="url(#pb05d97451b)" style="fill: none; stroke: #8c564b; stroke-width: 1.5; stroke-linecap: square"/>
   </g>
   <g id="line2d_16">
    <path d="M 71.724432 35.047721 
L 74.768068 37.516725 
L 77.811705 39.991586 
L 80.855341 42.469605 
L 83.898977 44.947793 
L 86.942614 47.42355 
L 89.98625 49.894883 
L 93.029886 52.360311 
L 96.073523 54.818658 
L 99.117159 57.268952 
L 102.160795 59.710462 
L 105.204432 62.142864 
L 108.248068 64.566387 
L 111.291705 66.981853 
L 114.335341 69.390584 
L 117.378977 71.794213 
L 120.422614 74.194485 
L 123.46625 76.593077 
L 126.509886 78.991446 
L 129.553523 81.390695 
L 132.597159 83.79145 
L 135.640795 86.193803 
L 138.684432 88.597368 
L 141.728068 91.001463 
L 144.771705 93.405346 
L 147.815341 95.80839 
L 150.858977 98.210101 
L 153.902614 100.609975 
L 156.94625 103.007282 
L 159.989886 105.400945 
L 163.033523 107.789623 
L 166.077159 110.172025 
L 169.120795 112.547369 
L 172.164432 114.915805 
L 175.208068 117.278618 
L 178.251705 119.638137 
L 181.295341 121.997339 
L 184.338977 124.359303 
L 187.382614 126.726669 
L 190.42625 129.101262 
L 193.469886 131.483964 
L 196.513523 133.874797 
L 199.557159 136.27316 
L 202.600795 138.678102 
L 205.644432 141.088558 
L 208.688068 143.503527 
L 211.731705 145.922206 
L 214.775341 148.344184 
L 217.818977 150.769742 
L 220.862614 153.200305 
L 223.90625 155.638926 
L 226.949886 158.090652 
L 229.993523 160.562529 
L 233.037159 163.063115 
L 236.080795 165.601466 
L 239.124432 168.18572 
L 242.168068 170.821497 
L 245.211705 173.510469 
L 248.255341 176.249458 
L 251.298977 179.030462 
L 254.342614 181.84174 
L 257.38625 184.669762 
L 260.429886 187.501374 
L 263.473523 190.325413 
L 266.517159 193.133291 
L 269.560795 195.918637 
L 272.604432 198.676535 
L 275.648068 201.402946 
L 278.691705 204.09458 
L 281.735341 206.749067 
L 284.778977 209.365149 
L 287.822614 211.942701 
L 290.86625 214.482625 
L 293.909886 216.986752 
L 296.953523 219.457816 
L 299.997159 221.899374 
L 303.040795 224.315544 
L 306.084432 226.710469 
L 309.128068 229.087667 
L 312.171705 231.449527 
L 315.215341 233.797198 
L 318.258977 236.130943 
L 321.302614 238.450783 
L 324.34625 240.757133 
L 327.389886 243.05113 
L 330.433523 245.334548 
L 333.477159 247.609403 
L 336.520795 249.877462 
L 339.564432 252.139896 
L 342.608068 254.397232 
L 345.651705 256.649572 
L 348.695341 258.896963 
L 351.738977 261.139727 
L 354.782614 263.378557 
L 357.82625 265.614326 
L 360.869886 267.847688 
L 363.913523 270.07867 
L 366.957159 272.306538 
L 370.000795 274.530095 
L 373.044432 276.748359 
L 376.088068 278.961361 
" clip-path="url(#pb05d97451b)" style="fill: none; stroke-dasharray: 1.5,2.475; stroke-dashoffset: 0; stroke: #e377c2; stroke-width: 1.5"/>
   </g>
   <g id="line2d_17">
    <path d="M 71.724432 35.107503 
L 74.768068 37.5681 
L 77.811705 40.035649 
L 80.855341 42.507092 
L 83.898977 44.978998 
L 86.942614 47.448246 
L 89.98625 49.912344 
L 93.029886 52.369448 
L 96.073523 54.818243 
L 99.117159 57.257876 
L 102.160795 59.688026 
L 105.204432 62.109049 
L 108.248068 64.522044 
L 111.291705 66.928719 
L 114.335341 69.331066 
L 117.378977 71.730969 
L 120.422614 74.129919 
L 123.46625 76.52892 
L 126.509886 78.928565 
L 129.553523 81.329175 
L 132.597159 83.730889 
L 135.640795 86.133686 
L 138.684432 88.537388 
L 141.728068 90.941695 
L 144.771705 93.346261 
L 147.815341 95.750754 
L 150.858977 98.154835 
L 153.902614 100.558021 
L 156.94625 102.959518 
L 159.989886 105.358123 
L 163.033523 107.752325 
L 166.077159 110.140639 
L 169.120795 112.522078 
L 172.164432 114.896607 
L 175.208068 117.265374 
L 178.251705 119.630619 
L 181.295341 121.995253 
L 184.338977 124.362273 
L 187.382614 126.7342 
L 190.42625 129.112713 
L 193.469886 131.498566 
L 196.513523 133.891727 
L 199.557159 136.291648 
L 202.600795 138.697535 
L 205.644432 141.10854 
L 208.688068 143.523898 
L 211.731705 145.943065 
L 214.775341 148.365951 
L 217.818977 150.793328 
L 220.862614 153.227379 
L 223.90625 155.672242 
L 226.949886 158.134308 
L 229.993523 160.621996 
L 233.037159 163.144826 
L 236.080795 165.7118 
L 239.124432 168.329345 
L 242.168068 170.999321 
L 245.211705 173.717741 
L 248.255341 176.474813 
L 251.298977 179.256558 
L 254.342614 182.047682 
L 257.38625 184.834787 
L 260.429886 187.60876 
L 263.473523 190.365514 
L 266.517159 193.105001 
L 269.560795 195.829106 
L 272.604432 198.539439 
L 275.648068 201.235825 
L 278.691705 203.915863 
L 281.735341 206.575389 
L 284.778977 209.209403 
L 287.822614 211.813071 
L 290.86625 214.382574 
L 293.909886 216.915744 
L 296.953523 219.412427 
L 299.997159 221.874497 
L 303.040795 224.305457 
L 306.084432 226.709684 
L 309.128068 229.091529 
L 312.171705 231.454595 
L 315.215341 233.801417 
L 318.258977 236.133606 
L 321.302614 238.452289 
L 324.34625 240.758589 
L 327.389886 243.05388 
L 330.433523 245.33973 
L 333.477159 247.617631 
L 336.520795 249.88868 
L 339.564432 252.153418 
L 342.608068 254.411913 
L 345.651705 256.664049 
L 348.695341 258.909894 
L 351.738977 261.149969 
L 354.782614 263.385266 
L 357.82625 265.616986 
L 360.869886 267.846109 
L 363.913523 270.072987 
L 366.957159 272.297242 
L 370.000795 274.518079 
L 373.044432 276.734961 
L 376.088068 278.948394 
" clip-path="url(#pb05d97451b)" style="fill: none; stroke-dasharray: 1.5,2.475; stroke-dashoffset: 0; stroke: #7f7f7f; stroke-width: 1.5"/>
   </g>
   <g id="line2d_18">
    <path d="M 71.724432 35.049751 
L 74.768068 37.516057 
L 77.811705 39.988998 
L 80.855341 42.465961 
L 83.898977 44.944005 
L 86.942614 47.42041 
L 89.98625 49.892846 
L 93.029886 52.35931 
L 96.073523 54.818042 
L 99.117159 57.267573 
L 102.160795 59.706943 
L 105.204432 62.135956 
L 108.248068 64.555326 
L 111.291705 66.966584 
L 114.335341 69.371775 
L 117.378977 71.773059 
L 120.422614 74.172361 
L 123.46625 76.571156 
L 126.509886 78.970412 
L 129.553523 81.370602 
L 132.597159 83.771772 
L 135.640795 86.173619 
L 138.684432 88.575609 
L 141.728068 90.977147 
L 144.771705 93.377745 
L 147.815341 95.777111 
L 150.858977 98.175104 
L 153.902614 100.571548 
L 156.94625 102.966002 
L 159.989886 105.357608 
L 163.033523 107.745156 
L 166.077159 110.127382 
L 169.120795 112.503433 
L 172.164432 114.873323 
L 175.208068 117.238196 
L 178.251705 119.600258 
L 181.295341 121.962399 
L 184.338977 124.327605 
L 187.382614 126.698387 
L 190.42625 129.076392 
L 193.469886 131.462297 
L 196.513523 133.855959 
L 199.557159 136.256717 
L 202.600795 138.663704 
L 205.644432 141.076068 
L 208.688068 143.493085 
L 211.731705 145.914213 
L 214.775341 148.339184 
L 217.818977 150.768255 
L 220.862614 153.202632 
L 223.90625 155.644995 
L 226.949886 158.099914 
L 229.993523 160.573936 
L 233.037159 163.075136 
L 236.080795 165.612117 
L 239.124432 168.192588 
L 242.168068 170.821808 
L 245.211705 173.50128 
L 248.255341 176.228094 
L 251.298977 178.995213 
L 254.342614 181.792726 
L 257.38625 184.609676 
L 260.429886 187.435805 
L 263.473523 190.262507 
L 266.517159 193.082709 
L 269.560795 195.89002 
L 272.604432 198.677833 
L 275.648068 201.43905 
L 278.691705 204.166577 
L 281.735341 206.854298 
L 284.778977 209.497963 
L 287.822614 212.095637 
L 290.86625 214.647655 
L 293.909886 217.156269 
L 296.953523 219.625157 
L 299.997159 222.058898 
L 303.040795 224.462411 
L 306.084432 226.840393 
L 309.128068 229.196866 
L 312.171705 231.534955 
L 315.215341 233.856982 
L 318.258977 236.164815 
L 321.302614 238.460278 
L 324.34625 240.745432 
L 327.389886 243.022572 
L 330.433523 245.293971 
L 333.477159 247.561505 
L 336.520795 249.826365 
L 339.564432 252.088965 
L 342.608068 254.349105 
L 345.651705 256.606286 
L 348.695341 258.86006 
L 351.738977 261.110246 
L 354.782614 263.356953 
L 357.82625 265.600391 
L 360.869886 267.840575 
L 363.913523 270.077111 
L 366.957159 272.309215 
L 370.000795 274.536076 
L 373.044432 276.757437 
L 376.088068 278.974172 
" clip-path="url(#pb05d97451b)" style="fill: none; stroke-dasharray: 1.5,2.475; stroke-dashoffset: 0; stroke: #bcbd22; stroke-width: 1.5"/>
   </g>
   <g id="line2d_19">
    <path d="M 71.724432 35.04 
L 74.768068 37.497146 
L 77.811705 39.967434 
L 80.855341 42.44653 
L 83.898977 44.929817 
L 86.942614 47.413206 
L 89.98625 49.893458 
L 93.029886 52.368103 
L 96.073523 54.835209 
L 99.117159 57.293214 
L 102.160795 59.740957 
L 105.204432 62.177841 
L 108.248068 64.603992 
L 111.291705 67.020272 
L 114.335341 69.428133 
L 117.378977 71.829368 
L 120.422614 74.225864 
L 123.46625 76.619429 
L 126.509886 79.011688 
L 129.553523 81.403987 
L 132.597159 83.797303 
L 135.640795 86.192154 
L 138.684432 88.588591 
L 141.728068 90.986283 
L 144.771705 93.384697 
L 147.815341 95.78327 
L 150.858977 98.181491 
L 153.902614 100.578849 
L 156.94625 102.974699 
L 159.989886 105.368148 
L 163.033523 107.758077 
L 166.077159 110.143349 
L 169.120795 112.523163 
L 172.164432 114.897421 
L 175.208068 117.266958 
L 178.251705 119.633517 
L 181.295341 121.999463 
L 184.338977 124.36731 
L 187.382614 126.73924 
L 190.42625 129.116754 
L 193.469886 131.500547 
L 196.513523 133.890611 
L 199.557159 136.286467 
L 202.600795 138.687434 
L 205.644432 141.09283 
L 208.688068 143.502104 
L 211.731705 145.914935 
L 214.775341 148.331411 
L 217.818977 150.752387 
L 220.862614 153.180042 
L 223.90625 155.618505 
L 226.949886 158.074307 
L 229.993523 160.556351 
L 233.037159 163.075176 
L 236.080795 165.641442 
L 239.124432 168.263838 
L 242.168068 170.946788 
L 245.211705 173.688557 
L 248.255341 176.480417 
L 251.298977 179.307408 
L 254.342614 182.150796 
L 257.38625 184.991691 
L 260.429886 187.814663 
L 263.473523 190.610126 
L 266.517159 193.374734 
L 269.560795 196.109907 
L 272.604432 198.819299 
L 275.648068 201.506272 
L 278.691705 204.172155 
L 281.735341 206.815651 
L 284.778977 209.433248 
L 287.822614 212.020318 
L 290.86625 214.572472 
L 293.909886 217.08681 
L 296.953523 219.562757 
L 299.997159 222.002302 
L 303.040795 224.409583 
L 306.084432 226.789983 
L 309.128068 229.149039 
L 312.171705 231.491529 
L 315.215341 233.820994 
L 318.258977 236.139745 
L 321.302614 238.449213 
L 324.34625 240.750377 
L 327.389886 243.044043 
L 330.433523 245.330887 
L 333.477159 247.611324 
L 336.520795 249.885392 
L 339.564432 252.15275 
L 342.608068 254.412892 
L 345.651705 256.66549 
L 348.695341 258.910759 
L 351.738977 261.149665 
L 354.782614 263.383868 
L 357.82625 265.615353 
L 360.869886 267.845857 
L 363.913523 270.076317 
L 366.957159 272.306612 
L 370.000795 274.535767 
L 373.044432 276.762617 
L 376.088068 278.986637 
" clip-path="url(#pb05d97451b)" style="fill: none; stroke-dasharray: 1.5,2.475; stroke-dashoffset: 0; stroke: #17becf; stroke-width: 1.5"/>
   </g>
   <g id="line2d_20">
    <path d="M 71.724432 35.170108 
L 74.768068 37.637267 
L 77.811705 40.099729 
L 80.855341 42.556026 
L 83.898977 45.006021 
L 86.942614 47.450851 
L 89.98625 49.892325 
L 93.029886 52.332099 
L 96.073523 54.770977 
L 99.117159 57.208602 
L 102.160795 59.643658 
L 105.204432 62.074447 
L 108.248068 64.499585 
L 111.291705 66.918533 
L 114.335341 69.331773 
L 117.378977 71.740618 
L 120.422614 74.146788 
L 123.46625 76.551921 
L 126.509886 78.95719 
L 129.553523 81.363109 
L 132.597159 83.76953 
L 135.640795 86.175794 
L 138.684432 88.580964 
L 141.728068 90.984076 
L 144.771705 93.38435 
L 147.815341 95.781319 
L 150.858977 98.174874 
L 153.902614 100.565222 
L 156.94625 102.952803 
L 159.989886 105.338183 
L 163.033523 107.721963 
L 166.077159 110.104679 
L 169.120795 112.486707 
L 172.164432 114.868179 
L 175.208068 117.248948 
L 178.251705 119.628655 
L 181.295341 122.006908 
L 184.338977 124.383537 
L 187.382614 126.758829 
L 190.42625 129.133636 
L 193.469886 131.50931 
L 196.513523 133.88747 
L 199.557159 136.269693 
L 202.600795 138.657258 
L 205.644432 141.050995 
L 208.688068 143.451318 
L 211.731705 145.858416 
L 214.775341 148.272566 
L 217.818977 150.694535 
L 220.862614 153.125989 
L 223.90625 155.569819 
L 226.949886 158.030309 
L 229.993523 160.513036 
L 233.037159 163.024445 
L 236.080795 165.571077 
L 239.124432 168.158496 
L 242.168068 170.79012 
L 245.211705 173.466264 
L 248.255341 176.183786 
L 251.298977 178.936582 
L 254.342614 181.716811 
L 257.38625 184.516388 
L 260.429886 187.328038 
L 263.473523 190.145485 
L 266.517159 192.962792 
L 269.560795 195.773378 
L 272.604432 198.569398 
L 275.648068 201.341943 
L 278.691705 204.08201 
L 281.735341 206.781846 
L 284.778977 209.436082 
L 287.822614 212.042316 
L 290.86625 214.601072 
L 293.909886 217.115287 
L 296.953523 219.589582 
L 299.997159 222.029469 
L 303.040795 224.440632 
L 306.084432 226.828313 
L 309.128068 229.196874 
L 312.171705 231.549559 
L 315.215341 233.888489 
L 318.258977 236.214844 
L 321.302614 238.529197 
L 324.34625 240.831878 
L 327.389886 243.123299 
L 330.433523 245.404149 
L 333.477159 247.675452 
L 336.520795 249.938488 
L 339.564432 252.194644 
L 342.608068 254.445234 
L 345.651705 256.691352 
L 348.695341 258.933793 
L 351.738977 261.173037 
L 354.782614 263.409309 
L 357.82625 265.642662 
L 360.869886 267.873078 
L 363.913523 270.100549 
L 366.957159 272.325161 
L 370.000795 274.547188 
L 373.044432 276.767251 
L 376.088068 278.986552 
" clip-path="url(#pb05d97451b)" style="fill: none; stroke-dasharray: 1.5,2.475; stroke-dashoffset: 0; stroke: #1f77b4; stroke-width: 1.5"/>
   </g>
   <g id="line2d_21">
    <path d="M 71.724432 35.083017 
L 74.768068 37.547059 
L 77.811705 40.016679 
L 80.855341 42.489043 
L 83.898977 44.961327 
L 86.942614 47.431253 
L 89.98625 49.897171 
L 93.029886 52.357854 
L 96.073523 54.812226 
L 99.117159 57.259243 
L 102.160795 59.698009 
L 105.204432 62.128031 
L 108.248068 64.549467 
L 111.291705 66.963192 
L 114.335341 69.370666 
L 117.378977 71.773646 
L 120.422614 74.173883 
L 123.46625 76.572901 
L 126.509886 78.97186 
L 129.553523 81.371514 
L 132.597159 83.772189 
L 135.640795 86.173811 
L 138.684432 88.575984 
L 141.728068 90.978133 
L 144.771705 93.37968 
L 147.815341 95.780169 
L 150.858977 98.179281 
L 153.902614 100.576723 
L 156.94625 102.972061 
L 159.989886 105.364601 
L 163.033523 107.753429 
L 166.077159 110.137615 
L 169.120795 112.51655 
L 172.164432 114.890267 
L 175.208068 117.259619 
L 178.251705 119.626237 
L 181.295341 121.992272 
L 184.338977 124.360006 
L 187.382614 126.731465 
L 190.42625 129.108151 
L 193.469886 131.490937 
L 196.513523 133.880113 
L 199.557159 136.275537 
L 202.600795 138.676806 
L 205.644432 141.083398 
L 208.688068 143.494787 
L 211.731705 145.910567 
L 214.775341 148.330659 
L 217.818977 150.75565 
L 220.862614 153.18727 
L 223.90625 155.628898 
L 226.949886 158.085898 
L 229.993523 160.56557 
L 233.037159 163.076539 
L 236.080795 165.62758 
L 239.124432 168.225997 
L 242.168068 170.875907 
L 245.211705 173.576862 
L 248.255341 176.323314 
L 251.298977 179.105244 
L 254.342614 181.909951 
L 257.38625 184.724461 
L 260.429886 187.537728 
L 263.473523 190.341809 
L 266.517159 193.131705 
L 269.560795 195.904209 
L 272.604432 198.656501 
L 275.648068 201.385207 
L 278.691705 204.086237 
L 281.735341 206.75525 
L 284.778977 209.388369 
L 287.822614 211.982809 
L 290.86625 214.53728 
L 293.909886 217.052173 
L 296.953523 219.529548 
L 299.997159 221.972908 
L 303.040795 224.386726 
L 306.084432 226.775768 
L 309.128068 229.144395 
L 312.171705 231.496033 
L 315.215341 233.833016 
L 318.258977 236.156791 
L 321.302614 238.468352 
L 324.34625 240.768682 
L 327.389886 243.058985 
L 330.433523 245.340657 
L 333.477159 247.615063 
L 336.520795 249.883277 
L 339.564432 252.145935 
L 342.608068 254.403275 
L 345.651705 256.65535 
L 348.695341 258.902294 
L 351.738977 261.144529 
L 354.782614 263.382791 
L 357.82625 265.617944 
L 360.869886 267.850661 
L 363.913523 270.081127 
L 366.957159 272.308954 
L 370.000795 274.533441 
L 373.044432 276.754125 
L 376.088068 278.971423 
" clip-path="url(#pb05d97451b)" style="fill: none; stroke: #ff7f0e; stroke-width: 1.5; stroke-linecap: square"/>
   </g>
   <g id="patch_3">
    <path d="M 56.50625 299.64 
L 56.50625 22.44 
" style="fill: none; stroke: #000000; stroke-width: 0.8; stroke-linejoin: miter; stroke-linecap: square"/>
   </g>
   <g id="patch_4">
    <path d="M 391.30625 299.64 
L 391.30625 22.44 
" style="fill: none; stroke: #000000; stroke-width: 0.8; stroke-linejoin: miter; stroke-linecap: square"/>
   </g>
   <g id="patch_5">
    <path d="M 56.50625 299.64 
L 391.30625 299.64 
" style="fill: none; stroke: #000000; stroke-width: 0.8; stroke-linejoin: miter; stroke-linecap: square"/>
   </g>
   <g id="patch_6">
    <path d="M 56.50625 22.44 
L 391.30625 22.44 
" style="fill: none; stroke: #000000; stroke-width: 0.8; stroke-linejoin: miter; stroke-linecap: square"/>
   </g>
   <g id="text_12">
    <!-- Wilson action average with respect to $\beta$ -->
    <g transform="translate(104.50625 16.44) scale(0.12 -0.12)">
     <defs>
      <path id="DejaVuSans-57" d="M 213 4666 
L 850 4666 
L 1831 722 
L 2809 4666 
L 3519 4666 
L 4500 722 
L 5478 4666 
L 6119 4666 
L 4947 0 
L 4153 0 
L 3169 4050 
L 2175 0 
L 1381 0 
L 213 4666 
z
" transform="scale(0.015625)"/>
      <path id="DejaVuSans-69" d="M 603 3500 
L 1178 3500 
L 1178 0 
L 603 0 
L 603 3500 
z
M 603 4863 
L 1178 4863 
L 1178 4134 
L 603 4134 
L 603 4863 
z
" transform="scale(0.015625)"/>
      <path id="DejaVuSans-6c" d="M 603 4863 
L 1178 4863 
L 1178 0 
L 603 0 
L 603 4863 
z
" transform="scale(0.015625)"/>
      <path id="DejaVuSans-73" d="M 2834 3397 
L 2834 2853 
Q 2591 2978 2328 3040 
Q 2066 3103 1784 3103 
Q 1356 3103 1142 2972 
Q 928 2841 928 2578 
Q 928 2378 1081 2264 
Q 1234 2150 1697 2047 
L 1894 2003 
Q 2506 1872 2764 1633 
Q 3022 1394 3022 966 
Q 3022 478 2636 193 
Q 2250 -91 1575 -91 
Q 1294 -91 989 -36 
Q 684 19 347 128 
L 347 722 
Q 666 556 975 473 
Q 1284 391 1588 391 
Q 1994 391 2212 530 
Q 2431 669 2431 922 
Q 2431 1156 2273 1281 
Q 2116 1406 1581 1522 
L 1381 1569 
Q 847 1681 609 1914 
Q 372 2147 372 2553 
Q 372 3047 722 3315 
Q 1072 3584 1716 3584 
Q 2034 3584 2315 3537 
Q 2597 3491 2834 3397 
z
" transform="scale(0.015625)"/>
      <path id="DejaVuSans-6f" d="M 1959 3097 
Q 1497 3097 1228 2736 
Q 959 2375 959 1747 
Q 959 1119 1226 758 
Q 1494 397 1959 397 
Q 2419 397 2687 759 
Q 2956 1122 2956 1747 
Q 2956 2369 2687 2733 
Q 2419 3097 1959 3097 
z
M 1959 3584 
Q 2709 3584 3137 3096 
Q 3566 2609 3566 1747 
Q 3566 888 3137 398 
Q 2709 -91 1959 -91 
Q 1206 -91 779 398 
Q 353 888 353 1747 
Q 353 2609 779 3096 
Q 1206 3584 1959 3584 
z
" transform="scale(0.015625)"/>
      <path id="DejaVuSans-6e" d="M 3513 2113 
L 3513 0 
L 2938 0 
L 2938 2094 
Q 2938 2591 2744 2837 
Q 2550 3084 2163 3084 
Q 1697 3084 1428 2787 
Q 1159 2491 1159 1978 
L 1159 0 
L 581 0 
L 581 3500 
L 1159 3500 
L 1159 2956 
Q 1366 3272 1645 3428 
Q 1925 3584 2291 3584 
Q 2894 3584 3203 3211 
Q 3513 2838 3513 2113 
z
" transform="scale(0.015625)"/>
      <path id="DejaVuSans-61" d="M 2194 1759 
Q 1497 1759 1228 1600 
Q 959 1441 959 1056 
Q 959 750 1161 570 
Q 1363 391 1709 391 
Q 2188 391 2477 730 
Q 2766 1069 2766 1631 
L 2766 1759 
L 2194 1759 
z
M 3341 1997 
L 3341 0 
L 2766 0 
L 2766 531 
Q 2569 213 2275 61 
Q 1981 -91 1556 -91 
Q 1019 -91 701 211 
Q 384 513 384 1019 
Q 384 1609 779 1909 
Q 1175 2209 1959 2209 
L 2766 2209 
L 2766 2266 
Q 2766 2663 2505 2880 
Q 2244 3097 1772 3097 
Q 1472 3097 1187 3025 
Q 903 2953 641 2809 
L 641 3341 
Q 956 3463 1253 3523 
Q 1550 3584 1831 3584 
Q 2591 3584 2966 3190 
Q 3341 2797 3341 1997 
z
" transform="scale(0.015625)"/>
      <path id="DejaVuSans-63" d="M 3122 3366 
L 3122 2828 
Q 2878 2963 2633 3030 
Q 2388 3097 2138 3097 
Q 1578 3097 1268 2742 
Q 959 2388 959 1747 
Q 959 1106 1268 751 
Q 1578 397 2138 397 
Q 2388 397 2633 464 
Q 2878 531 3122 666 
L 3122 134 
Q 2881 22 2623 -34 
Q 2366 -91 2075 -91 
Q 1284 -91 818 406 
Q 353 903 353 1747 
Q 353 2603 823 3093 
Q 1294 3584 2113 3584 
Q 2378 3584 2631 3529 
Q 2884 3475 3122 3366 
z
" transform="scale(0.015625)"/>
      <path id="DejaVuSans-74" d="M 1172 4494 
L 1172 3500 
L 2356 3500 
L 2356 3053 
L 1172 3053 
L 1172 1153 
Q 1172 725 1289 603 
Q 1406 481 1766 481 
L 2356 481 
L 2356 0 
L 1766 0 
Q 1100 0 847 248 
Q 594 497 594 1153 
L 594 3053 
L 172 3053 
L 172 3500 
L 594 3500 
L 594 4494 
L 1172 4494 
z
" transform="scale(0.015625)"/>
      <path id="DejaVuSans-76" d="M 191 3500 
L 800 3500 
L 1894 563 
L 2988 3500 
L 3597 3500 
L 2284 0 
L 1503 0 
L 191 3500 
z
" transform="scale(0.015625)"/>
      <path id="DejaVuSans-65" d="M 3597 1894 
L 3597 1613 
L 953 1613 
Q 991 1019 1311 708 
Q 1631 397 2203 397 
Q 2534 397 2845 478 
Q 3156 559 3463 722 
L 3463 178 
Q 3153 47 2828 -22 
Q 2503 -91 2169 -91 
Q 1331 -91 842 396 
Q 353 884 353 1716 
Q 353 2575 817 3079 
Q 1281 3584 2069 3584 
Q 2775 3584 3186 3129 
Q 3597 2675 3597 1894 
z
M 3022 2063 
Q 3016 2534 2758 2815 
Q 2500 3097 2075 3097 
Q 1594 3097 1305 2825 
Q 1016 2553 972 2059 
L 3022 2063 
z
" transform="scale(0.015625)"/>
      <path id="DejaVuSans-72" d="M 2631 2963 
Q 2534 3019 2420 3045 
Q 2306 3072 2169 3072 
Q 1681 3072 1420 2755 
Q 1159 2438 1159 1844 
L 1159 0 
L 581 0 
L 581 3500 
L 1159 3500 
L 1159 2956 
Q 1341 3275 1631 3429 
Q 1922 3584 2338 3584 
Q 2397 3584 2469 3576 
Q 2541 3569 2628 3553 
L 2631 2963 
z
" transform="scale(0.015625)"/>
      <path id="DejaVuSans-67" d="M 2906 1791 
Q 2906 2416 2648 2759 
Q 2391 3103 1925 3103 
Q 1463 3103 1205 2759 
Q 947 2416 947 1791 
Q 947 1169 1205 825 
Q 1463 481 1925 481 
Q 2391 481 2648 825 
Q 2906 1169 2906 1791 
z
M 3481 434 
Q 3481 -459 3084 -895 
Q 2688 -1331 1869 -1331 
Q 1566 -1331 1297 -1286 
Q 1028 -1241 775 -1147 
L 775 -588 
Q 1028 -725 1275 -790 
Q 1522 -856 1778 -856 
Q 2344 -856 2625 -561 
Q 2906 -266 2906 331 
L 2906 616 
Q 2728 306 2450 153 
Q 2172 0 1784 0 
Q 1141 0 747 490 
Q 353 981 353 1791 
Q 353 2603 747 3093 
Q 1141 3584 1784 3584 
Q 2172 3584 2450 3431 
Q 2728 3278 2906 2969 
L 2906 3500 
L 3481 3500 
L 3481 434 
z
" transform="scale(0.015625)"/>
      <path id="DejaVuSans-77" d="M 269 3500 
L 844 3500 
L 1563 769 
L 2278 3500 
L 2956 3500 
L 3675 769 
L 4391 3500 
L 4966 3500 
L 4050 0 
L 3372 0 
L 2619 2869 
L 1863 0 
L 1184 0 
L 269 3500 
z
" transform="scale(0.015625)"/>
      <path id="DejaVuSans-68" d="M 3513 2113 
L 3513 0 
L 2938 0 
L 2938 2094 
Q 2938 2591 2744 2837 
Q 2550 3084 2163 3084 
Q 1697 3084 1428 2787 
Q 1159 2491 1159 1978 
L 1159 0 
L 581 0 
L 581 4863 
L 1159 4863 
L 1159 2956 
Q 1366 3272 1645 3428 
Q 1925 3584 2291 3584 
Q 2894 3584 3203 3211 
Q 3513 2838 3513 2113 
z
" transform="scale(0.015625)"/>
      <path id="DejaVuSans-70" d="M 1159 525 
L 1159 -1331 
L 581 -1331 
L 581 3500 
L 1159 3500 
L 1159 2969 
Q 1341 3281 1617 3432 
Q 1894 3584 2278 3584 
Q 2916 3584 3314 3078 
Q 3713 2572 3713 1747 
Q 3713 922 3314 415 
Q 2916 -91 2278 -91 
Q 1894 -91 1617 61 
Q 1341 213 1159 525 
z
M 3116 1747 
Q 3116 2381 2855 2742 
Q 2594 3103 2138 3103 
Q 1681 3103 1420 2742 
Q 1159 2381 1159 1747 
Q 1159 1113 1420 752 
Q 1681 391 2138 391 
Q 2594 391 2855 752 
Q 3116 1113 3116 1747 
z
" transform="scale(0.015625)"/>
     </defs>
     <use xlink:href="#DejaVuSans-57" transform="translate(0 0.390625)"/>
     <use xlink:href="#DejaVuSans-69" transform="translate(98.876953 0.390625)"/>
     <use xlink:href="#DejaVuSans-6c" transform="translate(126.660156 0.390625)"/>
     <use xlink:href="#DejaVuSans-73" transform="translate(154.443359 0.390625)"/>
     <use xlink:href="#DejaVuSans-6f" transform="translate(206.542969 0.390625)"/>
     <use xlink:href="#DejaVuSans-6e" transform="translate(267.724609 0.390625)"/>
     <use xlink:href="#DejaVuSans-20" transform="translate(331.103516 0.390625)"/>
     <use xlink:href="#DejaVuSans-61" transform="translate(362.890625 0.390625)"/>
     <use xlink:href="#DejaVuSans-63" transform="translate(424.169922 0.390625)"/>
     <use xlink:href="#DejaVuSans-74" transform="translate(479.150391 0.390625)"/>
     <use xlink:href="#DejaVuSans-69" transform="translate(518.359375 0.390625)"/>
     <use xlink:href="#DejaVuSans-6f" transform="translate(546.142578 0.390625)"/>
     <use xlink:href="#DejaVuSans-6e" transform="translate(607.324219 0.390625)"/>
     <use xlink:href="#DejaVuSans-20" transform="translate(670.703125 0.390625)"/>
     <use xlink:href="#DejaVuSans-61" transform="translate(702.490234 0.390625)"/>
     <use xlink:href="#DejaVuSans-76" transform="translate(763.769531 0.390625)"/>
     <use xlink:href="#DejaVuSans-65" transform="translate(822.949219 0.390625)"/>
     <use xlink:href="#DejaVuSans-72" transform="translate(884.472656 0.390625)"/>
     <use xlink:href="#DejaVuSans-61" transform="translate(925.585938 0.390625)"/>
     <use xlink:href="#DejaVuSans-67" transform="translate(986.865234 0.390625)"/>
     <use xlink:href="#DejaVuSans-65" transform="translate(1050.341797 0.390625)"/>
     <use xlink:href="#DejaVuSans-20" transform="translate(1111.865234 0.390625)"/>
     <use xlink:href="#DejaVuSans-77" transform="translate(1143.652344 0.390625)"/>
     <use xlink:href="#DejaVuSans-69" transform="translate(1225.439453 0.390625)"/>
     <use xlink:href="#DejaVuSans-74" transform="translate(1253.222656 0.390625)"/>
     <use xlink:href="#DejaVuSans-68" transform="translate(1292.431641 0.390625)"/>
     <use xlink:href="#DejaVuSans-20" transform="translate(1355.810547 0.390625)"/>
     <use xlink:href="#DejaVuSans-72" transform="translate(1387.597656 0.390625)"/>
     <use xlink:href="#DejaVuSans-65" transform="translate(1428.710938 0.390625)"/>
     <use xlink:href="#DejaVuSans-73" transform="translate(1490.234375 0.390625)"/>
     <use xlink:href="#DejaVuSans-70" transform="translate(1542.333984 0.390625)"/>
     <use xlink:href="#DejaVuSans-65" transform="translate(1605.810547 0.390625)"/>
     <use xlink:href="#DejaVuSans-63" transform="translate(1667.333984 0.390625)"/>
     <use xlink:href="#DejaVuSans-74" transform="translate(1722.314453 0.390625)"/>
     <use xlink:href="#DejaVuSans-20" transform="translate(1761.523438 0.390625)"/>
     <use xlink:href="#DejaVuSans-74" transform="translate(1793.310547 0.390625)"/>
     <use xlink:href="#DejaVuSans-6f" transform="translate(1832.519531 0.390625)"/>
     <use xlink:href="#DejaVuSans-20" transform="translate(1893.701172 0.390625)"/>
     <use xlink:href="#DejaVuSans-Oblique-3b2" transform="translate(1925.488281 0.390625)"/>
    </g>
   </g>
   <g id="legend_1">
    <g id="patch_7">
     <path d="M 315.84375 206.5775 
L 384.30625 206.5775 
Q 386.30625 206.5775 386.30625 204.5775 
L 386.30625 29.44 
Q 386.30625 27.44 384.30625 27.44 
L 315.84375 27.44 
Q 313.84375 27.44 313.84375 29.44 
L 313.84375 204.5775 
Q 313.84375 206.5775 315.84375 206.5775 
z
" style="fill: #ffffff; opacity: 0.8; stroke: #cccccc; stroke-linejoin: miter"/>
    </g>
    <g id="line2d_22">
     <path d="M 317.84375 35.538437 
L 327.84375 35.538437 
L 337.84375 35.538437 
" style="fill: none; stroke-dasharray: 1.5,2.475; stroke-dashoffset: 0; stroke: #1f77b4; stroke-width: 1.5"/>
    </g>
    <g id="text_13">
     <!-- 0 -->
     <g transform="translate(345.84375 39.038437) scale(0.1 -0.1)">
      <use xlink:href="#DejaVuSans-30"/>
     </g>
    </g>
    <g id="line2d_23">
     <path d="M 317.84375 50.216563 
L 327.84375 50.216563 
L 337.84375 50.216563 
" style="fill: none; stroke-dasharray: 1.5,2.475; stroke-dashoffset: 0; stroke: #ff7f0e; stroke-width: 1.5"/>
    </g>
    <g id="text_14">
     <!-- 1 -->
     <g transform="translate(345.84375 53.716563) scale(0.1 -0.1)">
      <use xlink:href="#DejaVuSans-31"/>
     </g>
    </g>
    <g id="line2d_24">
     <path d="M 317.84375 64.894688 
L 327.84375 64.894688 
L 337.84375 64.894688 
" style="fill: none; stroke-dasharray: 1.5,2.475; stroke-dashoffset: 0; stroke: #2ca02c; stroke-width: 1.5"/>
    </g>
    <g id="text_15">
     <!-- 2 -->
     <g transform="translate(345.84375 68.394688) scale(0.1 -0.1)">
      <use xlink:href="#DejaVuSans-32"/>
     </g>
    </g>
    <g id="line2d_25">
     <path d="M 317.84375 79.572812 
L 327.84375 79.572812 
L 337.84375 79.572812 
" style="fill: none; stroke-dasharray: 1.5,2.475; stroke-dashoffset: 0; stroke: #d62728; stroke-width: 1.5"/>
    </g>
    <g id="text_16">
     <!-- 3 -->
     <g transform="translate(345.84375 83.072812) scale(0.1 -0.1)">
      <use xlink:href="#DejaVuSans-33"/>
     </g>
    </g>
    <g id="line2d_26">
     <path d="M 317.84375 94.250938 
L 327.84375 94.250938 
L 337.84375 94.250938 
" style="fill: none; stroke-dasharray: 1.5,2.475; stroke-dashoffset: 0; stroke: #9467bd; stroke-width: 1.5"/>
    </g>
    <g id="text_17">
     <!-- 4 -->
     <g transform="translate(345.84375 97.750938) scale(0.1 -0.1)">
      <use xlink:href="#DejaVuSans-34"/>
     </g>
    </g>
    <g id="line2d_27">
     <path d="M 317.84375 108.929062 
L 327.84375 108.929062 
L 337.84375 108.929062 
" style="fill: none; stroke: #8c564b; stroke-width: 1.5; stroke-linecap: square"/>
    </g>
    <g id="text_18">
     <!-- notwist -->
     <g transform="translate(345.84375 112.429062) scale(0.1 -0.1)">
      <use xlink:href="#DejaVuSans-6e"/>
      <use xlink:href="#DejaVuSans-6f" x="63.378906"/>
      <use xlink:href="#DejaVuSans-74" x="124.560547"/>
      <use xlink:href="#DejaVuSans-77" x="163.769531"/>
      <use xlink:href="#DejaVuSans-69" x="245.556641"/>
      <use xlink:href="#DejaVuSans-73" x="273.339844"/>
      <use xlink:href="#DejaVuSans-74" x="325.439453"/>
     </g>
    </g>
    <g id="line2d_28">
     <path d="M 317.84375 123.607188 
L 327.84375 123.607188 
L 337.84375 123.607188 
" style="fill: none; stroke-dasharray: 1.5,2.475; stroke-dashoffset: 0; stroke: #e377c2; stroke-width: 1.5"/>
    </g>
    <g id="text_19">
     <!-- 0 -->
     <g transform="translate(345.84375 127.107188) scale(0.1 -0.1)">
      <use xlink:href="#DejaVuSans-30"/>
     </g>
    </g>
    <g id="line2d_29">
     <path d="M 317.84375 138.285312 
L 327.84375 138.285312 
L 337.84375 138.285312 
" style="fill: none; stroke-dasharray: 1.5,2.475; stroke-dashoffset: 0; stroke: #7f7f7f; stroke-width: 1.5"/>
    </g>
    <g id="text_20">
     <!-- 1 -->
     <g transform="translate(345.84375 141.785312) scale(0.1 -0.1)">
      <use xlink:href="#DejaVuSans-31"/>
     </g>
    </g>
    <g id="line2d_30">
     <path d="M 317.84375 152.963437 
L 327.84375 152.963437 
L 337.84375 152.963437 
" style="fill: none; stroke-dasharray: 1.5,2.475; stroke-dashoffset: 0; stroke: #bcbd22; stroke-width: 1.5"/>
    </g>
    <g id="text_21">
     <!-- 2 -->
     <g transform="translate(345.84375 156.463437) scale(0.1 -0.1)">
      <use xlink:href="#DejaVuSans-32"/>
     </g>
    </g>
    <g id="line2d_31">
     <path d="M 317.84375 167.641562 
L 327.84375 167.641562 
L 337.84375 167.641562 
" style="fill: none; stroke-dasharray: 1.5,2.475; stroke-dashoffset: 0; stroke: #17becf; stroke-width: 1.5"/>
    </g>
    <g id="text_22">
     <!-- 3 -->
     <g transform="translate(345.84375 171.141562) scale(0.1 -0.1)">
      <use xlink:href="#DejaVuSans-33"/>
     </g>
    </g>
    <g id="line2d_32">
     <path d="M 317.84375 182.319687 
L 327.84375 182.319687 
L 337.84375 182.319687 
" style="fill: none; stroke-dasharray: 1.5,2.475; stroke-dashoffset: 0; stroke: #1f77b4; stroke-width: 1.5"/>
    </g>
    <g id="text_23">
     <!-- 4 -->
     <g transform="translate(345.84375 185.819687) scale(0.1 -0.1)">
      <use xlink:href="#DejaVuSans-34"/>
     </g>
    </g>
    <g id="line2d_33">
     <path d="M 317.84375 196.997812 
L 327.84375 196.997812 
L 337.84375 196.997812 
" style="fill: none; stroke: #ff7f0e; stroke-width: 1.5; stroke-linecap: square"/>
    </g>
    <g id="text_24">
     <!-- twist -->
     <g transform="translate(345.84375 200.497812) scale(0.1 -0.1)">
      <use xlink:href="#DejaVuSans-74"/>
      <use xlink:href="#DejaVuSans-77" x="39.208984"/>
      <use xlink:href="#DejaVuSans-69" x="120.996094"/>
      <use xlink:href="#DejaVuSans-73" x="148.779297"/>
      <use xlink:href="#DejaVuSans-74" x="200.878906"/>
     </g>
    </g>
   </g>
  </g>
  <g id="text_25">
   <!-- Twist coefficients 0 and 2. N=5 Jackknife bins -->
   <g transform="translate(45.70625 339.24) scale(0.1 -0.1)">
    <defs>
     <path id="DejaVuSans-Oblique-54" d="M 378 4666 
L 4325 4666 
L 4225 4134 
L 2559 4134 
L 1759 0 
L 1125 0 
L 1925 4134 
L 275 4134 
L 378 4666 
z
" transform="scale(0.015625)"/>
     <path id="DejaVuSans-Oblique-77" d="M 544 3500 
L 1113 3500 
L 1259 684 
L 2566 3500 
L 3231 3500 
L 3425 684 
L 4666 3500 
L 5241 3500 
L 3641 0 
L 2969 0 
L 2797 2900 
L 1459 0 
L 781 0 
L 544 3500 
z
" transform="scale(0.015625)"/>
     <path id="DejaVuSans-Oblique-69" d="M 1172 4863 
L 1747 4863 
L 1606 4134 
L 1031 4134 
L 1172 4863 
z
M 909 3500 
L 1484 3500 
L 800 0 
L 225 0 
L 909 3500 
z
" transform="scale(0.015625)"/>
     <path id="DejaVuSans-Oblique-73" d="M 3200 3397 
L 3091 2853 
Q 2863 2978 2609 3040 
Q 2356 3103 2088 3103 
Q 1634 3103 1373 2948 
Q 1113 2794 1113 2528 
Q 1113 2219 1719 2053 
Q 1766 2041 1788 2034 
L 1972 1978 
Q 2547 1819 2739 1644 
Q 2931 1469 2931 1166 
Q 2931 609 2489 259 
Q 2047 -91 1331 -91 
Q 1053 -91 747 -37 
Q 441 16 72 128 
L 184 722 
Q 500 559 806 475 
Q 1113 391 1394 391 
Q 1816 391 2080 572 
Q 2344 753 2344 1031 
Q 2344 1331 1650 1516 
L 1591 1531 
L 1394 1581 
Q 956 1697 753 1886 
Q 550 2075 550 2369 
Q 550 2928 970 3256 
Q 1391 3584 2113 3584 
Q 2397 3584 2667 3537 
Q 2938 3491 3200 3397 
z
" transform="scale(0.015625)"/>
     <path id="DejaVuSans-Oblique-74" d="M 2706 3500 
L 2619 3053 
L 1472 3053 
L 1100 1153 
Q 1081 1047 1072 975 
Q 1063 903 1063 863 
Q 1063 663 1183 572 
Q 1303 481 1569 481 
L 2150 481 
L 2053 0 
L 1503 0 
Q 991 0 739 200 
Q 488 400 488 806 
Q 488 878 497 964 
Q 506 1050 525 1153 
L 897 3053 
L 409 3053 
L 500 3500 
L 978 3500 
L 1172 4494 
L 1747 4494 
L 1556 3500 
L 2706 3500 
z
" transform="scale(0.015625)"/>
     <path id="DejaVuSans-Oblique-20" transform="scale(0.015625)"/>
     <path id="DejaVuSans-Oblique-63" d="M 3431 3366 
L 3316 2797 
Q 3109 2947 2876 3022 
Q 2644 3097 2394 3097 
Q 2119 3097 1870 3000 
Q 1622 2903 1453 2725 
Q 1184 2453 1037 2087 
Q 891 1722 891 1331 
Q 891 859 1127 628 
Q 1363 397 1844 397 
Q 2081 397 2348 469 
Q 2616 541 2906 684 
L 2797 116 
Q 2547 13 2283 -39 
Q 2019 -91 1741 -91 
Q 1044 -91 669 257 
Q 294 606 294 1253 
Q 294 1797 489 2255 
Q 684 2713 1069 3078 
Q 1331 3328 1684 3456 
Q 2038 3584 2456 3584 
Q 2700 3584 2940 3529 
Q 3181 3475 3431 3366 
z
" transform="scale(0.015625)"/>
     <path id="DejaVuSans-Oblique-6f" d="M 1625 -91 
Q 1009 -91 651 289 
Q 294 669 294 1325 
Q 294 1706 417 2101 
Q 541 2497 738 2766 
Q 1047 3184 1428 3384 
Q 1809 3584 2291 3584 
Q 2888 3584 3255 3212 
Q 3622 2841 3622 2241 
Q 3622 1825 3500 1412 
Q 3378 1000 3181 728 
Q 2875 309 2494 109 
Q 2113 -91 1625 -91 
z
M 891 1344 
Q 891 869 1089 633 
Q 1288 397 1691 397 
Q 2269 397 2648 901 
Q 3028 1406 3028 2181 
Q 3028 2634 2825 2865 
Q 2622 3097 2228 3097 
Q 1903 3097 1650 2945 
Q 1397 2794 1197 2484 
Q 1050 2253 970 1956 
Q 891 1659 891 1344 
z
" transform="scale(0.015625)"/>
     <path id="DejaVuSans-Oblique-65" d="M 3078 2063 
Q 3088 2113 3092 2166 
Q 3097 2219 3097 2272 
Q 3097 2653 2873 2875 
Q 2650 3097 2266 3097 
Q 1838 3097 1509 2826 
Q 1181 2556 1013 2059 
L 3078 2063 
z
M 3578 1613 
L 903 1613 
Q 884 1494 878 1425 
Q 872 1356 872 1306 
Q 872 872 1139 634 
Q 1406 397 1894 397 
Q 2269 397 2603 481 
Q 2938 566 3225 728 
L 3116 159 
Q 2806 34 2476 -28 
Q 2147 -91 1806 -91 
Q 1078 -91 686 257 
Q 294 606 294 1247 
Q 294 1794 489 2264 
Q 684 2734 1063 3103 
Q 1306 3334 1642 3459 
Q 1978 3584 2356 3584 
Q 2950 3584 3301 3228 
Q 3653 2872 3653 2272 
Q 3653 2128 3634 1964 
Q 3616 1800 3578 1613 
z
" transform="scale(0.015625)"/>
     <path id="DejaVuSans-Oblique-66" d="M 3059 4863 
L 2969 4384 
L 2419 4384 
Q 2106 4384 1964 4261 
Q 1822 4138 1753 3809 
L 1691 3500 
L 2638 3500 
L 2553 3053 
L 1606 3053 
L 1013 0 
L 434 0 
L 1031 3053 
L 481 3053 
L 563 3500 
L 1113 3500 
L 1159 3744 
Q 1278 4363 1576 4613 
Q 1875 4863 2516 4863 
L 3059 4863 
z
" transform="scale(0.015625)"/>
     <path id="DejaVuSans-Oblique-6e" d="M 3566 2113 
L 3156 0 
L 2578 0 
L 2988 2091 
Q 3016 2238 3031 2350 
Q 3047 2463 3047 2528 
Q 3047 2791 2881 2937 
Q 2716 3084 2419 3084 
Q 1956 3084 1622 2776 
Q 1288 2469 1184 1941 
L 800 0 
L 225 0 
L 903 3500 
L 1478 3500 
L 1363 2950 
Q 1603 3253 1940 3418 
Q 2278 3584 2650 3584 
Q 3113 3584 3367 3334 
Q 3622 3084 3622 2631 
Q 3622 2519 3608 2391 
Q 3594 2263 3566 2113 
z
" transform="scale(0.015625)"/>
     <path id="DejaVuSans-Oblique-30" d="M 2444 4750 
Q 3078 4750 3414 4328 
Q 3750 3906 3750 3116 
Q 3750 2516 3592 1923 
Q 3434 1331 3150 863 
Q 2859 394 2467 151 
Q 2075 -91 1600 -91 
Q 988 -91 653 334 
Q 319 759 319 1544 
Q 319 2138 480 2733 
Q 641 3328 928 3794 
Q 1216 4263 1602 4506 
Q 1988 4750 2444 4750 
z
M 2406 4250 
Q 2169 4250 1955 4123 
Q 1741 3997 1569 3750 
Q 1281 3338 1111 2720 
Q 941 2103 941 1453 
Q 941 938 1123 673 
Q 1306 409 1663 409 
Q 1913 409 2125 536 
Q 2338 663 2509 909 
Q 2794 1319 2961 1936 
Q 3128 2553 3128 3206 
Q 3128 3722 2945 3986 
Q 2763 4250 2406 4250 
z
" transform="scale(0.015625)"/>
     <path id="DejaVuSans-Oblique-61" d="M 3438 1997 
L 3047 0 
L 2472 0 
L 2578 531 
Q 2325 219 2001 64 
Q 1678 -91 1281 -91 
Q 834 -91 548 182 
Q 263 456 263 884 
Q 263 1497 752 1853 
Q 1241 2209 2100 2209 
L 2900 2209 
L 2931 2363 
Q 2938 2388 2941 2417 
Q 2944 2447 2944 2509 
Q 2944 2788 2717 2942 
Q 2491 3097 2081 3097 
Q 1800 3097 1504 3025 
Q 1209 2953 897 2809 
L 997 3341 
Q 1322 3463 1633 3523 
Q 1944 3584 2234 3584 
Q 2853 3584 3176 3315 
Q 3500 3047 3500 2534 
Q 3500 2431 3484 2292 
Q 3469 2153 3438 1997 
z
M 2816 1759 
L 2241 1759 
Q 1534 1759 1195 1570 
Q 856 1381 856 984 
Q 856 709 1029 553 
Q 1203 397 1509 397 
Q 1978 397 2328 733 
Q 2678 1069 2791 1631 
L 2816 1759 
z
" transform="scale(0.015625)"/>
     <path id="DejaVuSans-Oblique-64" d="M 2675 525 
Q 2444 222 2128 65 
Q 1813 -91 1428 -91 
Q 903 -91 598 267 
Q 294 625 294 1247 
Q 294 1766 478 2236 
Q 663 2706 1013 3078 
Q 1244 3325 1534 3454 
Q 1825 3584 2144 3584 
Q 2481 3584 2739 3421 
Q 2997 3259 3138 2956 
L 3513 4863 
L 4091 4863 
L 3144 0 
L 2566 0 
L 2675 525 
z
M 891 1350 
Q 891 897 1095 644 
Q 1300 391 1663 391 
Q 1931 391 2161 520 
Q 2391 650 2566 903 
Q 2750 1166 2856 1509 
Q 2963 1853 2963 2188 
Q 2963 2622 2758 2865 
Q 2553 3109 2194 3109 
Q 1922 3109 1687 2981 
Q 1453 2853 1288 2613 
Q 1106 2353 998 2009 
Q 891 1666 891 1350 
z
" transform="scale(0.015625)"/>
     <path id="DejaVuSans-Oblique-32" d="M 2950 2253 
L 934 525 
L 3163 525 
L 3053 0 
L 25 0 
L 128 531 
L 2234 2338 
Q 2656 2703 2832 2979 
Q 3009 3256 3009 3547 
Q 3009 3850 2796 4040 
Q 2584 4231 2241 4231 
Q 1944 4231 1581 4125 
Q 1219 4019 806 3816 
L 922 4441 
Q 1309 4594 1662 4672 
Q 2016 4750 2316 4750 
Q 2928 4750 3301 4425 
Q 3675 4100 3675 3572 
Q 3675 3216 3497 2892 
Q 3319 2569 2950 2253 
z
" transform="scale(0.015625)"/>
     <path id="DejaVuSans-Oblique-2e" d="M 525 794 
L 1184 794 
L 1031 0 
L 372 0 
L 525 794 
z
" transform="scale(0.015625)"/>
     <path id="DejaVuSans-Oblique-4e" d="M 1081 4666 
L 1931 4666 
L 3219 666 
L 4000 4666 
L 4616 4666 
L 3706 0 
L 2853 0 
L 1569 4025 
L 788 0 
L 172 0 
L 1081 4666 
z
" transform="scale(0.015625)"/>
     <path id="DejaVuSans-Oblique-3d" d="M 678 2906 
L 4684 2906 
L 4684 2381 
L 678 2381 
L 678 2906 
z
M 678 1631 
L 4684 1631 
L 4684 1100 
L 678 1100 
L 678 1631 
z
" transform="scale(0.015625)"/>
     <path id="DejaVuSans-Oblique-35" d="M 3719 4666 
L 3622 4141 
L 1691 4141 
L 1466 2988 
Q 1609 3034 1757 3056 
Q 1906 3078 2059 3078 
Q 2706 3078 3081 2731 
Q 3456 2384 3456 1791 
Q 3456 1375 3264 994 
Q 3072 613 2719 325 
Q 2469 125 2108 17 
Q 1747 -91 1319 -91 
Q 1038 -91 744 -41 
Q 450 9 128 109 
L 244 697 
Q 531 556 820 486 
Q 1109 416 1403 416 
Q 2013 416 2411 781 
Q 2809 1147 2809 1697 
Q 2809 2103 2548 2328 
Q 2288 2553 1819 2553 
Q 1572 2553 1305 2495 
Q 1038 2438 756 2322 
L 1209 4666 
L 3719 4666 
z
" transform="scale(0.015625)"/>
     <path id="DejaVuSans-Oblique-4a" d="M 1069 4666 
L 1703 4666 
L 856 325 
Q 691 -522 298 -901 
Q -94 -1281 -800 -1281 
L -1050 -1281 
L -947 -750 
L -750 -750 
Q -328 -750 -109 -509 
Q 109 -269 225 325 
L 1069 4666 
z
" transform="scale(0.015625)"/>
     <path id="DejaVuSans-Oblique-6b" d="M 1172 4863 
L 1747 4863 
L 1197 2028 
L 3169 3500 
L 3916 3500 
L 1716 1825 
L 3322 0 
L 2625 0 
L 1131 1709 
L 800 0 
L 225 0 
L 1172 4863 
z
" transform="scale(0.015625)"/>
     <path id="DejaVuSans-Oblique-62" d="M 3169 2138 
Q 3169 2591 2961 2847 
Q 2753 3103 2388 3103 
Q 2122 3103 1889 2973 
Q 1656 2844 1484 2597 
Q 1303 2338 1198 1995 
Q 1094 1653 1094 1313 
Q 1094 881 1298 636 
Q 1503 391 1863 391 
Q 2134 391 2365 517 
Q 2597 644 2772 891 
Q 2950 1147 3059 1487 
Q 3169 1828 3169 2138 
z
M 1381 2969 
Q 1594 3256 1914 3420 
Q 2234 3584 2584 3584 
Q 3122 3584 3439 3221 
Q 3756 2859 3756 2241 
Q 3756 1734 3570 1259 
Q 3384 784 3041 416 
Q 2816 172 2522 40 
Q 2228 -91 1906 -91 
Q 1566 -91 1316 65 
Q 1066 222 909 531 
L 806 0 
L 231 0 
L 1178 4863 
L 1753 4863 
L 1381 2969 
z
" transform="scale(0.015625)"/>
    </defs>
    <use xlink:href="#DejaVuSans-Oblique-54"/>
    <use xlink:href="#DejaVuSans-Oblique-77" x="52.958984"/>
    <use xlink:href="#DejaVuSans-Oblique-69" x="134.746094"/>
    <use xlink:href="#DejaVuSans-Oblique-73" x="162.529297"/>
    <use xlink:href="#DejaVuSans-Oblique-74" x="214.628906"/>
    <use xlink:href="#DejaVuSans-Oblique-20" x="253.837891"/>
    <use xlink:href="#DejaVuSans-Oblique-63" x="285.625"/>
    <use xlink:href="#DejaVuSans-Oblique-6f" x="340.605469"/>
    <use xlink:href="#DejaVuSans-Oblique-65" x="401.787109"/>
    <use xlink:href="#DejaVuSans-Oblique-66" x="463.310547"/>
    <use xlink:href="#DejaVuSans-Oblique-66" x="498.515625"/>
    <use xlink:href="#DejaVuSans-Oblique-69" x="533.720703"/>
    <use xlink:href="#DejaVuSans-Oblique-63" x="561.503906"/>
    <use xlink:href="#DejaVuSans-Oblique-69" x="616.484375"/>
    <use xlink:href="#DejaVuSans-Oblique-65" x="644.267578"/>
    <use xlink:href="#DejaVuSans-Oblique-6e" x="705.791016"/>
    <use xlink:href="#DejaVuSans-Oblique-74" x="769.169922"/>
    <use xlink:href="#DejaVuSans-Oblique-73" x="808.378906"/>
    <use xlink:href="#DejaVuSans-Oblique-20" x="860.478516"/>
    <use xlink:href="#DejaVuSans-Oblique-30" x="892.265625"/>
    <use xlink:href="#DejaVuSans-Oblique-20" x="955.888672"/>
    <use xlink:href="#DejaVuSans-Oblique-61" x="987.675781"/>
    <use xlink:href="#DejaVuSans-Oblique-6e" x="1048.955078"/>
    <use xlink:href="#DejaVuSans-Oblique-64" x="1112.333984"/>
    <use xlink:href="#DejaVuSans-Oblique-20" x="1175.810547"/>
    <use xlink:href="#DejaVuSans-Oblique-32" x="1207.597656"/>
    <use xlink:href="#DejaVuSans-Oblique-2e" x="1271.220703"/>
    <use xlink:href="#DejaVuSans-Oblique-20" x="1303.007812"/>
    <use xlink:href="#DejaVuSans-Oblique-4e" x="1334.794922"/>
    <use xlink:href="#DejaVuSans-Oblique-3d" x="1409.599609"/>
    <use xlink:href="#DejaVuSans-Oblique-35" x="1493.388672"/>
    <use xlink:href="#DejaVuSans-Oblique-20" x="1557.011719"/>
    <use xlink:href="#DejaVuSans-Oblique-4a" x="1588.798828"/>
    <use xlink:href="#DejaVuSans-Oblique-61" x="1618.291016"/>
    <use xlink:href="#DejaVuSans-Oblique-63" x="1679.570312"/>
    <use xlink:href="#DejaVuSans-Oblique-6b" x="1734.550781"/>
    <use xlink:href="#DejaVuSans-Oblique-6b" x="1792.460938"/>
    <use xlink:href="#DejaVuSans-Oblique-6e" x="1850.371094"/>
    <use xlink:href="#DejaVuSans-Oblique-69" x="1913.75"/>
    <use xlink:href="#DejaVuSans-Oblique-66" x="1941.533203"/>
    <use xlink:href="#DejaVuSans-Oblique-65" x="1976.738281"/>
    <use xlink:href="#DejaVuSans-Oblique-20" x="2038.261719"/>
    <use xlink:href="#DejaVuSans-Oblique-62" x="2070.048828"/>
    <use xlink:href="#DejaVuSans-Oblique-69" x="2133.525391"/>
    <use xlink:href="#DejaVuSans-Oblique-6e" x="2161.308594"/>
    <use xlink:href="#DejaVuSans-Oblique-73" x="2224.6875"/>
   </g>
  </g>
 </g>
 <defs>
  <clipPath id="pb05d97451b">
   <rect x="56.50625" y="22.44" width="334.8" height="277.2"/>
  </clipPath>
 </defs>
</svg>
