<?xml version="1.0" encoding="utf-8" standalone="no"?>
<!DOCTYPE svg PUBLIC "-//W3C//DTD SVG 1.1//EN"
  "http://www.w3.org/Graphics/SVG/1.1/DTD/svg11.dtd">
<svg xmlns:xlink="http://www.w3.org/1999/xlink" width="452.47475pt" height="363.399688pt" viewBox="0 0 452.47475 363.399688" xmlns="http://www.w3.org/2000/svg" version="1.1">
 <metadata>
  <rdf:RDF xmlns:dc="http://purl.org/dc/elements/1.1/" xmlns:cc="http://creativecommons.org/ns#" xmlns:rdf="http://www.w3.org/1999/02/22-rdf-syntax-ns#">
   <cc:Work>
    <dc:type rdf:resource="http://purl.org/dc/dcmitype/StillImage"/>
    <dc:date>2024-03-06T12:16:52.714674</dc:date>
    <dc:format>image/svg+xml</dc:format>
    <dc:creator>
     <cc:Agent>
      <dc:title>Matplotlib v3.8.0, https://matplotlib.org/</dc:title>
     </cc:Agent>
    </dc:creator>
   </cc:Work>
  </rdf:RDF>
 </metadata>
 <defs>
  <style type="text/css">*{stroke-linejoin: round; stroke-linecap: butt}</style>
 </defs>
 <g id="figure_1">
  <g id="patch_1">
   <path d="M 0 363.399688 
L 452.47475 363.399688 
L 452.47475 0 
L 0 0 
z
" style="fill: #ffffff"/>
  </g>
  <g id="axes_1">
   <g id="patch_2">
    <path d="M 62.86875 309.28 
L 415.00075 309.28 
L 415.00075 22.44 
L 62.86875 22.44 
z
" style="fill: #ffffff"/>
   </g>
   <g id="matplotlib.axis_1">
    <g id="xtick_1">
     <g id="line2d_1">
      <defs>
       <path id="mfe7212dd21" d="M 0 0 
L 0 3.5 
" style="stroke: #000000; stroke-width: 0.8"/>
      </defs>
      <g>
       <use xlink:href="#mfe7212dd21" x="110.88675" y="309.28" style="stroke: #000000; stroke-width: 0.8"/>
      </g>
     </g>
     <g id="text_1">
      <!-- 10.76 -->
      <g transform="translate(96.572688 323.878438) scale(0.1 -0.1)">
       <defs>
        <path id="DejaVuSans-31" d="M 794 531 
L 1825 531 
L 1825 4091 
L 703 3866 
L 703 4441 
L 1819 4666 
L 2450 4666 
L 2450 531 
L 3481 531 
L 3481 0 
L 794 0 
L 794 531 
z
" transform="scale(0.015625)"/>
        <path id="DejaVuSans-30" d="M 2034 4250 
Q 1547 4250 1301 3770 
Q 1056 3291 1056 2328 
Q 1056 1369 1301 889 
Q 1547 409 2034 409 
Q 2525 409 2770 889 
Q 3016 1369 3016 2328 
Q 3016 3291 2770 3770 
Q 2525 4250 2034 4250 
z
M 2034 4750 
Q 2819 4750 3233 4129 
Q 3647 3509 3647 2328 
Q 3647 1150 3233 529 
Q 2819 -91 2034 -91 
Q 1250 -91 836 529 
Q 422 1150 422 2328 
Q 422 3509 836 4129 
Q 1250 4750 2034 4750 
z
" transform="scale(0.015625)"/>
        <path id="DejaVuSans-2e" d="M 684 794 
L 1344 794 
L 1344 0 
L 684 0 
L 684 794 
z
" transform="scale(0.015625)"/>
        <path id="DejaVuSans-37" d="M 525 4666 
L 3525 4666 
L 3525 4397 
L 1831 0 
L 1172 0 
L 2766 4134 
L 525 4134 
L 525 4666 
z
" transform="scale(0.015625)"/>
        <path id="DejaVuSans-36" d="M 2113 2584 
Q 1688 2584 1439 2293 
Q 1191 2003 1191 1497 
Q 1191 994 1439 701 
Q 1688 409 2113 409 
Q 2538 409 2786 701 
Q 3034 994 3034 1497 
Q 3034 2003 2786 2293 
Q 2538 2584 2113 2584 
z
M 3366 4563 
L 3366 3988 
Q 3128 4100 2886 4159 
Q 2644 4219 2406 4219 
Q 1781 4219 1451 3797 
Q 1122 3375 1075 2522 
Q 1259 2794 1537 2939 
Q 1816 3084 2150 3084 
Q 2853 3084 3261 2657 
Q 3669 2231 3669 1497 
Q 3669 778 3244 343 
Q 2819 -91 2113 -91 
Q 1303 -91 875 529 
Q 447 1150 447 2328 
Q 447 3434 972 4092 
Q 1497 4750 2381 4750 
Q 2619 4750 2861 4703 
Q 3103 4656 3366 4563 
z
" transform="scale(0.015625)"/>
       </defs>
       <use xlink:href="#DejaVuSans-31"/>
       <use xlink:href="#DejaVuSans-30" x="63.623047"/>
       <use xlink:href="#DejaVuSans-2e" x="127.246094"/>
       <use xlink:href="#DejaVuSans-37" x="159.033203"/>
       <use xlink:href="#DejaVuSans-36" x="222.65625"/>
      </g>
     </g>
    </g>
    <g id="xtick_2">
     <g id="line2d_2">
      <g>
       <use xlink:href="#mfe7212dd21" x="174.91075" y="309.28" style="stroke: #000000; stroke-width: 0.8"/>
      </g>
     </g>
     <g id="text_2">
      <!-- 10.78 -->
      <g transform="translate(160.596688 323.878438) scale(0.1 -0.1)">
       <defs>
        <path id="DejaVuSans-38" d="M 2034 2216 
Q 1584 2216 1326 1975 
Q 1069 1734 1069 1313 
Q 1069 891 1326 650 
Q 1584 409 2034 409 
Q 2484 409 2743 651 
Q 3003 894 3003 1313 
Q 3003 1734 2745 1975 
Q 2488 2216 2034 2216 
z
M 1403 2484 
Q 997 2584 770 2862 
Q 544 3141 544 3541 
Q 544 4100 942 4425 
Q 1341 4750 2034 4750 
Q 2731 4750 3128 4425 
Q 3525 4100 3525 3541 
Q 3525 3141 3298 2862 
Q 3072 2584 2669 2484 
Q 3125 2378 3379 2068 
Q 3634 1759 3634 1313 
Q 3634 634 3220 271 
Q 2806 -91 2034 -91 
Q 1263 -91 848 271 
Q 434 634 434 1313 
Q 434 1759 690 2068 
Q 947 2378 1403 2484 
z
M 1172 3481 
Q 1172 3119 1398 2916 
Q 1625 2713 2034 2713 
Q 2441 2713 2670 2916 
Q 2900 3119 2900 3481 
Q 2900 3844 2670 4047 
Q 2441 4250 2034 4250 
Q 1625 4250 1398 4047 
Q 1172 3844 1172 3481 
z
" transform="scale(0.015625)"/>
       </defs>
       <use xlink:href="#DejaVuSans-31"/>
       <use xlink:href="#DejaVuSans-30" x="63.623047"/>
       <use xlink:href="#DejaVuSans-2e" x="127.246094"/>
       <use xlink:href="#DejaVuSans-37" x="159.033203"/>
       <use xlink:href="#DejaVuSans-38" x="222.65625"/>
      </g>
     </g>
    </g>
    <g id="xtick_3">
     <g id="line2d_3">
      <g>
       <use xlink:href="#mfe7212dd21" x="238.93475" y="309.28" style="stroke: #000000; stroke-width: 0.8"/>
      </g>
     </g>
     <g id="text_3">
      <!-- 10.80 -->
      <g transform="translate(224.620688 323.878438) scale(0.1 -0.1)">
       <use xlink:href="#DejaVuSans-31"/>
       <use xlink:href="#DejaVuSans-30" x="63.623047"/>
       <use xlink:href="#DejaVuSans-2e" x="127.246094"/>
       <use xlink:href="#DejaVuSans-38" x="159.033203"/>
       <use xlink:href="#DejaVuSans-30" x="222.65625"/>
      </g>
     </g>
    </g>
    <g id="xtick_4">
     <g id="line2d_4">
      <g>
       <use xlink:href="#mfe7212dd21" x="302.95875" y="309.28" style="stroke: #000000; stroke-width: 0.8"/>
      </g>
     </g>
     <g id="text_4">
      <!-- 10.82 -->
      <g transform="translate(288.644688 323.878438) scale(0.1 -0.1)">
       <defs>
        <path id="DejaVuSans-32" d="M 1228 531 
L 3431 531 
L 3431 0 
L 469 0 
L 469 531 
Q 828 903 1448 1529 
Q 2069 2156 2228 2338 
Q 2531 2678 2651 2914 
Q 2772 3150 2772 3378 
Q 2772 3750 2511 3984 
Q 2250 4219 1831 4219 
Q 1534 4219 1204 4116 
Q 875 4013 500 3803 
L 500 4441 
Q 881 4594 1212 4672 
Q 1544 4750 1819 4750 
Q 2544 4750 2975 4387 
Q 3406 4025 3406 3419 
Q 3406 3131 3298 2873 
Q 3191 2616 2906 2266 
Q 2828 2175 2409 1742 
Q 1991 1309 1228 531 
z
" transform="scale(0.015625)"/>
       </defs>
       <use xlink:href="#DejaVuSans-31"/>
       <use xlink:href="#DejaVuSans-30" x="63.623047"/>
       <use xlink:href="#DejaVuSans-2e" x="127.246094"/>
       <use xlink:href="#DejaVuSans-38" x="159.033203"/>
       <use xlink:href="#DejaVuSans-32" x="222.65625"/>
      </g>
     </g>
    </g>
    <g id="xtick_5">
     <g id="line2d_5">
      <g>
       <use xlink:href="#mfe7212dd21" x="366.98275" y="309.28" style="stroke: #000000; stroke-width: 0.8"/>
      </g>
     </g>
     <g id="text_5">
      <!-- 10.84 -->
      <g transform="translate(352.668688 323.878438) scale(0.1 -0.1)">
       <defs>
        <path id="DejaVuSans-34" d="M 2419 4116 
L 825 1625 
L 2419 1625 
L 2419 4116 
z
M 2253 4666 
L 3047 4666 
L 3047 1625 
L 3713 1625 
L 3713 1100 
L 3047 1100 
L 3047 0 
L 2419 0 
L 2419 1100 
L 313 1100 
L 313 1709 
L 2253 4666 
z
" transform="scale(0.015625)"/>
       </defs>
       <use xlink:href="#DejaVuSans-31"/>
       <use xlink:href="#DejaVuSans-30" x="63.623047"/>
       <use xlink:href="#DejaVuSans-2e" x="127.246094"/>
       <use xlink:href="#DejaVuSans-38" x="159.033203"/>
       <use xlink:href="#DejaVuSans-34" x="222.65625"/>
      </g>
     </g>
    </g>
    <g id="text_6">
     <!-- $\beta$ -->
     <g transform="translate(235.73475 337.658125) scale(0.1 -0.1)">
      <defs>
       <path id="DejaVuSans-Oblique-3b2" d="M 872 216 
L 572 -1331 
L -6 -1331 
L 928 3478 
Q 1206 4903 2538 4903 
Q 3888 4903 3659 3700 
Q 3503 2844 2894 2531 
Q 3713 2250 3553 1416 
Q 3272 -69 1759 -66 
Q 1097 -63 872 216 
z
M 1019 966 
Q 1259 422 1875 425 
Q 2775 425 2966 1406 
Q 3138 2288 1675 2219 
L 1778 2750 
Q 2909 2731 3106 3750 
Q 3241 4438 2509 4434 
Q 1691 4434 1503 3459 
L 1019 966 
z
" transform="scale(0.015625)"/>
      </defs>
      <use xlink:href="#DejaVuSans-Oblique-3b2" transform="translate(0 0.390625)"/>
     </g>
    </g>
   </g>
   <g id="matplotlib.axis_2">
    <g id="ytick_1">
     <g id="line2d_6">
      <defs>
       <path id="m36edec64a7" d="M 0 0 
L -3.5 0 
" style="stroke: #000000; stroke-width: 0.8"/>
      </defs>
      <g>
       <use xlink:href="#m36edec64a7" x="62.86875" y="295.210569" style="stroke: #000000; stroke-width: 0.8"/>
      </g>
     </g>
     <g id="text_7">
      <!-- 0.0000 -->
      <g transform="translate(20.878125 299.009788) scale(0.1 -0.1)">
       <use xlink:href="#DejaVuSans-30"/>
       <use xlink:href="#DejaVuSans-2e" x="63.623047"/>
       <use xlink:href="#DejaVuSans-30" x="95.410156"/>
       <use xlink:href="#DejaVuSans-30" x="159.033203"/>
       <use xlink:href="#DejaVuSans-30" x="222.65625"/>
       <use xlink:href="#DejaVuSans-30" x="286.279297"/>
      </g>
     </g>
    </g>
    <g id="ytick_2">
     <g id="line2d_7">
      <g>
       <use xlink:href="#m36edec64a7" x="62.86875" y="256.196298" style="stroke: #000000; stroke-width: 0.8"/>
      </g>
     </g>
     <g id="text_8">
      <!-- 0.0001 -->
      <g transform="translate(20.878125 259.995516) scale(0.1 -0.1)">
       <use xlink:href="#DejaVuSans-30"/>
       <use xlink:href="#DejaVuSans-2e" x="63.623047"/>
       <use xlink:href="#DejaVuSans-30" x="95.410156"/>
       <use xlink:href="#DejaVuSans-30" x="159.033203"/>
       <use xlink:href="#DejaVuSans-30" x="222.65625"/>
       <use xlink:href="#DejaVuSans-31" x="286.279297"/>
      </g>
     </g>
    </g>
    <g id="ytick_3">
     <g id="line2d_8">
      <g>
       <use xlink:href="#m36edec64a7" x="62.86875" y="217.182026" style="stroke: #000000; stroke-width: 0.8"/>
      </g>
     </g>
     <g id="text_9">
      <!-- 0.0002 -->
      <g transform="translate(20.878125 220.981245) scale(0.1 -0.1)">
       <use xlink:href="#DejaVuSans-30"/>
       <use xlink:href="#DejaVuSans-2e" x="63.623047"/>
       <use xlink:href="#DejaVuSans-30" x="95.410156"/>
       <use xlink:href="#DejaVuSans-30" x="159.033203"/>
       <use xlink:href="#DejaVuSans-30" x="222.65625"/>
       <use xlink:href="#DejaVuSans-32" x="286.279297"/>
      </g>
     </g>
    </g>
    <g id="ytick_4">
     <g id="line2d_9">
      <g>
       <use xlink:href="#m36edec64a7" x="62.86875" y="178.167754" style="stroke: #000000; stroke-width: 0.8"/>
      </g>
     </g>
     <g id="text_10">
      <!-- 0.0003 -->
      <g transform="translate(20.878125 181.966973) scale(0.1 -0.1)">
       <defs>
        <path id="DejaVuSans-33" d="M 2597 2516 
Q 3050 2419 3304 2112 
Q 3559 1806 3559 1356 
Q 3559 666 3084 287 
Q 2609 -91 1734 -91 
Q 1441 -91 1130 -33 
Q 819 25 488 141 
L 488 750 
Q 750 597 1062 519 
Q 1375 441 1716 441 
Q 2309 441 2620 675 
Q 2931 909 2931 1356 
Q 2931 1769 2642 2001 
Q 2353 2234 1838 2234 
L 1294 2234 
L 1294 2753 
L 1863 2753 
Q 2328 2753 2575 2939 
Q 2822 3125 2822 3475 
Q 2822 3834 2567 4026 
Q 2313 4219 1838 4219 
Q 1578 4219 1281 4162 
Q 984 4106 628 3988 
L 628 4550 
Q 988 4650 1302 4700 
Q 1616 4750 1894 4750 
Q 2613 4750 3031 4423 
Q 3450 4097 3450 3541 
Q 3450 3153 3228 2886 
Q 3006 2619 2597 2516 
z
" transform="scale(0.015625)"/>
       </defs>
       <use xlink:href="#DejaVuSans-30"/>
       <use xlink:href="#DejaVuSans-2e" x="63.623047"/>
       <use xlink:href="#DejaVuSans-30" x="95.410156"/>
       <use xlink:href="#DejaVuSans-30" x="159.033203"/>
       <use xlink:href="#DejaVuSans-30" x="222.65625"/>
       <use xlink:href="#DejaVuSans-33" x="286.279297"/>
      </g>
     </g>
    </g>
    <g id="ytick_5">
     <g id="line2d_10">
      <g>
       <use xlink:href="#m36edec64a7" x="62.86875" y="139.153482" style="stroke: #000000; stroke-width: 0.8"/>
      </g>
     </g>
     <g id="text_11">
      <!-- 0.0004 -->
      <g transform="translate(20.878125 142.952701) scale(0.1 -0.1)">
       <use xlink:href="#DejaVuSans-30"/>
       <use xlink:href="#DejaVuSans-2e" x="63.623047"/>
       <use xlink:href="#DejaVuSans-30" x="95.410156"/>
       <use xlink:href="#DejaVuSans-30" x="159.033203"/>
       <use xlink:href="#DejaVuSans-30" x="222.65625"/>
       <use xlink:href="#DejaVuSans-34" x="286.279297"/>
      </g>
     </g>
    </g>
    <g id="ytick_6">
     <g id="line2d_11">
      <g>
       <use xlink:href="#m36edec64a7" x="62.86875" y="100.139211" style="stroke: #000000; stroke-width: 0.8"/>
      </g>
     </g>
     <g id="text_12">
      <!-- 0.0005 -->
      <g transform="translate(20.878125 103.938429) scale(0.1 -0.1)">
       <defs>
        <path id="DejaVuSans-35" d="M 691 4666 
L 3169 4666 
L 3169 4134 
L 1269 4134 
L 1269 2991 
Q 1406 3038 1543 3061 
Q 1681 3084 1819 3084 
Q 2600 3084 3056 2656 
Q 3513 2228 3513 1497 
Q 3513 744 3044 326 
Q 2575 -91 1722 -91 
Q 1428 -91 1123 -41 
Q 819 9 494 109 
L 494 744 
Q 775 591 1075 516 
Q 1375 441 1709 441 
Q 2250 441 2565 725 
Q 2881 1009 2881 1497 
Q 2881 1984 2565 2268 
Q 2250 2553 1709 2553 
Q 1456 2553 1204 2497 
Q 953 2441 691 2322 
L 691 4666 
z
" transform="scale(0.015625)"/>
       </defs>
       <use xlink:href="#DejaVuSans-30"/>
       <use xlink:href="#DejaVuSans-2e" x="63.623047"/>
       <use xlink:href="#DejaVuSans-30" x="95.410156"/>
       <use xlink:href="#DejaVuSans-30" x="159.033203"/>
       <use xlink:href="#DejaVuSans-30" x="222.65625"/>
       <use xlink:href="#DejaVuSans-35" x="286.279297"/>
      </g>
     </g>
    </g>
    <g id="ytick_7">
     <g id="line2d_12">
      <g>
       <use xlink:href="#m36edec64a7" x="62.86875" y="61.124939" style="stroke: #000000; stroke-width: 0.8"/>
      </g>
     </g>
     <g id="text_13">
      <!-- 0.0006 -->
      <g transform="translate(20.878125 64.924158) scale(0.1 -0.1)">
       <use xlink:href="#DejaVuSans-30"/>
       <use xlink:href="#DejaVuSans-2e" x="63.623047"/>
       <use xlink:href="#DejaVuSans-30" x="95.410156"/>
       <use xlink:href="#DejaVuSans-30" x="159.033203"/>
       <use xlink:href="#DejaVuSans-30" x="222.65625"/>
       <use xlink:href="#DejaVuSans-36" x="286.279297"/>
      </g>
     </g>
    </g>
    <g id="text_14">
     <!-- $\langle S_{t} - S_{nt} \rangle$ -->
     <g transform="translate(14.798438 187.51) rotate(-90) scale(0.1 -0.1)">
      <defs>
       <path id="DejaVuSans-27e8" d="M 572 2006 
L 1453 4856 
L 1984 4856 
L 1103 2006 
L 1984 -844 
L 1453 -844 
L 572 2006 
z
" transform="scale(0.015625)"/>
       <path id="DejaVuSans-Oblique-53" d="M 3859 4513 
L 3738 3897 
Q 3422 4066 3111 4152 
Q 2800 4238 2509 4238 
Q 1944 4238 1609 3991 
Q 1275 3744 1275 3334 
Q 1275 3109 1398 2989 
Q 1522 2869 2034 2731 
L 2413 2638 
Q 3053 2472 3303 2217 
Q 3553 1963 3553 1503 
Q 3553 797 2998 353 
Q 2444 -91 1538 -91 
Q 1166 -91 791 -17 
Q 416 56 38 206 
L 166 856 
Q 513 641 861 531 
Q 1209 422 1556 422 
Q 2147 422 2503 684 
Q 2859 947 2859 1369 
Q 2859 1650 2717 1795 
Q 2575 1941 2106 2059 
L 1728 2156 
Q 1081 2325 845 2545 
Q 609 2766 609 3163 
Q 609 3859 1145 4304 
Q 1681 4750 2541 4750 
Q 2875 4750 3203 4690 
Q 3531 4631 3859 4513 
z
" transform="scale(0.015625)"/>
       <path id="DejaVuSans-Oblique-74" d="M 2706 3500 
L 2619 3053 
L 1472 3053 
L 1100 1153 
Q 1081 1047 1072 975 
Q 1063 903 1063 863 
Q 1063 663 1183 572 
Q 1303 481 1569 481 
L 2150 481 
L 2053 0 
L 1503 0 
Q 991 0 739 200 
Q 488 400 488 806 
Q 488 878 497 964 
Q 506 1050 525 1153 
L 897 3053 
L 409 3053 
L 500 3500 
L 978 3500 
L 1172 4494 
L 1747 4494 
L 1556 3500 
L 2706 3500 
z
" transform="scale(0.015625)"/>
       <path id="DejaVuSans-2212" d="M 678 2272 
L 4684 2272 
L 4684 1741 
L 678 1741 
L 678 2272 
z
" transform="scale(0.015625)"/>
       <path id="DejaVuSans-Oblique-6e" d="M 3566 2113 
L 3156 0 
L 2578 0 
L 2988 2091 
Q 3016 2238 3031 2350 
Q 3047 2463 3047 2528 
Q 3047 2791 2881 2937 
Q 2716 3084 2419 3084 
Q 1956 3084 1622 2776 
Q 1288 2469 1184 1941 
L 800 0 
L 225 0 
L 903 3500 
L 1478 3500 
L 1363 2950 
Q 1603 3253 1940 3418 
Q 2278 3584 2650 3584 
Q 3113 3584 3367 3334 
Q 3622 3084 3622 2631 
Q 3622 2519 3608 2391 
Q 3594 2263 3566 2113 
z
" transform="scale(0.015625)"/>
       <path id="DejaVuSans-27e9" d="M 1925 2006 
L 1044 -844 
L 513 -844 
L 1394 2006 
L 513 4856 
L 1044 4856 
L 1925 2006 
z
" transform="scale(0.015625)"/>
      </defs>
      <use xlink:href="#DejaVuSans-27e8" transform="translate(0 0.125)"/>
      <use xlink:href="#DejaVuSans-Oblique-53" transform="translate(39.013672 0.125)"/>
      <use xlink:href="#DejaVuSans-Oblique-74" transform="translate(102.490234 -16.28125) scale(0.7)"/>
      <use xlink:href="#DejaVuSans-2212" transform="translate(152.15332 0.125)"/>
      <use xlink:href="#DejaVuSans-Oblique-53" transform="translate(255.424805 0.125)"/>
      <use xlink:href="#DejaVuSans-Oblique-6e" transform="translate(318.901367 -16.28125) scale(0.7)"/>
      <use xlink:href="#DejaVuSans-Oblique-74" transform="translate(363.266602 -16.28125) scale(0.7)"/>
      <use xlink:href="#DejaVuSans-27e9" transform="translate(393.447266 0.125)"/>
     </g>
    </g>
   </g>
   <g id="line2d_13">
    <path d="M 78.87475 293.933496 
L 82.07595 293.994955 
L 85.27715 294.249641 
L 88.47835 294.615883 
L 91.67955 295.010464 
L 94.88075 295.360955 
L 98.08195 295.612785 
L 101.28315 295.732432 
L 104.48435 295.708247 
L 107.68555 295.549741 
L 110.88675 295.285219 
L 114.08795 294.957053 
L 117.28915 294.614215 
L 120.49035 294.302921 
L 123.69155 294.057731 
L 126.89275 293.89601 
L 130.09395 293.817806 
L 133.29515 293.810953 
L 136.49635 293.858879 
L 139.69755 293.947528 
L 142.89875 294.068649 
L 146.09995 294.218968 
L 149.30115 294.396831 
L 152.50235 294.598584 
L 155.70355 294.815911 
L 158.90475 295.03377 
L 162.10595 295.227623 
L 165.30715 295.359098 
L 168.50835 295.370062 
L 171.70955 295.175205 
L 174.91075 294.651368 
L 178.11195 293.618316 
L 181.31315 291.801581 
L 184.51435 288.766161 
L 187.71555 283.815757 
L 190.91675 275.877224 
L 194.11795 263.454451 
L 197.31915 244.848654 
L 200.52035 218.910997 
L 203.72155 186.299275 
L 206.92275 150.327519 
L 210.12395 116.03299 
L 213.32515 87.690165 
L 216.52635 67.021022 
L 219.72755 53.40671 
L 222.92875 45.149708 
L 226.12995 40.50366 
L 229.33115 38.114159 
L 232.53235 37.076323 
L 235.73355 36.850014 
L 238.93475 37.156287 
L 242.13595 37.893029 
L 245.33715 39.071689 
L 248.53835 40.768507 
L 251.73955 43.085246 
L 254.94075 46.117326 
L 258.14195 49.928912 
L 261.34315 54.53517 
L 264.54435 59.892955 
L 267.74555 65.902082 
L 270.94675 72.41862 
L 274.14795 79.277932 
L 277.34915 86.320237 
L 280.55035 93.409196 
L 283.75155 100.437403 
L 286.95275 107.320002 
L 290.15395 113.983768 
L 293.35515 120.359657 
L 296.55635 126.382351 
L 299.75755 131.994753 
L 302.95875 137.153021 
L 306.15995 141.829267 
L 309.36115 146.012095 
L 312.56235 149.706684 
L 315.76355 152.935159 
L 318.96475 155.736133 
L 322.16595 158.161569 
L 325.36715 160.270331 
L 328.56835 162.120135 
L 331.76955 163.761116 
L 334.97075 165.233852 
L 338.17195 166.57233 
L 341.37315 167.809541 
L 344.57435 168.98184 
L 347.77555 170.128842 
L 350.97675 171.28811 
L 354.17795 172.486731 
L 357.37915 173.733637 
L 360.58035 175.016389 
L 363.78155 176.304473 
L 366.98275 177.558614 
L 370.18395 178.743254 
L 373.38515 179.837856 
L 376.58635 180.842745 
L 379.78755 181.777096 
L 382.98875 182.669795 
L 386.18995 183.547227 
L 389.39115 184.423629 
L 392.59235 185.298518 
L 395.79355 186.16208 
L 398.99475 187.005271 
" clip-path="url(#p89ac73c95f)" style="fill: none; stroke-dasharray: 1.5,2.475; stroke-dashoffset: 0; stroke: #1f77b4; stroke-width: 1.5"/>
   </g>
   <g id="line2d_14">
    <path d="M 78.87475 294.921987 
L 82.07595 294.813436 
L 85.27715 294.944398 
L 88.47835 295.236306 
L 91.67955 295.595815 
L 94.88075 295.928406 
L 98.08195 296.153311 
L 101.28315 296.215782 
L 104.48435 296.09439 
L 107.68555 295.802339 
L 110.88675 295.38262 
L 114.08795 294.89772 
L 117.28915 294.415702 
L 120.49035 293.995748 
L 123.69155 293.676888 
L 126.89275 293.473066 
L 130.09395 293.375657 
L 133.29515 293.361886 
L 136.49635 293.405418 
L 139.69755 293.484867 
L 142.89875 293.587555 
L 146.09995 293.708423 
L 149.30115 293.84618 
L 152.50235 293.999164 
L 155.70355 294.162166 
L 158.90475 294.32381 
L 162.10595 294.463295 
L 165.30715 294.545833 
L 168.50835 294.517068 
L 171.70955 294.296712 
L 174.91075 293.769547 
L 178.11195 292.767819 
L 181.31315 291.034107 
L 184.51435 288.150616 
L 187.71555 283.425399 
L 190.91675 275.75136 
L 194.11795 263.525025 
L 197.31915 244.848036 
L 200.52035 218.342704 
L 203.72155 184.607211 
L 206.92275 147.265263 
L 210.12395 111.911046 
L 213.32515 83.195239 
L 216.52635 62.807475 
L 219.72755 49.852689 
L 222.92875 42.358841 
L 226.12995 38.412447 
L 229.33115 36.593433 
L 232.53235 35.995315 
L 235.73355 36.108999 
L 238.93475 36.699709 
L 242.13595 37.711238 
L 245.33715 39.195088 
L 248.53835 41.254981 
L 251.73955 44.000513 
L 254.94075 47.508639 
L 258.14195 51.795295 
L 261.34315 56.801373 
L 264.54435 62.397003 
L 267.74555 68.404939 
L 270.94675 74.637826 
L 274.14795 80.937667 
L 277.34915 87.203297 
L 280.55035 93.395922 
L 283.75155 99.522241 
L 286.95275 105.604288 
L 290.15395 111.649558 
L 293.35515 117.632734 
L 296.55635 123.49329 
L 299.75755 129.146015 
L 302.95875 134.497575 
L 306.15995 139.462685 
L 309.36115 143.9764 
L 312.56235 148.001654 
L 315.76355 151.532138 
L 318.96475 154.590541 
L 322.16595 157.222355 
L 325.36715 159.486546 
L 328.56835 161.445655 
L 331.76955 163.158406 
L 334.97075 164.676828 
L 338.17195 166.047744 
L 341.37315 167.31623 
L 344.57435 168.527649 
L 347.77555 169.725773 
L 350.97675 170.94681 
L 354.17795 172.211689 
L 357.37915 173.520288 
L 360.58035 174.850855 
L 363.78155 176.165967 
L 366.98275 177.423758 
L 370.18395 178.590984 
L 373.38515 179.653386 
L 376.58635 180.619417 
L 379.78755 181.515671 
L 382.98875 182.375707 
L 386.18995 183.227116 
L 389.39115 184.082863 
L 392.59235 184.941216 
L 395.79355 185.794407 
L 398.99475 186.641874 
" clip-path="url(#p89ac73c95f)" style="fill: none; stroke-dasharray: 1.5,2.475; stroke-dashoffset: 0; stroke: #ff7f0e; stroke-width: 1.5"/>
   </g>
   <g id="line2d_15">
    <path d="M 78.87475 293.668568 
L 82.07595 293.813201 
L 85.27715 294.161763 
L 88.47835 294.640006 
L 91.67955 295.160508 
L 94.88075 295.638672 
L 98.08195 296.005002 
L 101.28315 296.212789 
L 104.48435 296.241818 
L 107.68555 296.09881 
L 110.88675 295.814738 
L 114.08795 295.438696 
L 117.28915 295.028433 
L 120.49035 294.639011 
L 123.69155 294.312395 
L 126.89275 294.071221 
L 130.09395 293.918694 
L 133.29515 293.844119 
L 136.49635 293.831202 
L 139.69755 293.865283 
L 142.89875 293.936777 
L 146.09995 294.040456 
L 149.30115 294.172323 
L 152.50235 294.326314 
L 155.70355 294.491963 
L 158.90475 294.65235 
L 162.10595 294.780792 
L 165.30715 294.835077 
L 168.50835 294.749027 
L 171.70955 294.421185 
L 174.91075 293.698558 
L 178.11195 292.349417 
L 181.31315 290.015294 
L 184.51435 286.13227 
L 187.71555 279.824359 
L 190.91675 269.81313 
L 194.11795 254.476696 
L 197.31915 232.30194 
L 200.52035 202.911362 
L 203.72155 168.253777 
L 206.92275 132.677634 
L 210.12395 101.076145 
L 213.32515 76.509806 
L 216.52635 59.424472 
L 219.72755 48.546947 
L 222.92875 42.108521 
L 226.12995 38.56413 
L 229.33115 36.805475 
L 232.53235 36.124751 
L 235.73355 36.112363 
L 238.93475 36.564062 
L 242.13595 37.413031 
L 245.33715 38.681129 
L 248.53835 40.440914 
L 251.73955 42.783632 
L 254.94075 45.792213 
L 258.14195 49.5202 
L 261.34315 53.978125 
L 264.54435 59.128761 
L 267.74555 64.892242 
L 270.94675 71.160238 
L 274.14795 77.814961 
L 277.34915 84.745616 
L 280.55035 91.855 
L 283.75155 99.053937 
L 286.95275 106.248517 
L 290.15395 113.329778 
L 293.35515 120.17399 
L 296.55635 126.654924 
L 299.75755 132.662368 
L 302.95875 138.118251 
L 306.15995 142.984298 
L 309.36115 147.260219 
L 312.56235 150.975361 
L 315.76355 154.177932 
L 318.96475 156.924818 
L 322.16595 159.273689 
L 325.36715 161.278087 
L 328.56835 162.985855 
L 331.76955 164.440784 
L 334.97075 165.68654 
L 338.17195 166.770974 
L 341.37315 167.748411 
L 344.57435 168.677998 
L 347.77555 169.617734 
L 350.97675 170.615679 
L 354.17795 171.70132 
L 357.37915 172.880309 
L 360.58035 174.134788 
L 363.78155 175.42967 
L 366.98275 176.723272 
L 370.18395 177.979159 
L 373.38515 179.175461 
L 376.58635 180.30852 
L 379.78755 181.389577 
L 382.98875 182.436024 
L 386.18995 183.461285 
L 389.39115 184.468351 
L 392.59235 185.450406 
L 395.79355 186.398279 
L 398.99475 187.310735 
" clip-path="url(#p89ac73c95f)" style="fill: none; stroke-dasharray: 1.5,2.475; stroke-dashoffset: 0; stroke: #2ca02c; stroke-width: 1.5"/>
   </g>
   <g id="line2d_16">
    <path d="M 78.87475 294.064519 
L 82.07595 293.763186 
L 85.27715 293.817766 
L 88.47835 294.121481 
L 91.67955 294.55305 
L 94.88075 294.998024 
L 98.08195 295.365207 
L 101.28315 295.595598 
L 104.48435 295.664336 
L 107.68555 295.577518 
L 110.88675 295.365765 
L 114.08795 295.075577 
L 117.28915 294.759253 
L 120.49035 294.464516 
L 123.69155 294.225858 
L 126.89275 294.059883 
L 130.09395 293.966003 
L 133.29515 293.931898 
L 136.49635 293.941228 
L 139.69755 293.980337 
L 142.89875 294.041553 
L 146.09995 294.122756 
L 149.30115 294.224583 
L 152.50235 294.347203 
L 155.70355 294.487659 
L 158.90475 294.637449 
L 162.10595 294.779284 
L 165.30715 294.882255 
L 168.50835 294.895238 
L 171.70955 294.738032 
L 174.91075 294.28774 
L 178.11195 293.354233 
L 181.31315 291.634731 
L 184.51435 288.636272 
L 187.71555 283.562899 
L 190.91675 275.195879 
L 194.11795 261.874049 
L 197.31915 241.810151 
L 200.52035 214.020688 
L 203.72155 179.705786 
L 206.92275 142.882614 
L 210.12395 108.915781 
L 213.32515 81.777101 
L 216.52635 62.594444 
L 219.72755 50.302571 
L 222.92875 43.032155 
L 226.12995 39.047298 
L 229.33115 37.073258 
L 232.53235 36.291236 
L 235.73355 36.232187 
L 238.93475 36.671938 
L 242.13595 37.551942 
L 245.33715 38.920892 
L 248.53835 40.887581 
L 251.73955 43.57884 
L 254.94075 47.101056 
L 258.14195 51.507034 
L 261.34315 56.772183 
L 264.54435 62.785397 
L 267.74555 69.359543 
L 270.94675 76.262518 
L 274.14795 83.262178 
L 277.34915 90.170978 
L 280.55035 96.874309 
L 283.75155 103.332998 
L 286.95275 109.561756 
L 290.15395 115.595024 
L 293.35515 121.454544 
L 296.55635 127.129387 
L 299.75755 132.572152 
L 302.95875 137.708827 
L 306.15995 142.456482 
L 309.36115 146.742488 
L 312.56235 150.520211 
L 315.76355 153.777881 
L 318.96475 156.539284 
L 322.16595 158.857049 
L 325.36715 160.801299 
L 328.56835 162.447549 
L 331.76955 163.867584 
L 334.97075 165.125318 
L 338.17195 166.277284 
L 341.37315 167.3752 
L 344.57435 168.46735 
L 347.77555 169.596434 
L 350.97675 170.793836 
L 354.17795 172.072524 
L 357.37915 173.422031 
L 360.58035 174.808627 
L 363.78155 176.182113 
L 366.98275 177.488344 
L 370.18395 178.684352 
L 373.38515 179.751435 
L 376.58635 180.701524 
L 379.78755 181.573891 
L 382.98875 182.422726 
L 386.18995 183.300104 
L 389.39115 184.241276 
L 392.59235 185.258461 
L 395.79355 186.345297 
L 398.99475 187.488885 
" clip-path="url(#p89ac73c95f)" style="fill: none; stroke-dasharray: 1.5,2.475; stroke-dashoffset: 0; stroke: #d62728; stroke-width: 1.5"/>
   </g>
   <g id="line2d_17">
    <path d="M 78.87475 296.132548 
L 82.07595 295.922435 
L 85.27715 295.755604 
L 88.47835 295.599602 
L 91.67955 295.444197 
L 94.88075 295.299009 
L 98.08195 295.184562 
L 101.28315 295.120123 
L 104.48435 295.113125 
L 107.68555 295.154192 
L 110.88675 295.219267 
L 114.08795 295.277418 
L 117.28915 295.300761 
L 120.49035 295.272622 
L 123.69155 295.191286 
L 126.89275 295.068739 
L 130.09395 294.925566 
L 133.29515 294.78422 
L 136.49635 294.662901 
L 139.69755 294.571623 
L 142.89875 294.511098 
L 146.09995 294.474043 
L 149.30115 294.44777 
L 152.50235 294.416683 
L 155.70355 294.363484 
L 158.90475 294.268464 
L 162.10595 294.106861 
L 165.30715 293.844462 
L 168.50835 293.431106 
L 171.70955 292.790261 
L 174.91075 291.800805 
L 178.11195 290.264688 
L 181.31315 287.852798 
L 184.51435 284.023241 
L 187.71555 277.918427 
L 190.91675 268.284043 
L 194.11795 253.531927 
L 197.31915 232.168087 
L 200.52035 203.7538 
L 203.72155 170.039472 
L 206.92275 135.103699 
L 210.12395 103.683051 
L 213.32515 78.890688 
L 216.52635 61.341156 
L 219.72755 49.913212 
L 222.92875 42.926672 
L 226.12995 38.880941 
L 229.33115 36.696709 
L 232.53235 35.692218 
L 235.73355 35.478182 
L 238.93475 35.856213 
L 242.13595 36.745207 
L 245.33715 38.134647 
L 248.53835 40.055771 
L 251.73955 42.561207 
L 254.94075 45.706523 
L 258.14195 49.531543 
L 261.34315 54.043715 
L 264.54435 59.208534 
L 267.74555 64.951288 
L 270.94675 71.170004 
L 274.14795 77.753792 
L 277.34915 84.59772 
L 280.55035 91.607458 
L 283.75155 98.693317 
L 286.95275 105.759737 
L 290.15395 112.69876 
L 293.35515 119.393162 
L 296.55635 125.728897 
L 299.75755 131.61125 
L 302.95875 136.977672 
L 306.15995 141.802814 
L 309.36115 146.095447 
L 312.56235 149.890112 
L 315.76355 153.237181 
L 318.96475 156.193949 
L 322.16595 158.817919 
L 325.36715 161.1622 
L 328.56835 163.272616 
L 331.76955 165.186142 
L 334.97075 166.930632 
L 338.17195 168.525899 
L 341.37315 169.98607 
L 344.57435 171.322762 
L 347.77555 172.548202 
L 350.97675 173.677301 
L 354.17795 174.727958 
L 357.37915 175.719503 
L 360.58035 176.669956 
L 363.78155 177.593228 
L 366.98275 178.497434 
L 370.18395 179.385021 
L 373.38515 180.254671 
L 376.58635 181.10427 
L 379.78755 181.933876 
L 382.98875 182.747674 
L 386.18995 183.55453 
L 389.39115 184.367451 
L 392.59235 185.202818 
L 395.79355 186.0803 
L 398.99475 187.023867 
" clip-path="url(#p89ac73c95f)" style="fill: none; stroke-dasharray: 1.5,2.475; stroke-dashoffset: 0; stroke: #9467bd; stroke-width: 1.5"/>
   </g>
   <g id="line2d_18">
    <path d="M 78.87475 294.544223 
L 82.07595 294.461443 
L 85.27715 294.585834 
L 88.47835 294.842656 
L 91.67955 295.152807 
L 94.88075 295.445013 
L 98.08195 295.664173 
L 101.28315 295.775345 
L 104.48435 295.764383 
L 107.68555 295.63652 
L 110.88675 295.413522 
L 114.08795 295.129293 
L 117.28915 294.823673 
L 120.49035 294.534963 
L 123.69155 294.292831 
L 126.89275 294.113784 
L 130.09395 294.000745 
L 133.29515 293.946615 
L 136.49635 293.939926 
L 139.69755 293.969928 
L 142.89875 294.029126 
L 146.09995 294.112929 
L 149.30115 294.217537 
L 152.50235 294.337589 
L 155.70355 294.464237 
L 158.90475 294.583169 
L 162.10595 294.671571 
L 165.30715 294.693345 
L 168.50835 294.5925 
L 171.70955 294.284279 
L 174.91075 293.641604 
L 178.11195 292.470895 
L 181.31315 290.467702 
L 184.51435 287.141712 
L 187.71555 281.709368 
L 190.91675 272.984327 
L 194.11795 259.37243 
L 197.31915 239.195374 
L 200.52035 211.58791 
L 203.72155 177.781104 
L 206.92275 141.651346 
L 210.12395 108.323803 
L 213.32515 81.6126 
L 216.52635 62.637714 
L 219.72755 50.404426 
L 222.92875 43.115179 
L 226.12995 39.081695 
L 229.33115 37.056607 
L 232.53235 36.235968 
L 235.73355 36.156349 
L 238.93475 36.589642 
L 242.13595 37.462889 
L 245.33715 38.800689 
L 248.53835 40.681551 
L 251.73955 43.201888 
L 254.94075 46.445152 
L 258.14195 50.456597 
L 261.34315 55.226113 
L 264.54435 60.68253 
L 267.74555 66.702019 
L 270.94675 73.129841 
L 274.14795 79.809306 
L 277.34915 86.60757 
L 280.55035 93.428377 
L 283.75155 100.207979 
L 286.95275 106.89886 
L 290.15395 113.451378 
L 293.35515 119.802817 
L 296.55635 125.87777 
L 299.75755 131.597308 
L 302.95875 136.891069 
L 306.15995 141.707109 
L 309.36115 146.01733 
L 312.56235 149.818805 
L 315.76355 153.132058 
L 318.96475 155.996945 
L 322.16595 158.466516 
L 325.36715 160.599693 
L 328.56835 162.454362 
L 331.76955 164.082806 
L 334.97075 165.530634 
L 338.17195 166.838846 
L 341.37315 168.047091 
L 344.57435 169.19552 
L 347.77555 170.323397 
L 350.97675 171.464347 
L 354.17795 172.640044 
L 357.37915 173.855154 
L 360.58035 175.096123 
L 363.78155 176.33509 
L 366.98275 177.538284 
L 370.18395 178.676554 
L 373.38515 179.734562 
L 376.58635 180.715295 
L 379.78755 181.638022 
L 382.98875 182.530385 
L 386.18995 183.418052 
L 389.39115 184.316714 
L 392.59235 185.230284 
L 395.79355 186.156072 
L 398.99475 187.094126 
" clip-path="url(#p89ac73c95f)" style="fill: none; stroke: #8c564b; stroke-width: 1.5; stroke-linecap: square"/>
   </g>
   <g id="patch_3">
    <path d="M 62.86875 309.28 
L 62.86875 22.44 
" style="fill: none; stroke: #000000; stroke-width: 0.8; stroke-linejoin: miter; stroke-linecap: square"/>
   </g>
   <g id="patch_4">
    <path d="M 415.00075 309.28 
L 415.00075 22.44 
" style="fill: none; stroke: #000000; stroke-width: 0.8; stroke-linejoin: miter; stroke-linecap: square"/>
   </g>
   <g id="patch_5">
    <path d="M 62.86875 309.28 
L 415.00075 309.28 
" style="fill: none; stroke: #000000; stroke-width: 0.8; stroke-linejoin: miter; stroke-linecap: square"/>
   </g>
   <g id="patch_6">
    <path d="M 62.86875 22.44 
L 415.00075 22.44 
" style="fill: none; stroke: #000000; stroke-width: 0.8; stroke-linejoin: miter; stroke-linecap: square"/>
   </g>
   <g id="text_15">
    <!-- Wilson action difference between twist and notwist with respect to $\beta$ -->
    <g transform="translate(32.59475 16.44) scale(0.12 -0.12)">
     <defs>
      <path id="DejaVuSans-57" d="M 213 4666 
L 850 4666 
L 1831 722 
L 2809 4666 
L 3519 4666 
L 4500 722 
L 5478 4666 
L 6119 4666 
L 4947 0 
L 4153 0 
L 3169 4050 
L 2175 0 
L 1381 0 
L 213 4666 
z
" transform="scale(0.015625)"/>
      <path id="DejaVuSans-69" d="M 603 3500 
L 1178 3500 
L 1178 0 
L 603 0 
L 603 3500 
z
M 603 4863 
L 1178 4863 
L 1178 4134 
L 603 4134 
L 603 4863 
z
" transform="scale(0.015625)"/>
      <path id="DejaVuSans-6c" d="M 603 4863 
L 1178 4863 
L 1178 0 
L 603 0 
L 603 4863 
z
" transform="scale(0.015625)"/>
      <path id="DejaVuSans-73" d="M 2834 3397 
L 2834 2853 
Q 2591 2978 2328 3040 
Q 2066 3103 1784 3103 
Q 1356 3103 1142 2972 
Q 928 2841 928 2578 
Q 928 2378 1081 2264 
Q 1234 2150 1697 2047 
L 1894 2003 
Q 2506 1872 2764 1633 
Q 3022 1394 3022 966 
Q 3022 478 2636 193 
Q 2250 -91 1575 -91 
Q 1294 -91 989 -36 
Q 684 19 347 128 
L 347 722 
Q 666 556 975 473 
Q 1284 391 1588 391 
Q 1994 391 2212 530 
Q 2431 669 2431 922 
Q 2431 1156 2273 1281 
Q 2116 1406 1581 1522 
L 1381 1569 
Q 847 1681 609 1914 
Q 372 2147 372 2553 
Q 372 3047 722 3315 
Q 1072 3584 1716 3584 
Q 2034 3584 2315 3537 
Q 2597 3491 2834 3397 
z
" transform="scale(0.015625)"/>
      <path id="DejaVuSans-6f" d="M 1959 3097 
Q 1497 3097 1228 2736 
Q 959 2375 959 1747 
Q 959 1119 1226 758 
Q 1494 397 1959 397 
Q 2419 397 2687 759 
Q 2956 1122 2956 1747 
Q 2956 2369 2687 2733 
Q 2419 3097 1959 3097 
z
M 1959 3584 
Q 2709 3584 3137 3096 
Q 3566 2609 3566 1747 
Q 3566 888 3137 398 
Q 2709 -91 1959 -91 
Q 1206 -91 779 398 
Q 353 888 353 1747 
Q 353 2609 779 3096 
Q 1206 3584 1959 3584 
z
" transform="scale(0.015625)"/>
      <path id="DejaVuSans-6e" d="M 3513 2113 
L 3513 0 
L 2938 0 
L 2938 2094 
Q 2938 2591 2744 2837 
Q 2550 3084 2163 3084 
Q 1697 3084 1428 2787 
Q 1159 2491 1159 1978 
L 1159 0 
L 581 0 
L 581 3500 
L 1159 3500 
L 1159 2956 
Q 1366 3272 1645 3428 
Q 1925 3584 2291 3584 
Q 2894 3584 3203 3211 
Q 3513 2838 3513 2113 
z
" transform="scale(0.015625)"/>
      <path id="DejaVuSans-20" transform="scale(0.015625)"/>
      <path id="DejaVuSans-61" d="M 2194 1759 
Q 1497 1759 1228 1600 
Q 959 1441 959 1056 
Q 959 750 1161 570 
Q 1363 391 1709 391 
Q 2188 391 2477 730 
Q 2766 1069 2766 1631 
L 2766 1759 
L 2194 1759 
z
M 3341 1997 
L 3341 0 
L 2766 0 
L 2766 531 
Q 2569 213 2275 61 
Q 1981 -91 1556 -91 
Q 1019 -91 701 211 
Q 384 513 384 1019 
Q 384 1609 779 1909 
Q 1175 2209 1959 2209 
L 2766 2209 
L 2766 2266 
Q 2766 2663 2505 2880 
Q 2244 3097 1772 3097 
Q 1472 3097 1187 3025 
Q 903 2953 641 2809 
L 641 3341 
Q 956 3463 1253 3523 
Q 1550 3584 1831 3584 
Q 2591 3584 2966 3190 
Q 3341 2797 3341 1997 
z
" transform="scale(0.015625)"/>
      <path id="DejaVuSans-63" d="M 3122 3366 
L 3122 2828 
Q 2878 2963 2633 3030 
Q 2388 3097 2138 3097 
Q 1578 3097 1268 2742 
Q 959 2388 959 1747 
Q 959 1106 1268 751 
Q 1578 397 2138 397 
Q 2388 397 2633 464 
Q 2878 531 3122 666 
L 3122 134 
Q 2881 22 2623 -34 
Q 2366 -91 2075 -91 
Q 1284 -91 818 406 
Q 353 903 353 1747 
Q 353 2603 823 3093 
Q 1294 3584 2113 3584 
Q 2378 3584 2631 3529 
Q 2884 3475 3122 3366 
z
" transform="scale(0.015625)"/>
      <path id="DejaVuSans-74" d="M 1172 4494 
L 1172 3500 
L 2356 3500 
L 2356 3053 
L 1172 3053 
L 1172 1153 
Q 1172 725 1289 603 
Q 1406 481 1766 481 
L 2356 481 
L 2356 0 
L 1766 0 
Q 1100 0 847 248 
Q 594 497 594 1153 
L 594 3053 
L 172 3053 
L 172 3500 
L 594 3500 
L 594 4494 
L 1172 4494 
z
" transform="scale(0.015625)"/>
      <path id="DejaVuSans-64" d="M 2906 2969 
L 2906 4863 
L 3481 4863 
L 3481 0 
L 2906 0 
L 2906 525 
Q 2725 213 2448 61 
Q 2172 -91 1784 -91 
Q 1150 -91 751 415 
Q 353 922 353 1747 
Q 353 2572 751 3078 
Q 1150 3584 1784 3584 
Q 2172 3584 2448 3432 
Q 2725 3281 2906 2969 
z
M 947 1747 
Q 947 1113 1208 752 
Q 1469 391 1925 391 
Q 2381 391 2643 752 
Q 2906 1113 2906 1747 
Q 2906 2381 2643 2742 
Q 2381 3103 1925 3103 
Q 1469 3103 1208 2742 
Q 947 2381 947 1747 
z
" transform="scale(0.015625)"/>
      <path id="DejaVuSans-66" d="M 2375 4863 
L 2375 4384 
L 1825 4384 
Q 1516 4384 1395 4259 
Q 1275 4134 1275 3809 
L 1275 3500 
L 2222 3500 
L 2222 3053 
L 1275 3053 
L 1275 0 
L 697 0 
L 697 3053 
L 147 3053 
L 147 3500 
L 697 3500 
L 697 3744 
Q 697 4328 969 4595 
Q 1241 4863 1831 4863 
L 2375 4863 
z
" transform="scale(0.015625)"/>
      <path id="DejaVuSans-65" d="M 3597 1894 
L 3597 1613 
L 953 1613 
Q 991 1019 1311 708 
Q 1631 397 2203 397 
Q 2534 397 2845 478 
Q 3156 559 3463 722 
L 3463 178 
Q 3153 47 2828 -22 
Q 2503 -91 2169 -91 
Q 1331 -91 842 396 
Q 353 884 353 1716 
Q 353 2575 817 3079 
Q 1281 3584 2069 3584 
Q 2775 3584 3186 3129 
Q 3597 2675 3597 1894 
z
M 3022 2063 
Q 3016 2534 2758 2815 
Q 2500 3097 2075 3097 
Q 1594 3097 1305 2825 
Q 1016 2553 972 2059 
L 3022 2063 
z
" transform="scale(0.015625)"/>
      <path id="DejaVuSans-72" d="M 2631 2963 
Q 2534 3019 2420 3045 
Q 2306 3072 2169 3072 
Q 1681 3072 1420 2755 
Q 1159 2438 1159 1844 
L 1159 0 
L 581 0 
L 581 3500 
L 1159 3500 
L 1159 2956 
Q 1341 3275 1631 3429 
Q 1922 3584 2338 3584 
Q 2397 3584 2469 3576 
Q 2541 3569 2628 3553 
L 2631 2963 
z
" transform="scale(0.015625)"/>
      <path id="DejaVuSans-62" d="M 3116 1747 
Q 3116 2381 2855 2742 
Q 2594 3103 2138 3103 
Q 1681 3103 1420 2742 
Q 1159 2381 1159 1747 
Q 1159 1113 1420 752 
Q 1681 391 2138 391 
Q 2594 391 2855 752 
Q 3116 1113 3116 1747 
z
M 1159 2969 
Q 1341 3281 1617 3432 
Q 1894 3584 2278 3584 
Q 2916 3584 3314 3078 
Q 3713 2572 3713 1747 
Q 3713 922 3314 415 
Q 2916 -91 2278 -91 
Q 1894 -91 1617 61 
Q 1341 213 1159 525 
L 1159 0 
L 581 0 
L 581 4863 
L 1159 4863 
L 1159 2969 
z
" transform="scale(0.015625)"/>
      <path id="DejaVuSans-77" d="M 269 3500 
L 844 3500 
L 1563 769 
L 2278 3500 
L 2956 3500 
L 3675 769 
L 4391 3500 
L 4966 3500 
L 4050 0 
L 3372 0 
L 2619 2869 
L 1863 0 
L 1184 0 
L 269 3500 
z
" transform="scale(0.015625)"/>
      <path id="DejaVuSans-68" d="M 3513 2113 
L 3513 0 
L 2938 0 
L 2938 2094 
Q 2938 2591 2744 2837 
Q 2550 3084 2163 3084 
Q 1697 3084 1428 2787 
Q 1159 2491 1159 1978 
L 1159 0 
L 581 0 
L 581 4863 
L 1159 4863 
L 1159 2956 
Q 1366 3272 1645 3428 
Q 1925 3584 2291 3584 
Q 2894 3584 3203 3211 
Q 3513 2838 3513 2113 
z
" transform="scale(0.015625)"/>
      <path id="DejaVuSans-70" d="M 1159 525 
L 1159 -1331 
L 581 -1331 
L 581 3500 
L 1159 3500 
L 1159 2969 
Q 1341 3281 1617 3432 
Q 1894 3584 2278 3584 
Q 2916 3584 3314 3078 
Q 3713 2572 3713 1747 
Q 3713 922 3314 415 
Q 2916 -91 2278 -91 
Q 1894 -91 1617 61 
Q 1341 213 1159 525 
z
M 3116 1747 
Q 3116 2381 2855 2742 
Q 2594 3103 2138 3103 
Q 1681 3103 1420 2742 
Q 1159 2381 1159 1747 
Q 1159 1113 1420 752 
Q 1681 391 2138 391 
Q 2594 391 2855 752 
Q 3116 1113 3116 1747 
z
" transform="scale(0.015625)"/>
     </defs>
     <use xlink:href="#DejaVuSans-57" transform="translate(0 0.390625)"/>
     <use xlink:href="#DejaVuSans-69" transform="translate(98.876953 0.390625)"/>
     <use xlink:href="#DejaVuSans-6c" transform="translate(126.660156 0.390625)"/>
     <use xlink:href="#DejaVuSans-73" transform="translate(154.443359 0.390625)"/>
     <use xlink:href="#DejaVuSans-6f" transform="translate(206.542969 0.390625)"/>
     <use xlink:href="#DejaVuSans-6e" transform="translate(267.724609 0.390625)"/>
     <use xlink:href="#DejaVuSans-20" transform="translate(331.103516 0.390625)"/>
     <use xlink:href="#DejaVuSans-61" transform="translate(362.890625 0.390625)"/>
     <use xlink:href="#DejaVuSans-63" transform="translate(424.169922 0.390625)"/>
     <use xlink:href="#DejaVuSans-74" transform="translate(479.150391 0.390625)"/>
     <use xlink:href="#DejaVuSans-69" transform="translate(518.359375 0.390625)"/>
     <use xlink:href="#DejaVuSans-6f" transform="translate(546.142578 0.390625)"/>
     <use xlink:href="#DejaVuSans-6e" transform="translate(607.324219 0.390625)"/>
     <use xlink:href="#DejaVuSans-20" transform="translate(670.703125 0.390625)"/>
     <use xlink:href="#DejaVuSans-64" transform="translate(702.490234 0.390625)"/>
     <use xlink:href="#DejaVuSans-69" transform="translate(765.966797 0.390625)"/>
     <use xlink:href="#DejaVuSans-66" transform="translate(793.75 0.390625)"/>
     <use xlink:href="#DejaVuSans-66" transform="translate(828.955078 0.390625)"/>
     <use xlink:href="#DejaVuSans-65" transform="translate(864.160156 0.390625)"/>
     <use xlink:href="#DejaVuSans-72" transform="translate(925.683594 0.390625)"/>
     <use xlink:href="#DejaVuSans-65" transform="translate(966.796875 0.390625)"/>
     <use xlink:href="#DejaVuSans-6e" transform="translate(1028.320312 0.390625)"/>
     <use xlink:href="#DejaVuSans-63" transform="translate(1091.699219 0.390625)"/>
     <use xlink:href="#DejaVuSans-65" transform="translate(1146.679688 0.390625)"/>
     <use xlink:href="#DejaVuSans-20" transform="translate(1208.203125 0.390625)"/>
     <use xlink:href="#DejaVuSans-62" transform="translate(1239.990234 0.390625)"/>
     <use xlink:href="#DejaVuSans-65" transform="translate(1303.466797 0.390625)"/>
     <use xlink:href="#DejaVuSans-74" transform="translate(1364.990234 0.390625)"/>
     <use xlink:href="#DejaVuSans-77" transform="translate(1404.199219 0.390625)"/>
     <use xlink:href="#DejaVuSans-65" transform="translate(1485.986328 0.390625)"/>
     <use xlink:href="#DejaVuSans-65" transform="translate(1547.509766 0.390625)"/>
     <use xlink:href="#DejaVuSans-6e" transform="translate(1609.033203 0.390625)"/>
     <use xlink:href="#DejaVuSans-20" transform="translate(1672.412109 0.390625)"/>
     <use xlink:href="#DejaVuSans-74" transform="translate(1704.199219 0.390625)"/>
     <use xlink:href="#DejaVuSans-77" transform="translate(1743.408203 0.390625)"/>
     <use xlink:href="#DejaVuSans-69" transform="translate(1825.195312 0.390625)"/>
     <use xlink:href="#DejaVuSans-73" transform="translate(1852.978516 0.390625)"/>
     <use xlink:href="#DejaVuSans-74" transform="translate(1905.078125 0.390625)"/>
     <use xlink:href="#DejaVuSans-20" transform="translate(1944.287109 0.390625)"/>
     <use xlink:href="#DejaVuSans-61" transform="translate(1976.074219 0.390625)"/>
     <use xlink:href="#DejaVuSans-6e" transform="translate(2037.353516 0.390625)"/>
     <use xlink:href="#DejaVuSans-64" transform="translate(2100.732422 0.390625)"/>
     <use xlink:href="#DejaVuSans-20" transform="translate(2164.208984 0.390625)"/>
     <use xlink:href="#DejaVuSans-6e" transform="translate(2195.996094 0.390625)"/>
     <use xlink:href="#DejaVuSans-6f" transform="translate(2259.375 0.390625)"/>
     <use xlink:href="#DejaVuSans-74" transform="translate(2320.556641 0.390625)"/>
     <use xlink:href="#DejaVuSans-77" transform="translate(2359.765625 0.390625)"/>
     <use xlink:href="#DejaVuSans-69" transform="translate(2441.552734 0.390625)"/>
     <use xlink:href="#DejaVuSans-73" transform="translate(2469.335938 0.390625)"/>
     <use xlink:href="#DejaVuSans-74" transform="translate(2521.435547 0.390625)"/>
     <use xlink:href="#DejaVuSans-20" transform="translate(2560.644531 0.390625)"/>
     <use xlink:href="#DejaVuSans-77" transform="translate(2592.431641 0.390625)"/>
     <use xlink:href="#DejaVuSans-69" transform="translate(2674.21875 0.390625)"/>
     <use xlink:href="#DejaVuSans-74" transform="translate(2702.001953 0.390625)"/>
     <use xlink:href="#DejaVuSans-68" transform="translate(2741.210938 0.390625)"/>
     <use xlink:href="#DejaVuSans-20" transform="translate(2804.589844 0.390625)"/>
     <use xlink:href="#DejaVuSans-72" transform="translate(2836.376953 0.390625)"/>
     <use xlink:href="#DejaVuSans-65" transform="translate(2877.490234 0.390625)"/>
     <use xlink:href="#DejaVuSans-73" transform="translate(2939.013672 0.390625)"/>
     <use xlink:href="#DejaVuSans-70" transform="translate(2991.113281 0.390625)"/>
     <use xlink:href="#DejaVuSans-65" transform="translate(3054.589844 0.390625)"/>
     <use xlink:href="#DejaVuSans-63" transform="translate(3116.113281 0.390625)"/>
     <use xlink:href="#DejaVuSans-74" transform="translate(3171.09375 0.390625)"/>
     <use xlink:href="#DejaVuSans-20" transform="translate(3210.302734 0.390625)"/>
     <use xlink:href="#DejaVuSans-74" transform="translate(3242.089844 0.390625)"/>
     <use xlink:href="#DejaVuSans-6f" transform="translate(3281.298828 0.390625)"/>
     <use xlink:href="#DejaVuSans-20" transform="translate(3342.480469 0.390625)"/>
     <use xlink:href="#DejaVuSans-Oblique-3b2" transform="translate(3374.267578 0.390625)"/>
    </g>
   </g>
   <g id="legend_1">
    <g id="patch_7">
     <path d="M 334.935125 118.50875 
L 408.00075 118.50875 
Q 410.00075 118.50875 410.00075 116.50875 
L 410.00075 29.44 
Q 410.00075 27.44 408.00075 27.44 
L 334.935125 27.44 
Q 332.935125 27.44 332.935125 29.44 
L 332.935125 116.50875 
Q 332.935125 118.50875 334.935125 118.50875 
z
" style="fill: #ffffff; opacity: 0.8; stroke: #cccccc; stroke-linejoin: miter"/>
    </g>
    <g id="line2d_19">
     <path d="M 336.935125 35.538437 
L 346.935125 35.538437 
L 356.935125 35.538437 
" style="fill: none; stroke-dasharray: 1.5,2.475; stroke-dashoffset: 0; stroke: #1f77b4; stroke-width: 1.5"/>
    </g>
    <g id="text_16">
     <!-- 0 -->
     <g transform="translate(364.935125 39.038437) scale(0.1 -0.1)">
      <use xlink:href="#DejaVuSans-30"/>
     </g>
    </g>
    <g id="line2d_20">
     <path d="M 336.935125 50.216563 
L 346.935125 50.216563 
L 356.935125 50.216563 
" style="fill: none; stroke-dasharray: 1.5,2.475; stroke-dashoffset: 0; stroke: #ff7f0e; stroke-width: 1.5"/>
    </g>
    <g id="text_17">
     <!-- 1 -->
     <g transform="translate(364.935125 53.716563) scale(0.1 -0.1)">
      <use xlink:href="#DejaVuSans-31"/>
     </g>
    </g>
    <g id="line2d_21">
     <path d="M 336.935125 64.894687 
L 346.935125 64.894687 
L 356.935125 64.894687 
" style="fill: none; stroke-dasharray: 1.5,2.475; stroke-dashoffset: 0; stroke: #2ca02c; stroke-width: 1.5"/>
    </g>
    <g id="text_18">
     <!-- 2 -->
     <g transform="translate(364.935125 68.394687) scale(0.1 -0.1)">
      <use xlink:href="#DejaVuSans-32"/>
     </g>
    </g>
    <g id="line2d_22">
     <path d="M 336.935125 79.572812 
L 346.935125 79.572812 
L 356.935125 79.572812 
" style="fill: none; stroke-dasharray: 1.5,2.475; stroke-dashoffset: 0; stroke: #d62728; stroke-width: 1.5"/>
    </g>
    <g id="text_19">
     <!-- 3 -->
     <g transform="translate(364.935125 83.072812) scale(0.1 -0.1)">
      <use xlink:href="#DejaVuSans-33"/>
     </g>
    </g>
    <g id="line2d_23">
     <path d="M 336.935125 94.250937 
L 346.935125 94.250937 
L 356.935125 94.250937 
" style="fill: none; stroke-dasharray: 1.5,2.475; stroke-dashoffset: 0; stroke: #9467bd; stroke-width: 1.5"/>
    </g>
    <g id="text_20">
     <!-- 4 -->
     <g transform="translate(364.935125 97.750937) scale(0.1 -0.1)">
      <use xlink:href="#DejaVuSans-34"/>
     </g>
    </g>
    <g id="line2d_24">
     <path d="M 336.935125 108.929062 
L 346.935125 108.929062 
L 356.935125 108.929062 
" style="fill: none; stroke: #8c564b; stroke-width: 1.5; stroke-linecap: square"/>
    </g>
    <g id="text_21">
     <!-- Average -->
     <g transform="translate(364.935125 112.429062) scale(0.1 -0.1)">
      <defs>
       <path id="DejaVuSans-41" d="M 2188 4044 
L 1331 1722 
L 3047 1722 
L 2188 4044 
z
M 1831 4666 
L 2547 4666 
L 4325 0 
L 3669 0 
L 3244 1197 
L 1141 1197 
L 716 0 
L 50 0 
L 1831 4666 
z
" transform="scale(0.015625)"/>
       <path id="DejaVuSans-76" d="M 191 3500 
L 800 3500 
L 1894 563 
L 2988 3500 
L 3597 3500 
L 2284 0 
L 1503 0 
L 191 3500 
z
" transform="scale(0.015625)"/>
       <path id="DejaVuSans-67" d="M 2906 1791 
Q 2906 2416 2648 2759 
Q 2391 3103 1925 3103 
Q 1463 3103 1205 2759 
Q 947 2416 947 1791 
Q 947 1169 1205 825 
Q 1463 481 1925 481 
Q 2391 481 2648 825 
Q 2906 1169 2906 1791 
z
M 3481 434 
Q 3481 -459 3084 -895 
Q 2688 -1331 1869 -1331 
Q 1566 -1331 1297 -1286 
Q 1028 -1241 775 -1147 
L 775 -588 
Q 1028 -725 1275 -790 
Q 1522 -856 1778 -856 
Q 2344 -856 2625 -561 
Q 2906 -266 2906 331 
L 2906 616 
Q 2728 306 2450 153 
Q 2172 0 1784 0 
Q 1141 0 747 490 
Q 353 981 353 1791 
Q 353 2603 747 3093 
Q 1141 3584 1784 3584 
Q 2172 3584 2450 3431 
Q 2728 3278 2906 2969 
L 2906 3500 
L 3481 3500 
L 3481 434 
z
" transform="scale(0.015625)"/>
      </defs>
      <use xlink:href="#DejaVuSans-41"/>
      <use xlink:href="#DejaVuSans-76" x="62.533203"/>
      <use xlink:href="#DejaVuSans-65" x="121.712891"/>
      <use xlink:href="#DejaVuSans-72" x="183.236328"/>
      <use xlink:href="#DejaVuSans-61" x="224.349609"/>
      <use xlink:href="#DejaVuSans-67" x="285.628906"/>
      <use xlink:href="#DejaVuSans-65" x="349.105469"/>
     </g>
    </g>
   </g>
  </g>
  <g id="text_22">
   <!-- Twist coefficients 0 and 2. N=5 Jackknife bins -->
   <g transform="translate(37.00075 354.12) scale(0.1 -0.1)">
    <defs>
     <path id="DejaVuSans-Oblique-54" d="M 378 4666 
L 4325 4666 
L 4225 4134 
L 2559 4134 
L 1759 0 
L 1125 0 
L 1925 4134 
L 275 4134 
L 378 4666 
z
" transform="scale(0.015625)"/>
     <path id="DejaVuSans-Oblique-77" d="M 544 3500 
L 1113 3500 
L 1259 684 
L 2566 3500 
L 3231 3500 
L 3425 684 
L 4666 3500 
L 5241 3500 
L 3641 0 
L 2969 0 
L 2797 2900 
L 1459 0 
L 781 0 
L 544 3500 
z
" transform="scale(0.015625)"/>
     <path id="DejaVuSans-Oblique-69" d="M 1172 4863 
L 1747 4863 
L 1606 4134 
L 1031 4134 
L 1172 4863 
z
M 909 3500 
L 1484 3500 
L 800 0 
L 225 0 
L 909 3500 
z
" transform="scale(0.015625)"/>
     <path id="DejaVuSans-Oblique-73" d="M 3200 3397 
L 3091 2853 
Q 2863 2978 2609 3040 
Q 2356 3103 2088 3103 
Q 1634 3103 1373 2948 
Q 1113 2794 1113 2528 
Q 1113 2219 1719 2053 
Q 1766 2041 1788 2034 
L 1972 1978 
Q 2547 1819 2739 1644 
Q 2931 1469 2931 1166 
Q 2931 609 2489 259 
Q 2047 -91 1331 -91 
Q 1053 -91 747 -37 
Q 441 16 72 128 
L 184 722 
Q 500 559 806 475 
Q 1113 391 1394 391 
Q 1816 391 2080 572 
Q 2344 753 2344 1031 
Q 2344 1331 1650 1516 
L 1591 1531 
L 1394 1581 
Q 956 1697 753 1886 
Q 550 2075 550 2369 
Q 550 2928 970 3256 
Q 1391 3584 2113 3584 
Q 2397 3584 2667 3537 
Q 2938 3491 3200 3397 
z
" transform="scale(0.015625)"/>
     <path id="DejaVuSans-Oblique-20" transform="scale(0.015625)"/>
     <path id="DejaVuSans-Oblique-63" d="M 3431 3366 
L 3316 2797 
Q 3109 2947 2876 3022 
Q 2644 3097 2394 3097 
Q 2119 3097 1870 3000 
Q 1622 2903 1453 2725 
Q 1184 2453 1037 2087 
Q 891 1722 891 1331 
Q 891 859 1127 628 
Q 1363 397 1844 397 
Q 2081 397 2348 469 
Q 2616 541 2906 684 
L 2797 116 
Q 2547 13 2283 -39 
Q 2019 -91 1741 -91 
Q 1044 -91 669 257 
Q 294 606 294 1253 
Q 294 1797 489 2255 
Q 684 2713 1069 3078 
Q 1331 3328 1684 3456 
Q 2038 3584 2456 3584 
Q 2700 3584 2940 3529 
Q 3181 3475 3431 3366 
z
" transform="scale(0.015625)"/>
     <path id="DejaVuSans-Oblique-6f" d="M 1625 -91 
Q 1009 -91 651 289 
Q 294 669 294 1325 
Q 294 1706 417 2101 
Q 541 2497 738 2766 
Q 1047 3184 1428 3384 
Q 1809 3584 2291 3584 
Q 2888 3584 3255 3212 
Q 3622 2841 3622 2241 
Q 3622 1825 3500 1412 
Q 3378 1000 3181 728 
Q 2875 309 2494 109 
Q 2113 -91 1625 -91 
z
M 891 1344 
Q 891 869 1089 633 
Q 1288 397 1691 397 
Q 2269 397 2648 901 
Q 3028 1406 3028 2181 
Q 3028 2634 2825 2865 
Q 2622 3097 2228 3097 
Q 1903 3097 1650 2945 
Q 1397 2794 1197 2484 
Q 1050 2253 970 1956 
Q 891 1659 891 1344 
z
" transform="scale(0.015625)"/>
     <path id="DejaVuSans-Oblique-65" d="M 3078 2063 
Q 3088 2113 3092 2166 
Q 3097 2219 3097 2272 
Q 3097 2653 2873 2875 
Q 2650 3097 2266 3097 
Q 1838 3097 1509 2826 
Q 1181 2556 1013 2059 
L 3078 2063 
z
M 3578 1613 
L 903 1613 
Q 884 1494 878 1425 
Q 872 1356 872 1306 
Q 872 872 1139 634 
Q 1406 397 1894 397 
Q 2269 397 2603 481 
Q 2938 566 3225 728 
L 3116 159 
Q 2806 34 2476 -28 
Q 2147 -91 1806 -91 
Q 1078 -91 686 257 
Q 294 606 294 1247 
Q 294 1794 489 2264 
Q 684 2734 1063 3103 
Q 1306 3334 1642 3459 
Q 1978 3584 2356 3584 
Q 2950 3584 3301 3228 
Q 3653 2872 3653 2272 
Q 3653 2128 3634 1964 
Q 3616 1800 3578 1613 
z
" transform="scale(0.015625)"/>
     <path id="DejaVuSans-Oblique-66" d="M 3059 4863 
L 2969 4384 
L 2419 4384 
Q 2106 4384 1964 4261 
Q 1822 4138 1753 3809 
L 1691 3500 
L 2638 3500 
L 2553 3053 
L 1606 3053 
L 1013 0 
L 434 0 
L 1031 3053 
L 481 3053 
L 563 3500 
L 1113 3500 
L 1159 3744 
Q 1278 4363 1576 4613 
Q 1875 4863 2516 4863 
L 3059 4863 
z
" transform="scale(0.015625)"/>
     <path id="DejaVuSans-Oblique-30" d="M 2444 4750 
Q 3078 4750 3414 4328 
Q 3750 3906 3750 3116 
Q 3750 2516 3592 1923 
Q 3434 1331 3150 863 
Q 2859 394 2467 151 
Q 2075 -91 1600 -91 
Q 988 -91 653 334 
Q 319 759 319 1544 
Q 319 2138 480 2733 
Q 641 3328 928 3794 
Q 1216 4263 1602 4506 
Q 1988 4750 2444 4750 
z
M 2406 4250 
Q 2169 4250 1955 4123 
Q 1741 3997 1569 3750 
Q 1281 3338 1111 2720 
Q 941 2103 941 1453 
Q 941 938 1123 673 
Q 1306 409 1663 409 
Q 1913 409 2125 536 
Q 2338 663 2509 909 
Q 2794 1319 2961 1936 
Q 3128 2553 3128 3206 
Q 3128 3722 2945 3986 
Q 2763 4250 2406 4250 
z
" transform="scale(0.015625)"/>
     <path id="DejaVuSans-Oblique-61" d="M 3438 1997 
L 3047 0 
L 2472 0 
L 2578 531 
Q 2325 219 2001 64 
Q 1678 -91 1281 -91 
Q 834 -91 548 182 
Q 263 456 263 884 
Q 263 1497 752 1853 
Q 1241 2209 2100 2209 
L 2900 2209 
L 2931 2363 
Q 2938 2388 2941 2417 
Q 2944 2447 2944 2509 
Q 2944 2788 2717 2942 
Q 2491 3097 2081 3097 
Q 1800 3097 1504 3025 
Q 1209 2953 897 2809 
L 997 3341 
Q 1322 3463 1633 3523 
Q 1944 3584 2234 3584 
Q 2853 3584 3176 3315 
Q 3500 3047 3500 2534 
Q 3500 2431 3484 2292 
Q 3469 2153 3438 1997 
z
M 2816 1759 
L 2241 1759 
Q 1534 1759 1195 1570 
Q 856 1381 856 984 
Q 856 709 1029 553 
Q 1203 397 1509 397 
Q 1978 397 2328 733 
Q 2678 1069 2791 1631 
L 2816 1759 
z
" transform="scale(0.015625)"/>
     <path id="DejaVuSans-Oblique-64" d="M 2675 525 
Q 2444 222 2128 65 
Q 1813 -91 1428 -91 
Q 903 -91 598 267 
Q 294 625 294 1247 
Q 294 1766 478 2236 
Q 663 2706 1013 3078 
Q 1244 3325 1534 3454 
Q 1825 3584 2144 3584 
Q 2481 3584 2739 3421 
Q 2997 3259 3138 2956 
L 3513 4863 
L 4091 4863 
L 3144 0 
L 2566 0 
L 2675 525 
z
M 891 1350 
Q 891 897 1095 644 
Q 1300 391 1663 391 
Q 1931 391 2161 520 
Q 2391 650 2566 903 
Q 2750 1166 2856 1509 
Q 2963 1853 2963 2188 
Q 2963 2622 2758 2865 
Q 2553 3109 2194 3109 
Q 1922 3109 1687 2981 
Q 1453 2853 1288 2613 
Q 1106 2353 998 2009 
Q 891 1666 891 1350 
z
" transform="scale(0.015625)"/>
     <path id="DejaVuSans-Oblique-32" d="M 2950 2253 
L 934 525 
L 3163 525 
L 3053 0 
L 25 0 
L 128 531 
L 2234 2338 
Q 2656 2703 2832 2979 
Q 3009 3256 3009 3547 
Q 3009 3850 2796 4040 
Q 2584 4231 2241 4231 
Q 1944 4231 1581 4125 
Q 1219 4019 806 3816 
L 922 4441 
Q 1309 4594 1662 4672 
Q 2016 4750 2316 4750 
Q 2928 4750 3301 4425 
Q 3675 4100 3675 3572 
Q 3675 3216 3497 2892 
Q 3319 2569 2950 2253 
z
" transform="scale(0.015625)"/>
     <path id="DejaVuSans-Oblique-2e" d="M 525 794 
L 1184 794 
L 1031 0 
L 372 0 
L 525 794 
z
" transform="scale(0.015625)"/>
     <path id="DejaVuSans-Oblique-4e" d="M 1081 4666 
L 1931 4666 
L 3219 666 
L 4000 4666 
L 4616 4666 
L 3706 0 
L 2853 0 
L 1569 4025 
L 788 0 
L 172 0 
L 1081 4666 
z
" transform="scale(0.015625)"/>
     <path id="DejaVuSans-Oblique-3d" d="M 678 2906 
L 4684 2906 
L 4684 2381 
L 678 2381 
L 678 2906 
z
M 678 1631 
L 4684 1631 
L 4684 1100 
L 678 1100 
L 678 1631 
z
" transform="scale(0.015625)"/>
     <path id="DejaVuSans-Oblique-35" d="M 3719 4666 
L 3622 4141 
L 1691 4141 
L 1466 2988 
Q 1609 3034 1757 3056 
Q 1906 3078 2059 3078 
Q 2706 3078 3081 2731 
Q 3456 2384 3456 1791 
Q 3456 1375 3264 994 
Q 3072 613 2719 325 
Q 2469 125 2108 17 
Q 1747 -91 1319 -91 
Q 1038 -91 744 -41 
Q 450 9 128 109 
L 244 697 
Q 531 556 820 486 
Q 1109 416 1403 416 
Q 2013 416 2411 781 
Q 2809 1147 2809 1697 
Q 2809 2103 2548 2328 
Q 2288 2553 1819 2553 
Q 1572 2553 1305 2495 
Q 1038 2438 756 2322 
L 1209 4666 
L 3719 4666 
z
" transform="scale(0.015625)"/>
     <path id="DejaVuSans-Oblique-4a" d="M 1069 4666 
L 1703 4666 
L 856 325 
Q 691 -522 298 -901 
Q -94 -1281 -800 -1281 
L -1050 -1281 
L -947 -750 
L -750 -750 
Q -328 -750 -109 -509 
Q 109 -269 225 325 
L 1069 4666 
z
" transform="scale(0.015625)"/>
     <path id="DejaVuSans-Oblique-6b" d="M 1172 4863 
L 1747 4863 
L 1197 2028 
L 3169 3500 
L 3916 3500 
L 1716 1825 
L 3322 0 
L 2625 0 
L 1131 1709 
L 800 0 
L 225 0 
L 1172 4863 
z
" transform="scale(0.015625)"/>
     <path id="DejaVuSans-Oblique-62" d="M 3169 2138 
Q 3169 2591 2961 2847 
Q 2753 3103 2388 3103 
Q 2122 3103 1889 2973 
Q 1656 2844 1484 2597 
Q 1303 2338 1198 1995 
Q 1094 1653 1094 1313 
Q 1094 881 1298 636 
Q 1503 391 1863 391 
Q 2134 391 2365 517 
Q 2597 644 2772 891 
Q 2950 1147 3059 1487 
Q 3169 1828 3169 2138 
z
M 1381 2969 
Q 1594 3256 1914 3420 
Q 2234 3584 2584 3584 
Q 3122 3584 3439 3221 
Q 3756 2859 3756 2241 
Q 3756 1734 3570 1259 
Q 3384 784 3041 416 
Q 2816 172 2522 40 
Q 2228 -91 1906 -91 
Q 1566 -91 1316 65 
Q 1066 222 909 531 
L 806 0 
L 231 0 
L 1178 4863 
L 1753 4863 
L 1381 2969 
z
" transform="scale(0.015625)"/>
    </defs>
    <use xlink:href="#DejaVuSans-Oblique-54"/>
    <use xlink:href="#DejaVuSans-Oblique-77" x="52.958984"/>
    <use xlink:href="#DejaVuSans-Oblique-69" x="134.746094"/>
    <use xlink:href="#DejaVuSans-Oblique-73" x="162.529297"/>
    <use xlink:href="#DejaVuSans-Oblique-74" x="214.628906"/>
    <use xlink:href="#DejaVuSans-Oblique-20" x="253.837891"/>
    <use xlink:href="#DejaVuSans-Oblique-63" x="285.625"/>
    <use xlink:href="#DejaVuSans-Oblique-6f" x="340.605469"/>
    <use xlink:href="#DejaVuSans-Oblique-65" x="401.787109"/>
    <use xlink:href="#DejaVuSans-Oblique-66" x="463.310547"/>
    <use xlink:href="#DejaVuSans-Oblique-66" x="498.515625"/>
    <use xlink:href="#DejaVuSans-Oblique-69" x="533.720703"/>
    <use xlink:href="#DejaVuSans-Oblique-63" x="561.503906"/>
    <use xlink:href="#DejaVuSans-Oblique-69" x="616.484375"/>
    <use xlink:href="#DejaVuSans-Oblique-65" x="644.267578"/>
    <use xlink:href="#DejaVuSans-Oblique-6e" x="705.791016"/>
    <use xlink:href="#DejaVuSans-Oblique-74" x="769.169922"/>
    <use xlink:href="#DejaVuSans-Oblique-73" x="808.378906"/>
    <use xlink:href="#DejaVuSans-Oblique-20" x="860.478516"/>
    <use xlink:href="#DejaVuSans-Oblique-30" x="892.265625"/>
    <use xlink:href="#DejaVuSans-Oblique-20" x="955.888672"/>
    <use xlink:href="#DejaVuSans-Oblique-61" x="987.675781"/>
    <use xlink:href="#DejaVuSans-Oblique-6e" x="1048.955078"/>
    <use xlink:href="#DejaVuSans-Oblique-64" x="1112.333984"/>
    <use xlink:href="#DejaVuSans-Oblique-20" x="1175.810547"/>
    <use xlink:href="#DejaVuSans-Oblique-32" x="1207.597656"/>
    <use xlink:href="#DejaVuSans-Oblique-2e" x="1271.220703"/>
    <use xlink:href="#DejaVuSans-Oblique-20" x="1303.007812"/>
    <use xlink:href="#DejaVuSans-Oblique-4e" x="1334.794922"/>
    <use xlink:href="#DejaVuSans-Oblique-3d" x="1409.599609"/>
    <use xlink:href="#DejaVuSans-Oblique-35" x="1493.388672"/>
    <use xlink:href="#DejaVuSans-Oblique-20" x="1557.011719"/>
    <use xlink:href="#DejaVuSans-Oblique-4a" x="1588.798828"/>
    <use xlink:href="#DejaVuSans-Oblique-61" x="1618.291016"/>
    <use xlink:href="#DejaVuSans-Oblique-63" x="1679.570312"/>
    <use xlink:href="#DejaVuSans-Oblique-6b" x="1734.550781"/>
    <use xlink:href="#DejaVuSans-Oblique-6b" x="1792.460938"/>
    <use xlink:href="#DejaVuSans-Oblique-6e" x="1850.371094"/>
    <use xlink:href="#DejaVuSans-Oblique-69" x="1913.75"/>
    <use xlink:href="#DejaVuSans-Oblique-66" x="1941.533203"/>
    <use xlink:href="#DejaVuSans-Oblique-65" x="1976.738281"/>
    <use xlink:href="#DejaVuSans-Oblique-20" x="2038.261719"/>
    <use xlink:href="#DejaVuSans-Oblique-62" x="2070.048828"/>
    <use xlink:href="#DejaVuSans-Oblique-69" x="2133.525391"/>
    <use xlink:href="#DejaVuSans-Oblique-6e" x="2161.308594"/>
    <use xlink:href="#DejaVuSans-Oblique-73" x="2224.6875"/>
   </g>
  </g>
 </g>
 <defs>
  <clipPath id="p89ac73c95f">
   <rect x="62.86875" y="22.44" width="352.132" height="286.84"/>
  </clipPath>
 </defs>
</svg>
