<?xml version="1.0" encoding="utf-8" standalone="no"?>
<!DOCTYPE svg PUBLIC "-//W3C//DTD SVG 1.1//EN"
  "http://www.w3.org/Graphics/SVG/1.1/DTD/svg11.dtd">
<svg xmlns:xlink="http://www.w3.org/1999/xlink" width="423.813437pt" height="348.397813pt" viewBox="0 0 423.813437 348.397813" xmlns="http://www.w3.org/2000/svg" version="1.1">
 <metadata>
  <rdf:RDF xmlns:dc="http://purl.org/dc/elements/1.1/" xmlns:cc="http://creativecommons.org/ns#" xmlns:rdf="http://www.w3.org/1999/02/22-rdf-syntax-ns#">
   <cc:Work>
    <dc:type rdf:resource="http://purl.org/dc/dcmitype/StillImage"/>
    <dc:date>2024-03-06T12:25:17.996267</dc:date>
    <dc:format>image/svg+xml</dc:format>
    <dc:creator>
     <cc:Agent>
      <dc:title>Matplotlib v3.8.0, https://matplotlib.org/</dc:title>
     </cc:Agent>
    </dc:creator>
   </cc:Work>
  </rdf:RDF>
 </metadata>
 <defs>
  <style type="text/css">*{stroke-linejoin: round; stroke-linecap: butt}</style>
 </defs>
 <g id="figure_1">
  <g id="patch_1">
   <path d="M 0 348.397813 
L 423.813437 348.397813 
L 423.813437 0 
L 0 0 
z
" style="fill: #ffffff"/>
  </g>
  <g id="axes_1">
   <g id="patch_2">
    <path d="M 61.628125 299.518125 
L 396.428125 299.518125 
L 396.428125 22.318125 
L 61.628125 22.318125 
z
" style="fill: #ffffff"/>
   </g>
   <g id="matplotlib.axis_1">
    <g id="xtick_1">
     <g id="line2d_1">
      <defs>
       <path id="mc6882c62e4" d="M 0 0 
L 0 3.5 
" style="stroke: #000000; stroke-width: 0.8"/>
      </defs>
      <g>
       <use xlink:href="#mc6882c62e4" x="107.28267" y="299.518125" style="stroke: #000000; stroke-width: 0.8"/>
      </g>
     </g>
     <g id="text_1">
      <!-- 10.76 -->
      <g transform="translate(92.968608 314.116563) scale(0.1 -0.1)">
       <defs>
        <path id="DejaVuSans-31" d="M 794 531 
L 1825 531 
L 1825 4091 
L 703 3866 
L 703 4441 
L 1819 4666 
L 2450 4666 
L 2450 531 
L 3481 531 
L 3481 0 
L 794 0 
L 794 531 
z
" transform="scale(0.015625)"/>
        <path id="DejaVuSans-30" d="M 2034 4250 
Q 1547 4250 1301 3770 
Q 1056 3291 1056 2328 
Q 1056 1369 1301 889 
Q 1547 409 2034 409 
Q 2525 409 2770 889 
Q 3016 1369 3016 2328 
Q 3016 3291 2770 3770 
Q 2525 4250 2034 4250 
z
M 2034 4750 
Q 2819 4750 3233 4129 
Q 3647 3509 3647 2328 
Q 3647 1150 3233 529 
Q 2819 -91 2034 -91 
Q 1250 -91 836 529 
Q 422 1150 422 2328 
Q 422 3509 836 4129 
Q 1250 4750 2034 4750 
z
" transform="scale(0.015625)"/>
        <path id="DejaVuSans-2e" d="M 684 794 
L 1344 794 
L 1344 0 
L 684 0 
L 684 794 
z
" transform="scale(0.015625)"/>
        <path id="DejaVuSans-37" d="M 525 4666 
L 3525 4666 
L 3525 4397 
L 1831 0 
L 1172 0 
L 2766 4134 
L 525 4134 
L 525 4666 
z
" transform="scale(0.015625)"/>
        <path id="DejaVuSans-36" d="M 2113 2584 
Q 1688 2584 1439 2293 
Q 1191 2003 1191 1497 
Q 1191 994 1439 701 
Q 1688 409 2113 409 
Q 2538 409 2786 701 
Q 3034 994 3034 1497 
Q 3034 2003 2786 2293 
Q 2538 2584 2113 2584 
z
M 3366 4563 
L 3366 3988 
Q 3128 4100 2886 4159 
Q 2644 4219 2406 4219 
Q 1781 4219 1451 3797 
Q 1122 3375 1075 2522 
Q 1259 2794 1537 2939 
Q 1816 3084 2150 3084 
Q 2853 3084 3261 2657 
Q 3669 2231 3669 1497 
Q 3669 778 3244 343 
Q 2819 -91 2113 -91 
Q 1303 -91 875 529 
Q 447 1150 447 2328 
Q 447 3434 972 4092 
Q 1497 4750 2381 4750 
Q 2619 4750 2861 4703 
Q 3103 4656 3366 4563 
z
" transform="scale(0.015625)"/>
       </defs>
       <use xlink:href="#DejaVuSans-31"/>
       <use xlink:href="#DejaVuSans-30" x="63.623047"/>
       <use xlink:href="#DejaVuSans-2e" x="127.246094"/>
       <use xlink:href="#DejaVuSans-37" x="159.033203"/>
       <use xlink:href="#DejaVuSans-36" x="222.65625"/>
      </g>
     </g>
    </g>
    <g id="xtick_2">
     <g id="line2d_2">
      <g>
       <use xlink:href="#mc6882c62e4" x="168.155398" y="299.518125" style="stroke: #000000; stroke-width: 0.8"/>
      </g>
     </g>
     <g id="text_2">
      <!-- 10.78 -->
      <g transform="translate(153.841335 314.116563) scale(0.1 -0.1)">
       <defs>
        <path id="DejaVuSans-38" d="M 2034 2216 
Q 1584 2216 1326 1975 
Q 1069 1734 1069 1313 
Q 1069 891 1326 650 
Q 1584 409 2034 409 
Q 2484 409 2743 651 
Q 3003 894 3003 1313 
Q 3003 1734 2745 1975 
Q 2488 2216 2034 2216 
z
M 1403 2484 
Q 997 2584 770 2862 
Q 544 3141 544 3541 
Q 544 4100 942 4425 
Q 1341 4750 2034 4750 
Q 2731 4750 3128 4425 
Q 3525 4100 3525 3541 
Q 3525 3141 3298 2862 
Q 3072 2584 2669 2484 
Q 3125 2378 3379 2068 
Q 3634 1759 3634 1313 
Q 3634 634 3220 271 
Q 2806 -91 2034 -91 
Q 1263 -91 848 271 
Q 434 634 434 1313 
Q 434 1759 690 2068 
Q 947 2378 1403 2484 
z
M 1172 3481 
Q 1172 3119 1398 2916 
Q 1625 2713 2034 2713 
Q 2441 2713 2670 2916 
Q 2900 3119 2900 3481 
Q 2900 3844 2670 4047 
Q 2441 4250 2034 4250 
Q 1625 4250 1398 4047 
Q 1172 3844 1172 3481 
z
" transform="scale(0.015625)"/>
       </defs>
       <use xlink:href="#DejaVuSans-31"/>
       <use xlink:href="#DejaVuSans-30" x="63.623047"/>
       <use xlink:href="#DejaVuSans-2e" x="127.246094"/>
       <use xlink:href="#DejaVuSans-37" x="159.033203"/>
       <use xlink:href="#DejaVuSans-38" x="222.65625"/>
      </g>
     </g>
    </g>
    <g id="xtick_3">
     <g id="line2d_3">
      <g>
       <use xlink:href="#mc6882c62e4" x="229.028125" y="299.518125" style="stroke: #000000; stroke-width: 0.8"/>
      </g>
     </g>
     <g id="text_3">
      <!-- 10.80 -->
      <g transform="translate(214.714063 314.116563) scale(0.1 -0.1)">
       <use xlink:href="#DejaVuSans-31"/>
       <use xlink:href="#DejaVuSans-30" x="63.623047"/>
       <use xlink:href="#DejaVuSans-2e" x="127.246094"/>
       <use xlink:href="#DejaVuSans-38" x="159.033203"/>
       <use xlink:href="#DejaVuSans-30" x="222.65625"/>
      </g>
     </g>
    </g>
    <g id="xtick_4">
     <g id="line2d_4">
      <g>
       <use xlink:href="#mc6882c62e4" x="289.900852" y="299.518125" style="stroke: #000000; stroke-width: 0.8"/>
      </g>
     </g>
     <g id="text_4">
      <!-- 10.82 -->
      <g transform="translate(275.58679 314.116563) scale(0.1 -0.1)">
       <defs>
        <path id="DejaVuSans-32" d="M 1228 531 
L 3431 531 
L 3431 0 
L 469 0 
L 469 531 
Q 828 903 1448 1529 
Q 2069 2156 2228 2338 
Q 2531 2678 2651 2914 
Q 2772 3150 2772 3378 
Q 2772 3750 2511 3984 
Q 2250 4219 1831 4219 
Q 1534 4219 1204 4116 
Q 875 4013 500 3803 
L 500 4441 
Q 881 4594 1212 4672 
Q 1544 4750 1819 4750 
Q 2544 4750 2975 4387 
Q 3406 4025 3406 3419 
Q 3406 3131 3298 2873 
Q 3191 2616 2906 2266 
Q 2828 2175 2409 1742 
Q 1991 1309 1228 531 
z
" transform="scale(0.015625)"/>
       </defs>
       <use xlink:href="#DejaVuSans-31"/>
       <use xlink:href="#DejaVuSans-30" x="63.623047"/>
       <use xlink:href="#DejaVuSans-2e" x="127.246094"/>
       <use xlink:href="#DejaVuSans-38" x="159.033203"/>
       <use xlink:href="#DejaVuSans-32" x="222.65625"/>
      </g>
     </g>
    </g>
    <g id="xtick_5">
     <g id="line2d_5">
      <g>
       <use xlink:href="#mc6882c62e4" x="350.77358" y="299.518125" style="stroke: #000000; stroke-width: 0.8"/>
      </g>
     </g>
     <g id="text_5">
      <!-- 10.84 -->
      <g transform="translate(336.459517 314.116563) scale(0.1 -0.1)">
       <defs>
        <path id="DejaVuSans-34" d="M 2419 4116 
L 825 1625 
L 2419 1625 
L 2419 4116 
z
M 2253 4666 
L 3047 4666 
L 3047 1625 
L 3713 1625 
L 3713 1100 
L 3047 1100 
L 3047 0 
L 2419 0 
L 2419 1100 
L 313 1100 
L 313 1709 
L 2253 4666 
z
" transform="scale(0.015625)"/>
       </defs>
       <use xlink:href="#DejaVuSans-31"/>
       <use xlink:href="#DejaVuSans-30" x="63.623047"/>
       <use xlink:href="#DejaVuSans-2e" x="127.246094"/>
       <use xlink:href="#DejaVuSans-38" x="159.033203"/>
       <use xlink:href="#DejaVuSans-34" x="222.65625"/>
      </g>
     </g>
    </g>
    <g id="text_6">
     <!-- $\beta$ -->
     <g transform="translate(225.828125 327.89625) scale(0.1 -0.1)">
      <defs>
       <path id="DejaVuSans-Oblique-3b2" d="M 872 216 
L 572 -1331 
L -6 -1331 
L 928 3478 
Q 1206 4903 2538 4903 
Q 3888 4903 3659 3700 
Q 3503 2844 2894 2531 
Q 3713 2250 3553 1416 
Q 3272 -69 1759 -66 
Q 1097 -63 872 216 
z
M 1019 966 
Q 1259 422 1875 425 
Q 2775 425 2966 1406 
Q 3138 2288 1675 2219 
L 1778 2750 
Q 2909 2731 3106 3750 
Q 3241 4438 2509 4434 
Q 1691 4434 1503 3459 
L 1019 966 
z
" transform="scale(0.015625)"/>
      </defs>
      <use xlink:href="#DejaVuSans-Oblique-3b2" transform="translate(0 0.390625)"/>
     </g>
    </g>
   </g>
   <g id="matplotlib.axis_2">
    <g id="ytick_1">
     <g id="line2d_6">
      <defs>
       <path id="m8acb74048c" d="M 0 0 
L -3.5 0 
" style="stroke: #000000; stroke-width: 0.8"/>
      </defs>
      <g>
       <use xlink:href="#m8acb74048c" x="61.628125" y="286.49322" style="stroke: #000000; stroke-width: 0.8"/>
      </g>
     </g>
     <g id="text_7">
      <!-- 0.000 -->
      <g transform="translate(26 290.292439) scale(0.1 -0.1)">
       <use xlink:href="#DejaVuSans-30"/>
       <use xlink:href="#DejaVuSans-2e" x="63.623047"/>
       <use xlink:href="#DejaVuSans-30" x="95.410156"/>
       <use xlink:href="#DejaVuSans-30" x="159.033203"/>
       <use xlink:href="#DejaVuSans-30" x="222.65625"/>
      </g>
     </g>
    </g>
    <g id="ytick_2">
     <g id="line2d_7">
      <g>
       <use xlink:href="#m8acb74048c" x="61.628125" y="243.879612" style="stroke: #000000; stroke-width: 0.8"/>
      </g>
     </g>
     <g id="text_8">
      <!-- 0.005 -->
      <g transform="translate(26 247.67883) scale(0.1 -0.1)">
       <defs>
        <path id="DejaVuSans-35" d="M 691 4666 
L 3169 4666 
L 3169 4134 
L 1269 4134 
L 1269 2991 
Q 1406 3038 1543 3061 
Q 1681 3084 1819 3084 
Q 2600 3084 3056 2656 
Q 3513 2228 3513 1497 
Q 3513 744 3044 326 
Q 2575 -91 1722 -91 
Q 1428 -91 1123 -41 
Q 819 9 494 109 
L 494 744 
Q 775 591 1075 516 
Q 1375 441 1709 441 
Q 2250 441 2565 725 
Q 2881 1009 2881 1497 
Q 2881 1984 2565 2268 
Q 2250 2553 1709 2553 
Q 1456 2553 1204 2497 
Q 953 2441 691 2322 
L 691 4666 
z
" transform="scale(0.015625)"/>
       </defs>
       <use xlink:href="#DejaVuSans-30"/>
       <use xlink:href="#DejaVuSans-2e" x="63.623047"/>
       <use xlink:href="#DejaVuSans-30" x="95.410156"/>
       <use xlink:href="#DejaVuSans-30" x="159.033203"/>
       <use xlink:href="#DejaVuSans-35" x="222.65625"/>
      </g>
     </g>
    </g>
    <g id="ytick_3">
     <g id="line2d_8">
      <g>
       <use xlink:href="#m8acb74048c" x="61.628125" y="201.266003" style="stroke: #000000; stroke-width: 0.8"/>
      </g>
     </g>
     <g id="text_9">
      <!-- 0.010 -->
      <g transform="translate(26 205.065222) scale(0.1 -0.1)">
       <use xlink:href="#DejaVuSans-30"/>
       <use xlink:href="#DejaVuSans-2e" x="63.623047"/>
       <use xlink:href="#DejaVuSans-30" x="95.410156"/>
       <use xlink:href="#DejaVuSans-31" x="159.033203"/>
       <use xlink:href="#DejaVuSans-30" x="222.65625"/>
      </g>
     </g>
    </g>
    <g id="ytick_4">
     <g id="line2d_9">
      <g>
       <use xlink:href="#m8acb74048c" x="61.628125" y="158.652395" style="stroke: #000000; stroke-width: 0.8"/>
      </g>
     </g>
     <g id="text_10">
      <!-- 0.015 -->
      <g transform="translate(26 162.451614) scale(0.1 -0.1)">
       <use xlink:href="#DejaVuSans-30"/>
       <use xlink:href="#DejaVuSans-2e" x="63.623047"/>
       <use xlink:href="#DejaVuSans-30" x="95.410156"/>
       <use xlink:href="#DejaVuSans-31" x="159.033203"/>
       <use xlink:href="#DejaVuSans-35" x="222.65625"/>
      </g>
     </g>
    </g>
    <g id="ytick_5">
     <g id="line2d_10">
      <g>
       <use xlink:href="#m8acb74048c" x="61.628125" y="116.038787" style="stroke: #000000; stroke-width: 0.8"/>
      </g>
     </g>
     <g id="text_11">
      <!-- 0.020 -->
      <g transform="translate(26 119.838006) scale(0.1 -0.1)">
       <use xlink:href="#DejaVuSans-30"/>
       <use xlink:href="#DejaVuSans-2e" x="63.623047"/>
       <use xlink:href="#DejaVuSans-30" x="95.410156"/>
       <use xlink:href="#DejaVuSans-32" x="159.033203"/>
       <use xlink:href="#DejaVuSans-30" x="222.65625"/>
      </g>
     </g>
    </g>
    <g id="ytick_6">
     <g id="line2d_11">
      <g>
       <use xlink:href="#m8acb74048c" x="61.628125" y="73.425179" style="stroke: #000000; stroke-width: 0.8"/>
      </g>
     </g>
     <g id="text_12">
      <!-- 0.025 -->
      <g transform="translate(26 77.224397) scale(0.1 -0.1)">
       <use xlink:href="#DejaVuSans-30"/>
       <use xlink:href="#DejaVuSans-2e" x="63.623047"/>
       <use xlink:href="#DejaVuSans-30" x="95.410156"/>
       <use xlink:href="#DejaVuSans-32" x="159.033203"/>
       <use xlink:href="#DejaVuSans-35" x="222.65625"/>
      </g>
     </g>
    </g>
    <g id="ytick_7">
     <g id="line2d_12">
      <g>
       <use xlink:href="#m8acb74048c" x="61.628125" y="30.81157" style="stroke: #000000; stroke-width: 0.8"/>
      </g>
     </g>
     <g id="text_13">
      <!-- 0.030 -->
      <g transform="translate(26 34.610789) scale(0.1 -0.1)">
       <defs>
        <path id="DejaVuSans-33" d="M 2597 2516 
Q 3050 2419 3304 2112 
Q 3559 1806 3559 1356 
Q 3559 666 3084 287 
Q 2609 -91 1734 -91 
Q 1441 -91 1130 -33 
Q 819 25 488 141 
L 488 750 
Q 750 597 1062 519 
Q 1375 441 1716 441 
Q 2309 441 2620 675 
Q 2931 909 2931 1356 
Q 2931 1769 2642 2001 
Q 2353 2234 1838 2234 
L 1294 2234 
L 1294 2753 
L 1863 2753 
Q 2328 2753 2575 2939 
Q 2822 3125 2822 3475 
Q 2822 3834 2567 4026 
Q 2313 4219 1838 4219 
Q 1578 4219 1281 4162 
Q 984 4106 628 3988 
L 628 4550 
Q 988 4650 1302 4700 
Q 1616 4750 1894 4750 
Q 2613 4750 3031 4423 
Q 3450 4097 3450 3541 
Q 3450 3153 3228 2886 
Q 3006 2619 2597 2516 
z
" transform="scale(0.015625)"/>
       </defs>
       <use xlink:href="#DejaVuSans-30"/>
       <use xlink:href="#DejaVuSans-2e" x="63.623047"/>
       <use xlink:href="#DejaVuSans-30" x="95.410156"/>
       <use xlink:href="#DejaVuSans-33" x="159.033203"/>
       <use xlink:href="#DejaVuSans-30" x="222.65625"/>
      </g>
     </g>
    </g>
    <g id="text_14">
     <!-- $\frac{V}{X*Y}\int d\beta \langle S_{t} - S_{nt} \rangle $ -->
     <g transform="translate(18 200.868125) rotate(-90) scale(0.1 -0.1)">
      <defs>
       <path id="DejaVuSans-Oblique-56" d="M 1319 0 
L 500 4666 
L 1119 4666 
L 1797 653 
L 4063 4666 
L 4750 4666 
L 2053 0 
L 1319 0 
z
" transform="scale(0.015625)"/>
       <path id="DejaVuSans-Oblique-58" d="M 878 4666 
L 1516 4666 
L 2316 2981 
L 3763 4666 
L 4500 4666 
L 2578 2438 
L 3738 0 
L 3103 0 
L 2163 1966 
L 459 0 
L -275 0 
L 1906 2509 
L 878 4666 
z
" transform="scale(0.015625)"/>
       <path id="DejaVuSans-2a" d="M 3009 3897 
L 1888 3291 
L 3009 2681 
L 2828 2375 
L 1778 3009 
L 1778 1831 
L 1422 1831 
L 1422 3009 
L 372 2375 
L 191 2681 
L 1313 3291 
L 191 3897 
L 372 4206 
L 1422 3572 
L 1422 4750 
L 1778 4750 
L 1778 3572 
L 2828 4206 
L 3009 3897 
z
" transform="scale(0.015625)"/>
       <path id="DejaVuSans-Oblique-59" d="M 403 4666 
L 1081 4666 
L 1953 2747 
L 3616 4666 
L 4325 4666 
L 2209 2222 
L 1778 0 
L 1147 0 
L 1575 2222 
L 403 4666 
z
" transform="scale(0.015625)"/>
       <path id="DejaVuSansDisplay-222b" d="M 2134 5525 
Q 2172 6263 2528 6556 
Q 2884 6850 3218 6850 
Q 3553 6850 3833 6575 
Q 4113 6300 4200 5678 
L 3544 5613 
Q 3469 6188 3219 6188 
Q 2906 6188 2869 5413 
L 2581 -597 
Q 2547 -1334 2187 -1628 
Q 1828 -1922 1497 -1922 
Q 1163 -1922 883 -1647 
Q 603 -1372 516 -750 
L 1172 -684 
Q 1247 -1259 1497 -1259 
Q 1809 -1259 1847 -488 
L 2134 5525 
z
" transform="scale(0.015625)"/>
       <path id="DejaVuSans-Oblique-64" d="M 2675 525 
Q 2444 222 2128 65 
Q 1813 -91 1428 -91 
Q 903 -91 598 267 
Q 294 625 294 1247 
Q 294 1766 478 2236 
Q 663 2706 1013 3078 
Q 1244 3325 1534 3454 
Q 1825 3584 2144 3584 
Q 2481 3584 2739 3421 
Q 2997 3259 3138 2956 
L 3513 4863 
L 4091 4863 
L 3144 0 
L 2566 0 
L 2675 525 
z
M 891 1350 
Q 891 897 1095 644 
Q 1300 391 1663 391 
Q 1931 391 2161 520 
Q 2391 650 2566 903 
Q 2750 1166 2856 1509 
Q 2963 1853 2963 2188 
Q 2963 2622 2758 2865 
Q 2553 3109 2194 3109 
Q 1922 3109 1687 2981 
Q 1453 2853 1288 2613 
Q 1106 2353 998 2009 
Q 891 1666 891 1350 
z
" transform="scale(0.015625)"/>
       <path id="DejaVuSans-27e8" d="M 572 2006 
L 1453 4856 
L 1984 4856 
L 1103 2006 
L 1984 -844 
L 1453 -844 
L 572 2006 
z
" transform="scale(0.015625)"/>
       <path id="DejaVuSans-Oblique-53" d="M 3859 4513 
L 3738 3897 
Q 3422 4066 3111 4152 
Q 2800 4238 2509 4238 
Q 1944 4238 1609 3991 
Q 1275 3744 1275 3334 
Q 1275 3109 1398 2989 
Q 1522 2869 2034 2731 
L 2413 2638 
Q 3053 2472 3303 2217 
Q 3553 1963 3553 1503 
Q 3553 797 2998 353 
Q 2444 -91 1538 -91 
Q 1166 -91 791 -17 
Q 416 56 38 206 
L 166 856 
Q 513 641 861 531 
Q 1209 422 1556 422 
Q 2147 422 2503 684 
Q 2859 947 2859 1369 
Q 2859 1650 2717 1795 
Q 2575 1941 2106 2059 
L 1728 2156 
Q 1081 2325 845 2545 
Q 609 2766 609 3163 
Q 609 3859 1145 4304 
Q 1681 4750 2541 4750 
Q 2875 4750 3203 4690 
Q 3531 4631 3859 4513 
z
" transform="scale(0.015625)"/>
       <path id="DejaVuSans-Oblique-74" d="M 2706 3500 
L 2619 3053 
L 1472 3053 
L 1100 1153 
Q 1081 1047 1072 975 
Q 1063 903 1063 863 
Q 1063 663 1183 572 
Q 1303 481 1569 481 
L 2150 481 
L 2053 0 
L 1503 0 
Q 991 0 739 200 
Q 488 400 488 806 
Q 488 878 497 964 
Q 506 1050 525 1153 
L 897 3053 
L 409 3053 
L 500 3500 
L 978 3500 
L 1172 4494 
L 1747 4494 
L 1556 3500 
L 2706 3500 
z
" transform="scale(0.015625)"/>
       <path id="DejaVuSans-2212" d="M 678 2272 
L 4684 2272 
L 4684 1741 
L 678 1741 
L 678 2272 
z
" transform="scale(0.015625)"/>
       <path id="DejaVuSans-Oblique-6e" d="M 3566 2113 
L 3156 0 
L 2578 0 
L 2988 2091 
Q 3016 2238 3031 2350 
Q 3047 2463 3047 2528 
Q 3047 2791 2881 2937 
Q 2716 3084 2419 3084 
Q 1956 3084 1622 2776 
Q 1288 2469 1184 1941 
L 800 0 
L 225 0 
L 903 3500 
L 1478 3500 
L 1363 2950 
Q 1603 3253 1940 3418 
Q 2278 3584 2650 3584 
Q 3113 3584 3367 3334 
Q 3622 3084 3622 2631 
Q 3622 2519 3608 2391 
Q 3594 2263 3566 2113 
z
" transform="scale(0.015625)"/>
       <path id="DejaVuSans-27e9" d="M 1925 2006 
L 1044 -844 
L 513 -844 
L 1394 2006 
L 513 4856 
L 1044 4856 
L 1925 2006 
z
" transform="scale(0.015625)"/>
      </defs>
      <use xlink:href="#DejaVuSans-Oblique-56" transform="translate(53 44.765625) scale(0.7)"/>
      <use xlink:href="#DejaVuSans-Oblique-58" transform="translate(0 -38.4375) scale(0.7)"/>
      <use xlink:href="#DejaVuSans-2a" transform="translate(61.591797 -38.4375) scale(0.7)"/>
      <use xlink:href="#DejaVuSans-Oblique-59" transform="translate(110.229492 -38.4375) scale(0.7)"/>
      <use xlink:href="#DejaVuSansDisplay-222b" transform="translate(165.488281 0.96875)"/>
      <use xlink:href="#DejaVuSans-Oblique-64" transform="translate(239.121094 0.96875)"/>
      <use xlink:href="#DejaVuSans-Oblique-3b2" transform="translate(302.597656 0.96875)"/>
      <use xlink:href="#DejaVuSans-27e8" transform="translate(366.416016 0.96875)"/>
      <use xlink:href="#DejaVuSans-Oblique-53" transform="translate(405.429688 0.96875)"/>
      <use xlink:href="#DejaVuSans-Oblique-74" transform="translate(468.90625 -15.4375) scale(0.7)"/>
      <use xlink:href="#DejaVuSans-2212" transform="translate(518.569336 0.96875)"/>
      <use xlink:href="#DejaVuSans-Oblique-53" transform="translate(621.84082 0.96875)"/>
      <use xlink:href="#DejaVuSans-Oblique-6e" transform="translate(685.317383 -15.4375) scale(0.7)"/>
      <use xlink:href="#DejaVuSans-Oblique-74" transform="translate(729.682617 -15.4375) scale(0.7)"/>
      <use xlink:href="#DejaVuSans-27e9" transform="translate(759.863281 0.96875)"/>
      <path d="M 0 19.765625 
L 0 26.015625 
L 152.988281 26.015625 
L 152.988281 19.765625 
L 0 19.765625 
z
"/>
     </g>
    </g>
   </g>
   <g id="LineCollection_1">
    <path d="M 76.846307 286.49322 
L 76.846307 286.49322 
" clip-path="url(#paffc44b9d5)" style="fill: none; stroke: #ff0000; stroke-width: 1.5"/>
    <path d="M 79.889943 286.543949 
L 79.889943 286.459884 
" clip-path="url(#paffc44b9d5)" style="fill: none; stroke: #ff0000; stroke-width: 1.5"/>
    <path d="M 82.93358 286.56243 
L 82.93358 286.442645 
" clip-path="url(#paffc44b9d5)" style="fill: none; stroke: #ff0000; stroke-width: 1.5"/>
    <path d="M 85.977216 286.556132 
L 85.977216 286.4367 
" clip-path="url(#paffc44b9d5)" style="fill: none; stroke: #ff0000; stroke-width: 1.5"/>
    <path d="M 89.020852 286.539854 
L 89.020852 286.431121 
" clip-path="url(#paffc44b9d5)" style="fill: none; stroke: #ff0000; stroke-width: 1.5"/>
    <path d="M 92.064489 286.539211 
L 92.064489 286.404863 
" clip-path="url(#paffc44b9d5)" style="fill: none; stroke: #ff0000; stroke-width: 1.5"/>
    <path d="M 95.108125 286.563428 
L 95.108125 286.353442 
" clip-path="url(#paffc44b9d5)" style="fill: none; stroke: #ff0000; stroke-width: 1.5"/>
    <path d="M 98.151761 286.602013 
L 98.151761 286.291696 
" clip-path="url(#paffc44b9d5)" style="fill: none; stroke: #ff0000; stroke-width: 1.5"/>
    <path d="M 101.195398 286.646924 
L 101.195398 286.231074 
" clip-path="url(#paffc44b9d5)" style="fill: none; stroke: #ff0000; stroke-width: 1.5"/>
    <path d="M 104.239034 286.692751 
L 104.239034 286.179069 
" clip-path="url(#paffc44b9d5)" style="fill: none; stroke: #ff0000; stroke-width: 1.5"/>
    <path d="M 107.28267 286.735266 
L 107.28267 286.140476 
" clip-path="url(#paffc44b9d5)" style="fill: none; stroke: #ff0000; stroke-width: 1.5"/>
    <path d="M 110.326307 286.771482 
L 110.326307 286.117425 
" clip-path="url(#paffc44b9d5)" style="fill: none; stroke: #ff0000; stroke-width: 1.5"/>
    <path d="M 113.369943 286.800018 
L 113.369943 286.109299 
" clip-path="url(#paffc44b9d5)" style="fill: none; stroke: #ff0000; stroke-width: 1.5"/>
    <path d="M 116.41358 286.821239 
L 116.41358 286.113023 
" clip-path="url(#paffc44b9d5)" style="fill: none; stroke: #ff0000; stroke-width: 1.5"/>
    <path d="M 119.457216 286.836944 
L 119.457216 286.123831 
" clip-path="url(#paffc44b9d5)" style="fill: none; stroke: #ff0000; stroke-width: 1.5"/>
    <path d="M 122.500852 286.849611 
L 122.500852 286.136427 
" clip-path="url(#paffc44b9d5)" style="fill: none; stroke: #ff0000; stroke-width: 1.5"/>
    <path d="M 125.544489 286.861436 
L 125.544489 286.146243 
" clip-path="url(#paffc44b9d5)" style="fill: none; stroke: #ff0000; stroke-width: 1.5"/>
    <path d="M 128.588125 286.873594 
L 128.588125 286.150329 
" clip-path="url(#paffc44b9d5)" style="fill: none; stroke: #ff0000; stroke-width: 1.5"/>
    <path d="M 131.631761 286.88606 
L 131.631761 286.147565 
" clip-path="url(#paffc44b9d5)" style="fill: none; stroke: #ff0000; stroke-width: 1.5"/>
    <path d="M 134.675398 286.897965 
L 134.675398 286.138232 
" clip-path="url(#paffc44b9d5)" style="fill: none; stroke: #ff0000; stroke-width: 1.5"/>
    <path d="M 137.719034 286.908094 
L 137.719034 286.12337 
" clip-path="url(#paffc44b9d5)" style="fill: none; stroke: #ff0000; stroke-width: 1.5"/>
    <path d="M 140.76267 286.91521 
L 140.76267 286.104292 
" clip-path="url(#paffc44b9d5)" style="fill: none; stroke: #ff0000; stroke-width: 1.5"/>
    <path d="M 143.806307 286.918125 
L 143.806307 286.0823 
" clip-path="url(#paffc44b9d5)" style="fill: none; stroke: #ff0000; stroke-width: 1.5"/>
    <path d="M 146.849943 286.915658 
L 146.849943 286.058493 
" clip-path="url(#paffc44b9d5)" style="fill: none; stroke: #ff0000; stroke-width: 1.5"/>
    <path d="M 149.89358 286.906595 
L 149.89358 286.033511 
" clip-path="url(#paffc44b9d5)" style="fill: none; stroke: #ff0000; stroke-width: 1.5"/>
    <path d="M 152.937216 286.88969 
L 152.937216 286.007197 
" clip-path="url(#paffc44b9d5)" style="fill: none; stroke: #ff0000; stroke-width: 1.5"/>
    <path d="M 155.980852 286.863658 
L 155.980852 285.978209 
" clip-path="url(#paffc44b9d5)" style="fill: none; stroke: #ff0000; stroke-width: 1.5"/>
    <path d="M 159.024489 286.827107 
L 159.024489 285.943622 
" clip-path="url(#paffc44b9d5)" style="fill: none; stroke: #ff0000; stroke-width: 1.5"/>
    <path d="M 162.068125 286.778347 
L 162.068125 285.898468 
" clip-path="url(#paffc44b9d5)" style="fill: none; stroke: #ff0000; stroke-width: 1.5"/>
    <path d="M 165.111761 286.714983 
L 165.111761 285.835089 
" clip-path="url(#paffc44b9d5)" style="fill: none; stroke: #ff0000; stroke-width: 1.5"/>
    <path d="M 168.155398 286.633076 
L 168.155398 285.742095 
" clip-path="url(#paffc44b9d5)" style="fill: none; stroke: #ff0000; stroke-width: 1.5"/>
    <path d="M 171.199034 286.525481 
L 171.199034 285.602641 
" clip-path="url(#paffc44b9d5)" style="fill: none; stroke: #ff0000; stroke-width: 1.5"/>
    <path d="M 174.24267 286.378845 
L 174.24267 285.391493 
" clip-path="url(#paffc44b9d5)" style="fill: none; stroke: #ff0000; stroke-width: 1.5"/>
    <path d="M 177.286307 286.168783 
L 177.286307 285.070013 
" clip-path="url(#paffc44b9d5)" style="fill: none; stroke: #ff0000; stroke-width: 1.5"/>
    <path d="M 180.329943 285.852951 
L 180.329943 284.577993 
" clip-path="url(#paffc44b9d5)" style="fill: none; stroke: #ff0000; stroke-width: 1.5"/>
    <path d="M 183.37358 285.361947 
L 183.37358 283.822496 
" clip-path="url(#paffc44b9d5)" style="fill: none; stroke: #ff0000; stroke-width: 1.5"/>
    <path d="M 186.417216 284.588805 
L 186.417216 282.667645 
" clip-path="url(#paffc44b9d5)" style="fill: none; stroke: #ff0000; stroke-width: 1.5"/>
    <path d="M 189.460852 283.380997 
L 189.460852 280.935855 
" clip-path="url(#paffc44b9d5)" style="fill: none; stroke: #ff0000; stroke-width: 1.5"/>
    <path d="M 192.504489 281.545681 
L 192.504489 278.435218 
" clip-path="url(#paffc44b9d5)" style="fill: none; stroke: #ff0000; stroke-width: 1.5"/>
    <path d="M 195.548125 278.883651 
L 195.548125 275.017592 
" clip-path="url(#paffc44b9d5)" style="fill: none; stroke: #ff0000; stroke-width: 1.5"/>
    <path d="M 198.591761 275.25436 
L 198.591761 270.641751 
" clip-path="url(#paffc44b9d5)" style="fill: none; stroke: #ff0000; stroke-width: 1.5"/>
    <path d="M 201.635398 270.639642 
L 201.635398 265.394646 
" clip-path="url(#paffc44b9d5)" style="fill: none; stroke: #ff0000; stroke-width: 1.5"/>
    <path d="M 204.679034 265.156343 
L 204.679034 259.452016 
" clip-path="url(#paffc44b9d5)" style="fill: none; stroke: #ff0000; stroke-width: 1.5"/>
    <path d="M 207.72267 259.006336 
L 207.72267 253.012389 
" clip-path="url(#paffc44b9d5)" style="fill: none; stroke: #ff0000; stroke-width: 1.5"/>
    <path d="M 210.766307 252.405385 
L 210.766307 246.249185 
" clip-path="url(#paffc44b9d5)" style="fill: none; stroke: #ff0000; stroke-width: 1.5"/>
    <path d="M 213.809943 245.535416 
L 213.809943 239.294465 
" clip-path="url(#paffc44b9d5)" style="fill: none; stroke: #ff0000; stroke-width: 1.5"/>
    <path d="M 216.85358 238.530535 
L 216.85358 232.243243 
" clip-path="url(#paffc44b9d5)" style="fill: none; stroke: #ff0000; stroke-width: 1.5"/>
    <path d="M 219.897216 231.48377 
L 219.897216 225.164848 
" clip-path="url(#paffc44b9d5)" style="fill: none; stroke: #ff0000; stroke-width: 1.5"/>
    <path d="M 222.940852 224.460222 
L 222.940852 218.113761 
" clip-path="url(#paffc44b9d5)" style="fill: none; stroke: #ff0000; stroke-width: 1.5"/>
    <path d="M 225.984489 217.509054 
L 225.984489 211.137308 
" clip-path="url(#paffc44b9d5)" style="fill: none; stroke: #ff0000; stroke-width: 1.5"/>
    <path d="M 229.028125 210.671892 
L 229.028125 204.279854 
" clip-path="url(#paffc44b9d5)" style="fill: none; stroke: #ff0000; stroke-width: 1.5"/>
    <path d="M 232.071761 203.987462 
L 232.071761 197.584098 
" clip-path="url(#paffc44b9d5)" style="fill: none; stroke: #ff0000; stroke-width: 1.5"/>
    <path d="M 235.115398 197.492965 
L 235.115398 191.090239 
" clip-path="url(#paffc44b9d5)" style="fill: none; stroke: #ff0000; stroke-width: 1.5"/>
    <path d="M 238.159034 191.222904 
L 238.159034 184.833916 
" clip-path="url(#paffc44b9d5)" style="fill: none; stroke: #ff0000; stroke-width: 1.5"/>
    <path d="M 241.20267 185.2063 
L 241.20267 178.843758 
" clip-path="url(#paffc44b9d5)" style="fill: none; stroke: #ff0000; stroke-width: 1.5"/>
    <path d="M 244.246307 179.463522 
L 244.246307 173.139329 
" clip-path="url(#paffc44b9d5)" style="fill: none; stroke: #ff0000; stroke-width: 1.5"/>
    <path d="M 247.289943 174.004003 
L 247.289943 167.730019 
" clip-path="url(#paffc44b9d5)" style="fill: none; stroke: #ff0000; stroke-width: 1.5"/>
    <path d="M 250.33358 168.825825 
L 250.33358 162.615089 
" clip-path="url(#paffc44b9d5)" style="fill: none; stroke: #ff0000; stroke-width: 1.5"/>
    <path d="M 253.377216 163.917398 
L 253.377216 157.784695 
" clip-path="url(#paffc44b9d5)" style="fill: none; stroke: #ff0000; stroke-width: 1.5"/>
    <path d="M 256.420852 159.260591 
L 256.420852 153.221552 
" clip-path="url(#paffc44b9d5)" style="fill: none; stroke: #ff0000; stroke-width: 1.5"/>
    <path d="M 259.464489 154.834188 
L 259.464489 148.902879 
" clip-path="url(#paffc44b9d5)" style="fill: none; stroke: #ff0000; stroke-width: 1.5"/>
    <path d="M 262.508125 150.616603 
L 262.508125 144.80243 
" clip-path="url(#paffc44b9d5)" style="fill: none; stroke: #ff0000; stroke-width: 1.5"/>
    <path d="M 265.551761 146.587358 
L 265.551761 140.892444 
" clip-path="url(#paffc44b9d5)" style="fill: none; stroke: #ff0000; stroke-width: 1.5"/>
    <path d="M 268.595398 142.727442 
L 268.595398 137.145422 
" clip-path="url(#paffc44b9d5)" style="fill: none; stroke: #ff0000; stroke-width: 1.5"/>
    <path d="M 271.639034 139.019069 
L 271.639034 133.535574 
" clip-path="url(#paffc44b9d5)" style="fill: none; stroke: #ff0000; stroke-width: 1.5"/>
    <path d="M 274.68267 135.445374 
L 274.68267 130.039853 
" clip-path="url(#paffc44b9d5)" style="fill: none; stroke: #ff0000; stroke-width: 1.5"/>
    <path d="M 277.726307 131.990362 
L 277.726307 126.638532 
" clip-path="url(#paffc44b9d5)" style="fill: none; stroke: #ff0000; stroke-width: 1.5"/>
    <path d="M 280.769943 128.639155 
L 280.769943 123.315377 
" clip-path="url(#paffc44b9d5)" style="fill: none; stroke: #ff0000; stroke-width: 1.5"/>
    <path d="M 283.81358 125.378383 
L 283.81358 120.057519 
" clip-path="url(#paffc44b9d5)" style="fill: none; stroke: #ff0000; stroke-width: 1.5"/>
    <path d="M 286.857216 122.196518 
L 286.857216 116.855149 
" clip-path="url(#paffc44b9d5)" style="fill: none; stroke: #ff0000; stroke-width: 1.5"/>
    <path d="M 289.900852 119.084 
L 289.900852 113.701146 
" clip-path="url(#paffc44b9d5)" style="fill: none; stroke: #ff0000; stroke-width: 1.5"/>
    <path d="M 292.944489 116.033104 
L 292.944489 110.590733 
" clip-path="url(#paffc44b9d5)" style="fill: none; stroke: #ff0000; stroke-width: 1.5"/>
    <path d="M 295.988125 113.037601 
L 295.988125 107.521162 
" clip-path="url(#paffc44b9d5)" style="fill: none; stroke: #ff0000; stroke-width: 1.5"/>
    <path d="M 299.031761 110.092316 
L 299.031761 104.49142 
" clip-path="url(#paffc44b9d5)" style="fill: none; stroke: #ff0000; stroke-width: 1.5"/>
    <path d="M 302.075398 107.192716 
L 302.075398 101.501858 
" clip-path="url(#paffc44b9d5)" style="fill: none; stroke: #ff0000; stroke-width: 1.5"/>
    <path d="M 305.119034 104.334619 
L 305.119034 98.553724 
" clip-path="url(#paffc44b9d5)" style="fill: none; stroke: #ff0000; stroke-width: 1.5"/>
    <path d="M 308.16267 101.51405 
L 308.16267 95.648602 
" clip-path="url(#paffc44b9d5)" style="fill: none; stroke: #ff0000; stroke-width: 1.5"/>
    <path d="M 311.206307 98.727247 
L 311.206307 92.787836 
" clip-path="url(#paffc44b9d5)" style="fill: none; stroke: #ff0000; stroke-width: 1.5"/>
    <path d="M 314.249943 95.970744 
L 314.249943 89.972068 
" clip-path="url(#paffc44b9d5)" style="fill: none; stroke: #ff0000; stroke-width: 1.5"/>
    <path d="M 317.29358 93.241486 
L 317.29358 87.200968 
" clip-path="url(#paffc44b9d5)" style="fill: none; stroke: #ff0000; stroke-width: 1.5"/>
    <path d="M 320.337216 90.536922 
L 320.337216 84.473199 
" clip-path="url(#paffc44b9d5)" style="fill: none; stroke: #ff0000; stroke-width: 1.5"/>
    <path d="M 323.380852 87.855064 
L 323.380852 81.78655 
" clip-path="url(#paffc44b9d5)" style="fill: none; stroke: #ff0000; stroke-width: 1.5"/>
    <path d="M 326.424489 85.19451 
L 326.424489 79.138167 
" clip-path="url(#paffc44b9d5)" style="fill: none; stroke: #ff0000; stroke-width: 1.5"/>
    <path d="M 329.468125 82.554445 
L 329.468125 76.524771 
" clip-path="url(#paffc44b9d5)" style="fill: none; stroke: #ff0000; stroke-width: 1.5"/>
    <path d="M 332.511761 79.934615 
L 332.511761 73.94284 
" clip-path="url(#paffc44b9d5)" style="fill: none; stroke: #ff0000; stroke-width: 1.5"/>
    <path d="M 335.555398 77.335278 
L 335.555398 71.388746 
" clip-path="url(#paffc44b9d5)" style="fill: none; stroke: #ff0000; stroke-width: 1.5"/>
    <path d="M 338.599034 74.757099 
L 338.599034 68.858891 
" clip-path="url(#paffc44b9d5)" style="fill: none; stroke: #ff0000; stroke-width: 1.5"/>
    <path d="M 341.64267 72.200967 
L 341.64267 66.349848 
" clip-path="url(#paffc44b9d5)" style="fill: none; stroke: #ff0000; stroke-width: 1.5"/>
    <path d="M 344.686307 69.667763 
L 344.686307 63.858529 
" clip-path="url(#paffc44b9d5)" style="fill: none; stroke: #ff0000; stroke-width: 1.5"/>
    <path d="M 347.729943 67.158094 
L 347.729943 61.382309 
" clip-path="url(#paffc44b9d5)" style="fill: none; stroke: #ff0000; stroke-width: 1.5"/>
    <path d="M 350.77358 64.672086 
L 350.77358 58.919112 
" clip-path="url(#paffc44b9d5)" style="fill: none; stroke: #ff0000; stroke-width: 1.5"/>
    <path d="M 353.817216 62.209276 
L 353.817216 56.467422 
" clip-path="url(#paffc44b9d5)" style="fill: none; stroke: #ff0000; stroke-width: 1.5"/>
    <path d="M 356.860852 59.768656 
L 356.860852 54.026245 
" clip-path="url(#paffc44b9d5)" style="fill: none; stroke: #ff0000; stroke-width: 1.5"/>
    <path d="M 359.904489 57.348861 
L 359.904489 51.595059 
" clip-path="url(#paffc44b9d5)" style="fill: none; stroke: #ff0000; stroke-width: 1.5"/>
    <path d="M 362.948125 54.948479 
L 362.948125 49.17379 
" clip-path="url(#paffc44b9d5)" style="fill: none; stroke: #ff0000; stroke-width: 1.5"/>
    <path d="M 365.991761 52.566363 
L 365.991761 46.762826 
" clip-path="url(#paffc44b9d5)" style="fill: none; stroke: #ff0000; stroke-width: 1.5"/>
    <path d="M 369.035398 50.201897 
L 369.035398 44.363101 
" clip-path="url(#paffc44b9d5)" style="fill: none; stroke: #ff0000; stroke-width: 1.5"/>
    <path d="M 372.079034 47.855115 
L 372.079034 41.976189 
" clip-path="url(#paffc44b9d5)" style="fill: none; stroke: #ff0000; stroke-width: 1.5"/>
    <path d="M 375.12267 45.526669 
L 375.12267 39.604369 
" clip-path="url(#paffc44b9d5)" style="fill: none; stroke: #ff0000; stroke-width: 1.5"/>
    <path d="M 378.166307 43.217647 
L 378.166307 37.250569 
" clip-path="url(#paffc44b9d5)" style="fill: none; stroke: #ff0000; stroke-width: 1.5"/>
    <path d="M 381.209943 40.929303 
L 381.209943 34.918125 
" clip-path="url(#paffc44b9d5)" style="fill: none; stroke: #ff0000; stroke-width: 1.5"/>
   </g>
   <g id="line2d_13">
    <path d="M 76.846307 286.49322 
L 79.889943 286.501917 
L 82.93358 286.502538 
L 85.977216 286.496416 
L 89.020852 286.485487 
L 92.064489 286.472037 
L 95.108125 286.458435 
L 98.151761 286.446854 
L 101.195398 286.438999 
L 104.239034 286.43591 
L 107.28267 286.437871 
L 110.326307 286.444454 
L 113.369943 286.454659 
L 116.41358 286.467131 
L 119.457216 286.480387 
L 122.500852 286.493019 
L 125.544489 286.503839 
L 128.588125 286.511961 
L 131.631761 286.516813 
L 134.675398 286.518098 
L 137.719034 286.515732 
L 140.76267 286.509751 
L 143.806307 286.500212 
L 146.849943 286.487075 
L 149.89358 286.470053 
L 152.937216 286.448443 
L 155.980852 286.420933 
L 159.024489 286.385364 
L 162.068125 286.338408 
L 165.111761 286.275036 
L 168.155398 286.187586 
L 171.199034 286.064061 
L 174.24267 285.885169 
L 177.286307 285.619398 
L 180.329943 285.215472 
L 183.37358 284.592222 
L 186.417216 283.628225 
L 189.460852 282.158426 
L 192.504489 279.99045 
L 195.548125 276.950622 
L 198.591761 272.948056 
L 201.635398 268.017144 
L 204.679034 262.30418 
L 207.72267 256.009362 
L 210.766307 249.327285 
L 213.809943 242.41494 
L 216.85358 235.386889 
L 219.897216 228.324309 
L 222.940852 221.286992 
L 225.984489 214.323181 
L 229.028125 207.475873 
L 232.071761 200.78578 
L 235.115398 194.291602 
L 238.159034 188.02841 
L 241.20267 182.025029 
L 244.246307 176.301425 
L 247.289943 170.867011 
L 250.33358 165.720457 
L 253.377216 160.851047 
L 256.420852 156.241071 
L 259.464489 151.868534 
L 262.508125 147.709516 
L 265.551761 143.739901 
L 268.595398 139.936432 
L 271.639034 136.277322 
L 274.68267 132.742614 
L 277.726307 129.314447 
L 280.769943 125.977266 
L 283.81358 122.717951 
L 286.857216 119.525833 
L 289.900852 116.392573 
L 292.944489 113.311918 
L 295.988125 110.279382 
L 299.031761 107.291868 
L 302.075398 104.347287 
L 305.119034 101.444172 
L 308.16267 98.581326 
L 311.206307 95.757542 
L 314.249943 92.971406 
L 317.29358 90.221227 
L 320.337216 87.50506 
L 323.380852 84.820807 
L 326.424489 82.166339 
L 329.468125 79.539608 
L 332.511761 76.938727 
L 335.555398 74.362012 
L 338.599034 71.807995 
L 341.64267 69.275408 
L 344.686307 66.763146 
L 347.729943 64.270201 
L 350.77358 61.795599 
L 353.817216 59.338349 
L 356.860852 56.89745 
L 359.904489 54.47196 
L 362.948125 52.061134 
L 365.991761 49.664594 
L 369.035398 47.282499 
L 372.079034 44.915652 
L 375.12267 42.565519 
L 378.166307 40.234108 
L 381.209943 37.923714 
" clip-path="url(#paffc44b9d5)" style="fill: none; stroke: #1f77b4; stroke-width: 1.5; stroke-linecap: square"/>
   </g>
   <g id="patch_3">
    <path d="M 61.628125 299.518125 
L 61.628125 22.318125 
" style="fill: none; stroke: #000000; stroke-width: 0.8; stroke-linejoin: miter; stroke-linecap: square"/>
   </g>
   <g id="patch_4">
    <path d="M 396.428125 299.518125 
L 396.428125 22.318125 
" style="fill: none; stroke: #000000; stroke-width: 0.8; stroke-linejoin: miter; stroke-linecap: square"/>
   </g>
   <g id="patch_5">
    <path d="M 61.628125 299.518125 
L 396.428125 299.518125 
" style="fill: none; stroke: #000000; stroke-width: 0.8; stroke-linejoin: miter; stroke-linecap: square"/>
   </g>
   <g id="patch_6">
    <path d="M 61.628125 22.318125 
L 396.428125 22.318125 
" style="fill: none; stroke: #000000; stroke-width: 0.8; stroke-linejoin: miter; stroke-linecap: square"/>
   </g>
   <g id="text_15">
    <!-- Integral of difference between twist and no-twist wilson action -->
    <g transform="translate(41.442813 16.318125) scale(0.12 -0.12)">
     <defs>
      <path id="DejaVuSans-49" d="M 628 4666 
L 1259 4666 
L 1259 0 
L 628 0 
L 628 4666 
z
" transform="scale(0.015625)"/>
      <path id="DejaVuSans-6e" d="M 3513 2113 
L 3513 0 
L 2938 0 
L 2938 2094 
Q 2938 2591 2744 2837 
Q 2550 3084 2163 3084 
Q 1697 3084 1428 2787 
Q 1159 2491 1159 1978 
L 1159 0 
L 581 0 
L 581 3500 
L 1159 3500 
L 1159 2956 
Q 1366 3272 1645 3428 
Q 1925 3584 2291 3584 
Q 2894 3584 3203 3211 
Q 3513 2838 3513 2113 
z
" transform="scale(0.015625)"/>
      <path id="DejaVuSans-74" d="M 1172 4494 
L 1172 3500 
L 2356 3500 
L 2356 3053 
L 1172 3053 
L 1172 1153 
Q 1172 725 1289 603 
Q 1406 481 1766 481 
L 2356 481 
L 2356 0 
L 1766 0 
Q 1100 0 847 248 
Q 594 497 594 1153 
L 594 3053 
L 172 3053 
L 172 3500 
L 594 3500 
L 594 4494 
L 1172 4494 
z
" transform="scale(0.015625)"/>
      <path id="DejaVuSans-65" d="M 3597 1894 
L 3597 1613 
L 953 1613 
Q 991 1019 1311 708 
Q 1631 397 2203 397 
Q 2534 397 2845 478 
Q 3156 559 3463 722 
L 3463 178 
Q 3153 47 2828 -22 
Q 2503 -91 2169 -91 
Q 1331 -91 842 396 
Q 353 884 353 1716 
Q 353 2575 817 3079 
Q 1281 3584 2069 3584 
Q 2775 3584 3186 3129 
Q 3597 2675 3597 1894 
z
M 3022 2063 
Q 3016 2534 2758 2815 
Q 2500 3097 2075 3097 
Q 1594 3097 1305 2825 
Q 1016 2553 972 2059 
L 3022 2063 
z
" transform="scale(0.015625)"/>
      <path id="DejaVuSans-67" d="M 2906 1791 
Q 2906 2416 2648 2759 
Q 2391 3103 1925 3103 
Q 1463 3103 1205 2759 
Q 947 2416 947 1791 
Q 947 1169 1205 825 
Q 1463 481 1925 481 
Q 2391 481 2648 825 
Q 2906 1169 2906 1791 
z
M 3481 434 
Q 3481 -459 3084 -895 
Q 2688 -1331 1869 -1331 
Q 1566 -1331 1297 -1286 
Q 1028 -1241 775 -1147 
L 775 -588 
Q 1028 -725 1275 -790 
Q 1522 -856 1778 -856 
Q 2344 -856 2625 -561 
Q 2906 -266 2906 331 
L 2906 616 
Q 2728 306 2450 153 
Q 2172 0 1784 0 
Q 1141 0 747 490 
Q 353 981 353 1791 
Q 353 2603 747 3093 
Q 1141 3584 1784 3584 
Q 2172 3584 2450 3431 
Q 2728 3278 2906 2969 
L 2906 3500 
L 3481 3500 
L 3481 434 
z
" transform="scale(0.015625)"/>
      <path id="DejaVuSans-72" d="M 2631 2963 
Q 2534 3019 2420 3045 
Q 2306 3072 2169 3072 
Q 1681 3072 1420 2755 
Q 1159 2438 1159 1844 
L 1159 0 
L 581 0 
L 581 3500 
L 1159 3500 
L 1159 2956 
Q 1341 3275 1631 3429 
Q 1922 3584 2338 3584 
Q 2397 3584 2469 3576 
Q 2541 3569 2628 3553 
L 2631 2963 
z
" transform="scale(0.015625)"/>
      <path id="DejaVuSans-61" d="M 2194 1759 
Q 1497 1759 1228 1600 
Q 959 1441 959 1056 
Q 959 750 1161 570 
Q 1363 391 1709 391 
Q 2188 391 2477 730 
Q 2766 1069 2766 1631 
L 2766 1759 
L 2194 1759 
z
M 3341 1997 
L 3341 0 
L 2766 0 
L 2766 531 
Q 2569 213 2275 61 
Q 1981 -91 1556 -91 
Q 1019 -91 701 211 
Q 384 513 384 1019 
Q 384 1609 779 1909 
Q 1175 2209 1959 2209 
L 2766 2209 
L 2766 2266 
Q 2766 2663 2505 2880 
Q 2244 3097 1772 3097 
Q 1472 3097 1187 3025 
Q 903 2953 641 2809 
L 641 3341 
Q 956 3463 1253 3523 
Q 1550 3584 1831 3584 
Q 2591 3584 2966 3190 
Q 3341 2797 3341 1997 
z
" transform="scale(0.015625)"/>
      <path id="DejaVuSans-6c" d="M 603 4863 
L 1178 4863 
L 1178 0 
L 603 0 
L 603 4863 
z
" transform="scale(0.015625)"/>
      <path id="DejaVuSans-20" transform="scale(0.015625)"/>
      <path id="DejaVuSans-6f" d="M 1959 3097 
Q 1497 3097 1228 2736 
Q 959 2375 959 1747 
Q 959 1119 1226 758 
Q 1494 397 1959 397 
Q 2419 397 2687 759 
Q 2956 1122 2956 1747 
Q 2956 2369 2687 2733 
Q 2419 3097 1959 3097 
z
M 1959 3584 
Q 2709 3584 3137 3096 
Q 3566 2609 3566 1747 
Q 3566 888 3137 398 
Q 2709 -91 1959 -91 
Q 1206 -91 779 398 
Q 353 888 353 1747 
Q 353 2609 779 3096 
Q 1206 3584 1959 3584 
z
" transform="scale(0.015625)"/>
      <path id="DejaVuSans-66" d="M 2375 4863 
L 2375 4384 
L 1825 4384 
Q 1516 4384 1395 4259 
Q 1275 4134 1275 3809 
L 1275 3500 
L 2222 3500 
L 2222 3053 
L 1275 3053 
L 1275 0 
L 697 0 
L 697 3053 
L 147 3053 
L 147 3500 
L 697 3500 
L 697 3744 
Q 697 4328 969 4595 
Q 1241 4863 1831 4863 
L 2375 4863 
z
" transform="scale(0.015625)"/>
      <path id="DejaVuSans-64" d="M 2906 2969 
L 2906 4863 
L 3481 4863 
L 3481 0 
L 2906 0 
L 2906 525 
Q 2725 213 2448 61 
Q 2172 -91 1784 -91 
Q 1150 -91 751 415 
Q 353 922 353 1747 
Q 353 2572 751 3078 
Q 1150 3584 1784 3584 
Q 2172 3584 2448 3432 
Q 2725 3281 2906 2969 
z
M 947 1747 
Q 947 1113 1208 752 
Q 1469 391 1925 391 
Q 2381 391 2643 752 
Q 2906 1113 2906 1747 
Q 2906 2381 2643 2742 
Q 2381 3103 1925 3103 
Q 1469 3103 1208 2742 
Q 947 2381 947 1747 
z
" transform="scale(0.015625)"/>
      <path id="DejaVuSans-69" d="M 603 3500 
L 1178 3500 
L 1178 0 
L 603 0 
L 603 3500 
z
M 603 4863 
L 1178 4863 
L 1178 4134 
L 603 4134 
L 603 4863 
z
" transform="scale(0.015625)"/>
      <path id="DejaVuSans-63" d="M 3122 3366 
L 3122 2828 
Q 2878 2963 2633 3030 
Q 2388 3097 2138 3097 
Q 1578 3097 1268 2742 
Q 959 2388 959 1747 
Q 959 1106 1268 751 
Q 1578 397 2138 397 
Q 2388 397 2633 464 
Q 2878 531 3122 666 
L 3122 134 
Q 2881 22 2623 -34 
Q 2366 -91 2075 -91 
Q 1284 -91 818 406 
Q 353 903 353 1747 
Q 353 2603 823 3093 
Q 1294 3584 2113 3584 
Q 2378 3584 2631 3529 
Q 2884 3475 3122 3366 
z
" transform="scale(0.015625)"/>
      <path id="DejaVuSans-62" d="M 3116 1747 
Q 3116 2381 2855 2742 
Q 2594 3103 2138 3103 
Q 1681 3103 1420 2742 
Q 1159 2381 1159 1747 
Q 1159 1113 1420 752 
Q 1681 391 2138 391 
Q 2594 391 2855 752 
Q 3116 1113 3116 1747 
z
M 1159 2969 
Q 1341 3281 1617 3432 
Q 1894 3584 2278 3584 
Q 2916 3584 3314 3078 
Q 3713 2572 3713 1747 
Q 3713 922 3314 415 
Q 2916 -91 2278 -91 
Q 1894 -91 1617 61 
Q 1341 213 1159 525 
L 1159 0 
L 581 0 
L 581 4863 
L 1159 4863 
L 1159 2969 
z
" transform="scale(0.015625)"/>
      <path id="DejaVuSans-77" d="M 269 3500 
L 844 3500 
L 1563 769 
L 2278 3500 
L 2956 3500 
L 3675 769 
L 4391 3500 
L 4966 3500 
L 4050 0 
L 3372 0 
L 2619 2869 
L 1863 0 
L 1184 0 
L 269 3500 
z
" transform="scale(0.015625)"/>
      <path id="DejaVuSans-73" d="M 2834 3397 
L 2834 2853 
Q 2591 2978 2328 3040 
Q 2066 3103 1784 3103 
Q 1356 3103 1142 2972 
Q 928 2841 928 2578 
Q 928 2378 1081 2264 
Q 1234 2150 1697 2047 
L 1894 2003 
Q 2506 1872 2764 1633 
Q 3022 1394 3022 966 
Q 3022 478 2636 193 
Q 2250 -91 1575 -91 
Q 1294 -91 989 -36 
Q 684 19 347 128 
L 347 722 
Q 666 556 975 473 
Q 1284 391 1588 391 
Q 1994 391 2212 530 
Q 2431 669 2431 922 
Q 2431 1156 2273 1281 
Q 2116 1406 1581 1522 
L 1381 1569 
Q 847 1681 609 1914 
Q 372 2147 372 2553 
Q 372 3047 722 3315 
Q 1072 3584 1716 3584 
Q 2034 3584 2315 3537 
Q 2597 3491 2834 3397 
z
" transform="scale(0.015625)"/>
      <path id="DejaVuSans-2d" d="M 313 2009 
L 1997 2009 
L 1997 1497 
L 313 1497 
L 313 2009 
z
" transform="scale(0.015625)"/>
     </defs>
     <use xlink:href="#DejaVuSans-49"/>
     <use xlink:href="#DejaVuSans-6e" x="29.492188"/>
     <use xlink:href="#DejaVuSans-74" x="92.871094"/>
     <use xlink:href="#DejaVuSans-65" x="132.080078"/>
     <use xlink:href="#DejaVuSans-67" x="193.603516"/>
     <use xlink:href="#DejaVuSans-72" x="257.080078"/>
     <use xlink:href="#DejaVuSans-61" x="298.193359"/>
     <use xlink:href="#DejaVuSans-6c" x="359.472656"/>
     <use xlink:href="#DejaVuSans-20" x="387.255859"/>
     <use xlink:href="#DejaVuSans-6f" x="419.042969"/>
     <use xlink:href="#DejaVuSans-66" x="480.224609"/>
     <use xlink:href="#DejaVuSans-20" x="515.429688"/>
     <use xlink:href="#DejaVuSans-64" x="547.216797"/>
     <use xlink:href="#DejaVuSans-69" x="610.693359"/>
     <use xlink:href="#DejaVuSans-66" x="638.476562"/>
     <use xlink:href="#DejaVuSans-66" x="673.681641"/>
     <use xlink:href="#DejaVuSans-65" x="708.886719"/>
     <use xlink:href="#DejaVuSans-72" x="770.410156"/>
     <use xlink:href="#DejaVuSans-65" x="809.273438"/>
     <use xlink:href="#DejaVuSans-6e" x="870.796875"/>
     <use xlink:href="#DejaVuSans-63" x="934.175781"/>
     <use xlink:href="#DejaVuSans-65" x="989.15625"/>
     <use xlink:href="#DejaVuSans-20" x="1050.679688"/>
     <use xlink:href="#DejaVuSans-62" x="1082.466797"/>
     <use xlink:href="#DejaVuSans-65" x="1145.943359"/>
     <use xlink:href="#DejaVuSans-74" x="1207.466797"/>
     <use xlink:href="#DejaVuSans-77" x="1246.675781"/>
     <use xlink:href="#DejaVuSans-65" x="1328.462891"/>
     <use xlink:href="#DejaVuSans-65" x="1389.986328"/>
     <use xlink:href="#DejaVuSans-6e" x="1451.509766"/>
     <use xlink:href="#DejaVuSans-20" x="1514.888672"/>
     <use xlink:href="#DejaVuSans-74" x="1546.675781"/>
     <use xlink:href="#DejaVuSans-77" x="1585.884766"/>
     <use xlink:href="#DejaVuSans-69" x="1667.671875"/>
     <use xlink:href="#DejaVuSans-73" x="1695.455078"/>
     <use xlink:href="#DejaVuSans-74" x="1747.554688"/>
     <use xlink:href="#DejaVuSans-20" x="1786.763672"/>
     <use xlink:href="#DejaVuSans-61" x="1818.550781"/>
     <use xlink:href="#DejaVuSans-6e" x="1879.830078"/>
     <use xlink:href="#DejaVuSans-64" x="1943.208984"/>
     <use xlink:href="#DejaVuSans-20" x="2006.685547"/>
     <use xlink:href="#DejaVuSans-6e" x="2038.472656"/>
     <use xlink:href="#DejaVuSans-6f" x="2101.851562"/>
     <use xlink:href="#DejaVuSans-2d" x="2164.908203"/>
     <use xlink:href="#DejaVuSans-74" x="2200.992188"/>
     <use xlink:href="#DejaVuSans-77" x="2240.201172"/>
     <use xlink:href="#DejaVuSans-69" x="2321.988281"/>
     <use xlink:href="#DejaVuSans-73" x="2349.771484"/>
     <use xlink:href="#DejaVuSans-74" x="2401.871094"/>
     <use xlink:href="#DejaVuSans-20" x="2441.080078"/>
     <use xlink:href="#DejaVuSans-77" x="2472.867188"/>
     <use xlink:href="#DejaVuSans-69" x="2554.654297"/>
     <use xlink:href="#DejaVuSans-6c" x="2582.4375"/>
     <use xlink:href="#DejaVuSans-73" x="2610.220703"/>
     <use xlink:href="#DejaVuSans-6f" x="2662.320312"/>
     <use xlink:href="#DejaVuSans-6e" x="2723.501953"/>
     <use xlink:href="#DejaVuSans-20" x="2786.880859"/>
     <use xlink:href="#DejaVuSans-61" x="2818.667969"/>
     <use xlink:href="#DejaVuSans-63" x="2879.947266"/>
     <use xlink:href="#DejaVuSans-74" x="2934.927734"/>
     <use xlink:href="#DejaVuSans-69" x="2974.136719"/>
     <use xlink:href="#DejaVuSans-6f" x="3001.919922"/>
     <use xlink:href="#DejaVuSans-6e" x="3063.101562"/>
    </g>
   </g>
  </g>
  <g id="text_16">
   <!-- Twist coefficients 0 and 1. N=5 Jackknife bins -->
   <g transform="translate(50.828125 339.118125) scale(0.1 -0.1)">
    <defs>
     <path id="DejaVuSans-Oblique-54" d="M 378 4666 
L 4325 4666 
L 4225 4134 
L 2559 4134 
L 1759 0 
L 1125 0 
L 1925 4134 
L 275 4134 
L 378 4666 
z
" transform="scale(0.015625)"/>
     <path id="DejaVuSans-Oblique-77" d="M 544 3500 
L 1113 3500 
L 1259 684 
L 2566 3500 
L 3231 3500 
L 3425 684 
L 4666 3500 
L 5241 3500 
L 3641 0 
L 2969 0 
L 2797 2900 
L 1459 0 
L 781 0 
L 544 3500 
z
" transform="scale(0.015625)"/>
     <path id="DejaVuSans-Oblique-69" d="M 1172 4863 
L 1747 4863 
L 1606 4134 
L 1031 4134 
L 1172 4863 
z
M 909 3500 
L 1484 3500 
L 800 0 
L 225 0 
L 909 3500 
z
" transform="scale(0.015625)"/>
     <path id="DejaVuSans-Oblique-73" d="M 3200 3397 
L 3091 2853 
Q 2863 2978 2609 3040 
Q 2356 3103 2088 3103 
Q 1634 3103 1373 2948 
Q 1113 2794 1113 2528 
Q 1113 2219 1719 2053 
Q 1766 2041 1788 2034 
L 1972 1978 
Q 2547 1819 2739 1644 
Q 2931 1469 2931 1166 
Q 2931 609 2489 259 
Q 2047 -91 1331 -91 
Q 1053 -91 747 -37 
Q 441 16 72 128 
L 184 722 
Q 500 559 806 475 
Q 1113 391 1394 391 
Q 1816 391 2080 572 
Q 2344 753 2344 1031 
Q 2344 1331 1650 1516 
L 1591 1531 
L 1394 1581 
Q 956 1697 753 1886 
Q 550 2075 550 2369 
Q 550 2928 970 3256 
Q 1391 3584 2113 3584 
Q 2397 3584 2667 3537 
Q 2938 3491 3200 3397 
z
" transform="scale(0.015625)"/>
     <path id="DejaVuSans-Oblique-20" transform="scale(0.015625)"/>
     <path id="DejaVuSans-Oblique-63" d="M 3431 3366 
L 3316 2797 
Q 3109 2947 2876 3022 
Q 2644 3097 2394 3097 
Q 2119 3097 1870 3000 
Q 1622 2903 1453 2725 
Q 1184 2453 1037 2087 
Q 891 1722 891 1331 
Q 891 859 1127 628 
Q 1363 397 1844 397 
Q 2081 397 2348 469 
Q 2616 541 2906 684 
L 2797 116 
Q 2547 13 2283 -39 
Q 2019 -91 1741 -91 
Q 1044 -91 669 257 
Q 294 606 294 1253 
Q 294 1797 489 2255 
Q 684 2713 1069 3078 
Q 1331 3328 1684 3456 
Q 2038 3584 2456 3584 
Q 2700 3584 2940 3529 
Q 3181 3475 3431 3366 
z
" transform="scale(0.015625)"/>
     <path id="DejaVuSans-Oblique-6f" d="M 1625 -91 
Q 1009 -91 651 289 
Q 294 669 294 1325 
Q 294 1706 417 2101 
Q 541 2497 738 2766 
Q 1047 3184 1428 3384 
Q 1809 3584 2291 3584 
Q 2888 3584 3255 3212 
Q 3622 2841 3622 2241 
Q 3622 1825 3500 1412 
Q 3378 1000 3181 728 
Q 2875 309 2494 109 
Q 2113 -91 1625 -91 
z
M 891 1344 
Q 891 869 1089 633 
Q 1288 397 1691 397 
Q 2269 397 2648 901 
Q 3028 1406 3028 2181 
Q 3028 2634 2825 2865 
Q 2622 3097 2228 3097 
Q 1903 3097 1650 2945 
Q 1397 2794 1197 2484 
Q 1050 2253 970 1956 
Q 891 1659 891 1344 
z
" transform="scale(0.015625)"/>
     <path id="DejaVuSans-Oblique-65" d="M 3078 2063 
Q 3088 2113 3092 2166 
Q 3097 2219 3097 2272 
Q 3097 2653 2873 2875 
Q 2650 3097 2266 3097 
Q 1838 3097 1509 2826 
Q 1181 2556 1013 2059 
L 3078 2063 
z
M 3578 1613 
L 903 1613 
Q 884 1494 878 1425 
Q 872 1356 872 1306 
Q 872 872 1139 634 
Q 1406 397 1894 397 
Q 2269 397 2603 481 
Q 2938 566 3225 728 
L 3116 159 
Q 2806 34 2476 -28 
Q 2147 -91 1806 -91 
Q 1078 -91 686 257 
Q 294 606 294 1247 
Q 294 1794 489 2264 
Q 684 2734 1063 3103 
Q 1306 3334 1642 3459 
Q 1978 3584 2356 3584 
Q 2950 3584 3301 3228 
Q 3653 2872 3653 2272 
Q 3653 2128 3634 1964 
Q 3616 1800 3578 1613 
z
" transform="scale(0.015625)"/>
     <path id="DejaVuSans-Oblique-66" d="M 3059 4863 
L 2969 4384 
L 2419 4384 
Q 2106 4384 1964 4261 
Q 1822 4138 1753 3809 
L 1691 3500 
L 2638 3500 
L 2553 3053 
L 1606 3053 
L 1013 0 
L 434 0 
L 1031 3053 
L 481 3053 
L 563 3500 
L 1113 3500 
L 1159 3744 
Q 1278 4363 1576 4613 
Q 1875 4863 2516 4863 
L 3059 4863 
z
" transform="scale(0.015625)"/>
     <path id="DejaVuSans-Oblique-30" d="M 2444 4750 
Q 3078 4750 3414 4328 
Q 3750 3906 3750 3116 
Q 3750 2516 3592 1923 
Q 3434 1331 3150 863 
Q 2859 394 2467 151 
Q 2075 -91 1600 -91 
Q 988 -91 653 334 
Q 319 759 319 1544 
Q 319 2138 480 2733 
Q 641 3328 928 3794 
Q 1216 4263 1602 4506 
Q 1988 4750 2444 4750 
z
M 2406 4250 
Q 2169 4250 1955 4123 
Q 1741 3997 1569 3750 
Q 1281 3338 1111 2720 
Q 941 2103 941 1453 
Q 941 938 1123 673 
Q 1306 409 1663 409 
Q 1913 409 2125 536 
Q 2338 663 2509 909 
Q 2794 1319 2961 1936 
Q 3128 2553 3128 3206 
Q 3128 3722 2945 3986 
Q 2763 4250 2406 4250 
z
" transform="scale(0.015625)"/>
     <path id="DejaVuSans-Oblique-61" d="M 3438 1997 
L 3047 0 
L 2472 0 
L 2578 531 
Q 2325 219 2001 64 
Q 1678 -91 1281 -91 
Q 834 -91 548 182 
Q 263 456 263 884 
Q 263 1497 752 1853 
Q 1241 2209 2100 2209 
L 2900 2209 
L 2931 2363 
Q 2938 2388 2941 2417 
Q 2944 2447 2944 2509 
Q 2944 2788 2717 2942 
Q 2491 3097 2081 3097 
Q 1800 3097 1504 3025 
Q 1209 2953 897 2809 
L 997 3341 
Q 1322 3463 1633 3523 
Q 1944 3584 2234 3584 
Q 2853 3584 3176 3315 
Q 3500 3047 3500 2534 
Q 3500 2431 3484 2292 
Q 3469 2153 3438 1997 
z
M 2816 1759 
L 2241 1759 
Q 1534 1759 1195 1570 
Q 856 1381 856 984 
Q 856 709 1029 553 
Q 1203 397 1509 397 
Q 1978 397 2328 733 
Q 2678 1069 2791 1631 
L 2816 1759 
z
" transform="scale(0.015625)"/>
     <path id="DejaVuSans-Oblique-31" d="M 416 531 
L 1447 531 
L 2144 4122 
L 978 3897 
L 1088 4441 
L 2247 4666 
L 2881 4666 
L 2075 531 
L 3103 531 
L 3003 0 
L 313 0 
L 416 531 
z
" transform="scale(0.015625)"/>
     <path id="DejaVuSans-Oblique-2e" d="M 525 794 
L 1184 794 
L 1031 0 
L 372 0 
L 525 794 
z
" transform="scale(0.015625)"/>
     <path id="DejaVuSans-Oblique-4e" d="M 1081 4666 
L 1931 4666 
L 3219 666 
L 4000 4666 
L 4616 4666 
L 3706 0 
L 2853 0 
L 1569 4025 
L 788 0 
L 172 0 
L 1081 4666 
z
" transform="scale(0.015625)"/>
     <path id="DejaVuSans-Oblique-3d" d="M 678 2906 
L 4684 2906 
L 4684 2381 
L 678 2381 
L 678 2906 
z
M 678 1631 
L 4684 1631 
L 4684 1100 
L 678 1100 
L 678 1631 
z
" transform="scale(0.015625)"/>
     <path id="DejaVuSans-Oblique-35" d="M 3719 4666 
L 3622 4141 
L 1691 4141 
L 1466 2988 
Q 1609 3034 1757 3056 
Q 1906 3078 2059 3078 
Q 2706 3078 3081 2731 
Q 3456 2384 3456 1791 
Q 3456 1375 3264 994 
Q 3072 613 2719 325 
Q 2469 125 2108 17 
Q 1747 -91 1319 -91 
Q 1038 -91 744 -41 
Q 450 9 128 109 
L 244 697 
Q 531 556 820 486 
Q 1109 416 1403 416 
Q 2013 416 2411 781 
Q 2809 1147 2809 1697 
Q 2809 2103 2548 2328 
Q 2288 2553 1819 2553 
Q 1572 2553 1305 2495 
Q 1038 2438 756 2322 
L 1209 4666 
L 3719 4666 
z
" transform="scale(0.015625)"/>
     <path id="DejaVuSans-Oblique-4a" d="M 1069 4666 
L 1703 4666 
L 856 325 
Q 691 -522 298 -901 
Q -94 -1281 -800 -1281 
L -1050 -1281 
L -947 -750 
L -750 -750 
Q -328 -750 -109 -509 
Q 109 -269 225 325 
L 1069 4666 
z
" transform="scale(0.015625)"/>
     <path id="DejaVuSans-Oblique-6b" d="M 1172 4863 
L 1747 4863 
L 1197 2028 
L 3169 3500 
L 3916 3500 
L 1716 1825 
L 3322 0 
L 2625 0 
L 1131 1709 
L 800 0 
L 225 0 
L 1172 4863 
z
" transform="scale(0.015625)"/>
     <path id="DejaVuSans-Oblique-62" d="M 3169 2138 
Q 3169 2591 2961 2847 
Q 2753 3103 2388 3103 
Q 2122 3103 1889 2973 
Q 1656 2844 1484 2597 
Q 1303 2338 1198 1995 
Q 1094 1653 1094 1313 
Q 1094 881 1298 636 
Q 1503 391 1863 391 
Q 2134 391 2365 517 
Q 2597 644 2772 891 
Q 2950 1147 3059 1487 
Q 3169 1828 3169 2138 
z
M 1381 2969 
Q 1594 3256 1914 3420 
Q 2234 3584 2584 3584 
Q 3122 3584 3439 3221 
Q 3756 2859 3756 2241 
Q 3756 1734 3570 1259 
Q 3384 784 3041 416 
Q 2816 172 2522 40 
Q 2228 -91 1906 -91 
Q 1566 -91 1316 65 
Q 1066 222 909 531 
L 806 0 
L 231 0 
L 1178 4863 
L 1753 4863 
L 1381 2969 
z
" transform="scale(0.015625)"/>
    </defs>
    <use xlink:href="#DejaVuSans-Oblique-54"/>
    <use xlink:href="#DejaVuSans-Oblique-77" x="52.958984"/>
    <use xlink:href="#DejaVuSans-Oblique-69" x="134.746094"/>
    <use xlink:href="#DejaVuSans-Oblique-73" x="162.529297"/>
    <use xlink:href="#DejaVuSans-Oblique-74" x="214.628906"/>
    <use xlink:href="#DejaVuSans-Oblique-20" x="253.837891"/>
    <use xlink:href="#DejaVuSans-Oblique-63" x="285.625"/>
    <use xlink:href="#DejaVuSans-Oblique-6f" x="340.605469"/>
    <use xlink:href="#DejaVuSans-Oblique-65" x="401.787109"/>
    <use xlink:href="#DejaVuSans-Oblique-66" x="463.310547"/>
    <use xlink:href="#DejaVuSans-Oblique-66" x="498.515625"/>
    <use xlink:href="#DejaVuSans-Oblique-69" x="533.720703"/>
    <use xlink:href="#DejaVuSans-Oblique-63" x="561.503906"/>
    <use xlink:href="#DejaVuSans-Oblique-69" x="616.484375"/>
    <use xlink:href="#DejaVuSans-Oblique-65" x="644.267578"/>
    <use xlink:href="#DejaVuSans-Oblique-6e" x="705.791016"/>
    <use xlink:href="#DejaVuSans-Oblique-74" x="769.169922"/>
    <use xlink:href="#DejaVuSans-Oblique-73" x="808.378906"/>
    <use xlink:href="#DejaVuSans-Oblique-20" x="860.478516"/>
    <use xlink:href="#DejaVuSans-Oblique-30" x="892.265625"/>
    <use xlink:href="#DejaVuSans-Oblique-20" x="955.888672"/>
    <use xlink:href="#DejaVuSans-Oblique-61" x="987.675781"/>
    <use xlink:href="#DejaVuSans-Oblique-6e" x="1048.955078"/>
    <use xlink:href="#DejaVuSans-Oblique-64" x="1112.333984"/>
    <use xlink:href="#DejaVuSans-Oblique-20" x="1175.810547"/>
    <use xlink:href="#DejaVuSans-Oblique-31" x="1207.597656"/>
    <use xlink:href="#DejaVuSans-Oblique-2e" x="1271.220703"/>
    <use xlink:href="#DejaVuSans-Oblique-20" x="1303.007812"/>
    <use xlink:href="#DejaVuSans-Oblique-4e" x="1334.794922"/>
    <use xlink:href="#DejaVuSans-Oblique-3d" x="1409.599609"/>
    <use xlink:href="#DejaVuSans-Oblique-35" x="1493.388672"/>
    <use xlink:href="#DejaVuSans-Oblique-20" x="1557.011719"/>
    <use xlink:href="#DejaVuSans-Oblique-4a" x="1588.798828"/>
    <use xlink:href="#DejaVuSans-Oblique-61" x="1618.291016"/>
    <use xlink:href="#DejaVuSans-Oblique-63" x="1679.570312"/>
    <use xlink:href="#DejaVuSans-Oblique-6b" x="1734.550781"/>
    <use xlink:href="#DejaVuSans-Oblique-6b" x="1792.460938"/>
    <use xlink:href="#DejaVuSans-Oblique-6e" x="1850.371094"/>
    <use xlink:href="#DejaVuSans-Oblique-69" x="1913.75"/>
    <use xlink:href="#DejaVuSans-Oblique-66" x="1941.533203"/>
    <use xlink:href="#DejaVuSans-Oblique-65" x="1976.738281"/>
    <use xlink:href="#DejaVuSans-Oblique-20" x="2038.261719"/>
    <use xlink:href="#DejaVuSans-Oblique-62" x="2070.048828"/>
    <use xlink:href="#DejaVuSans-Oblique-69" x="2133.525391"/>
    <use xlink:href="#DejaVuSans-Oblique-6e" x="2161.308594"/>
    <use xlink:href="#DejaVuSans-Oblique-73" x="2224.6875"/>
   </g>
  </g>
 </g>
 <defs>
  <clipPath id="paffc44b9d5">
   <rect x="61.628125" y="22.318125" width="334.8" height="277.2"/>
  </clipPath>
 </defs>
</svg>
