<?xml version="1.0" encoding="utf-8" standalone="no"?>
<!DOCTYPE svg PUBLIC "-//W3C//DTD SVG 1.1//EN"
  "http://www.w3.org/Graphics/SVG/1.1/DTD/svg11.dtd">
<svg xmlns:xlink="http://www.w3.org/1999/xlink" width="398.50625pt" height="348.519688pt" viewBox="0 0 398.50625 348.519688" xmlns="http://www.w3.org/2000/svg" version="1.1">
 <metadata>
  <rdf:RDF xmlns:dc="http://purl.org/dc/elements/1.1/" xmlns:cc="http://creativecommons.org/ns#" xmlns:rdf="http://www.w3.org/1999/02/22-rdf-syntax-ns#">
   <cc:Work>
    <dc:type rdf:resource="http://purl.org/dc/dcmitype/StillImage"/>
    <dc:date>2024-03-06T12:24:54.911797</dc:date>
    <dc:format>image/svg+xml</dc:format>
    <dc:creator>
     <cc:Agent>
      <dc:title>Matplotlib v3.8.0, https://matplotlib.org/</dc:title>
     </cc:Agent>
    </dc:creator>
   </cc:Work>
  </rdf:RDF>
 </metadata>
 <defs>
  <style type="text/css">*{stroke-linejoin: round; stroke-linecap: butt}</style>
 </defs>
 <g id="figure_1">
  <g id="patch_1">
   <path d="M 0 348.519688 
L 398.50625 348.519688 
L 398.50625 0 
L 0 0 
z
" style="fill: #ffffff"/>
  </g>
  <g id="axes_1">
   <g id="patch_2">
    <path d="M 56.50625 299.64 
L 391.30625 299.64 
L 391.30625 22.44 
L 56.50625 22.44 
z
" style="fill: #ffffff"/>
   </g>
   <g id="matplotlib.axis_1">
    <g id="xtick_1">
     <g id="line2d_1">
      <defs>
       <path id="m06d81be7c6" d="M 0 0 
L 0 3.5 
" style="stroke: #000000; stroke-width: 0.8"/>
      </defs>
      <g>
       <use xlink:href="#m06d81be7c6" x="102.160795" y="299.64" style="stroke: #000000; stroke-width: 0.8"/>
      </g>
     </g>
     <g id="text_1">
      <!-- 10.76 -->
      <g transform="translate(87.846733 314.238438) scale(0.1 -0.1)">
       <defs>
        <path id="DejaVuSans-31" d="M 794 531 
L 1825 531 
L 1825 4091 
L 703 3866 
L 703 4441 
L 1819 4666 
L 2450 4666 
L 2450 531 
L 3481 531 
L 3481 0 
L 794 0 
L 794 531 
z
" transform="scale(0.015625)"/>
        <path id="DejaVuSans-30" d="M 2034 4250 
Q 1547 4250 1301 3770 
Q 1056 3291 1056 2328 
Q 1056 1369 1301 889 
Q 1547 409 2034 409 
Q 2525 409 2770 889 
Q 3016 1369 3016 2328 
Q 3016 3291 2770 3770 
Q 2525 4250 2034 4250 
z
M 2034 4750 
Q 2819 4750 3233 4129 
Q 3647 3509 3647 2328 
Q 3647 1150 3233 529 
Q 2819 -91 2034 -91 
Q 1250 -91 836 529 
Q 422 1150 422 2328 
Q 422 3509 836 4129 
Q 1250 4750 2034 4750 
z
" transform="scale(0.015625)"/>
        <path id="DejaVuSans-2e" d="M 684 794 
L 1344 794 
L 1344 0 
L 684 0 
L 684 794 
z
" transform="scale(0.015625)"/>
        <path id="DejaVuSans-37" d="M 525 4666 
L 3525 4666 
L 3525 4397 
L 1831 0 
L 1172 0 
L 2766 4134 
L 525 4134 
L 525 4666 
z
" transform="scale(0.015625)"/>
        <path id="DejaVuSans-36" d="M 2113 2584 
Q 1688 2584 1439 2293 
Q 1191 2003 1191 1497 
Q 1191 994 1439 701 
Q 1688 409 2113 409 
Q 2538 409 2786 701 
Q 3034 994 3034 1497 
Q 3034 2003 2786 2293 
Q 2538 2584 2113 2584 
z
M 3366 4563 
L 3366 3988 
Q 3128 4100 2886 4159 
Q 2644 4219 2406 4219 
Q 1781 4219 1451 3797 
Q 1122 3375 1075 2522 
Q 1259 2794 1537 2939 
Q 1816 3084 2150 3084 
Q 2853 3084 3261 2657 
Q 3669 2231 3669 1497 
Q 3669 778 3244 343 
Q 2819 -91 2113 -91 
Q 1303 -91 875 529 
Q 447 1150 447 2328 
Q 447 3434 972 4092 
Q 1497 4750 2381 4750 
Q 2619 4750 2861 4703 
Q 3103 4656 3366 4563 
z
" transform="scale(0.015625)"/>
       </defs>
       <use xlink:href="#DejaVuSans-31"/>
       <use xlink:href="#DejaVuSans-30" x="63.623047"/>
       <use xlink:href="#DejaVuSans-2e" x="127.246094"/>
       <use xlink:href="#DejaVuSans-37" x="159.033203"/>
       <use xlink:href="#DejaVuSans-36" x="222.65625"/>
      </g>
     </g>
    </g>
    <g id="xtick_2">
     <g id="line2d_2">
      <g>
       <use xlink:href="#m06d81be7c6" x="163.033523" y="299.64" style="stroke: #000000; stroke-width: 0.8"/>
      </g>
     </g>
     <g id="text_2">
      <!-- 10.78 -->
      <g transform="translate(148.71946 314.238438) scale(0.1 -0.1)">
       <defs>
        <path id="DejaVuSans-38" d="M 2034 2216 
Q 1584 2216 1326 1975 
Q 1069 1734 1069 1313 
Q 1069 891 1326 650 
Q 1584 409 2034 409 
Q 2484 409 2743 651 
Q 3003 894 3003 1313 
Q 3003 1734 2745 1975 
Q 2488 2216 2034 2216 
z
M 1403 2484 
Q 997 2584 770 2862 
Q 544 3141 544 3541 
Q 544 4100 942 4425 
Q 1341 4750 2034 4750 
Q 2731 4750 3128 4425 
Q 3525 4100 3525 3541 
Q 3525 3141 3298 2862 
Q 3072 2584 2669 2484 
Q 3125 2378 3379 2068 
Q 3634 1759 3634 1313 
Q 3634 634 3220 271 
Q 2806 -91 2034 -91 
Q 1263 -91 848 271 
Q 434 634 434 1313 
Q 434 1759 690 2068 
Q 947 2378 1403 2484 
z
M 1172 3481 
Q 1172 3119 1398 2916 
Q 1625 2713 2034 2713 
Q 2441 2713 2670 2916 
Q 2900 3119 2900 3481 
Q 2900 3844 2670 4047 
Q 2441 4250 2034 4250 
Q 1625 4250 1398 4047 
Q 1172 3844 1172 3481 
z
" transform="scale(0.015625)"/>
       </defs>
       <use xlink:href="#DejaVuSans-31"/>
       <use xlink:href="#DejaVuSans-30" x="63.623047"/>
       <use xlink:href="#DejaVuSans-2e" x="127.246094"/>
       <use xlink:href="#DejaVuSans-37" x="159.033203"/>
       <use xlink:href="#DejaVuSans-38" x="222.65625"/>
      </g>
     </g>
    </g>
    <g id="xtick_3">
     <g id="line2d_3">
      <g>
       <use xlink:href="#m06d81be7c6" x="223.90625" y="299.64" style="stroke: #000000; stroke-width: 0.8"/>
      </g>
     </g>
     <g id="text_3">
      <!-- 10.80 -->
      <g transform="translate(209.592188 314.238438) scale(0.1 -0.1)">
       <use xlink:href="#DejaVuSans-31"/>
       <use xlink:href="#DejaVuSans-30" x="63.623047"/>
       <use xlink:href="#DejaVuSans-2e" x="127.246094"/>
       <use xlink:href="#DejaVuSans-38" x="159.033203"/>
       <use xlink:href="#DejaVuSans-30" x="222.65625"/>
      </g>
     </g>
    </g>
    <g id="xtick_4">
     <g id="line2d_4">
      <g>
       <use xlink:href="#m06d81be7c6" x="284.778977" y="299.64" style="stroke: #000000; stroke-width: 0.8"/>
      </g>
     </g>
     <g id="text_4">
      <!-- 10.82 -->
      <g transform="translate(270.464915 314.238438) scale(0.1 -0.1)">
       <defs>
        <path id="DejaVuSans-32" d="M 1228 531 
L 3431 531 
L 3431 0 
L 469 0 
L 469 531 
Q 828 903 1448 1529 
Q 2069 2156 2228 2338 
Q 2531 2678 2651 2914 
Q 2772 3150 2772 3378 
Q 2772 3750 2511 3984 
Q 2250 4219 1831 4219 
Q 1534 4219 1204 4116 
Q 875 4013 500 3803 
L 500 4441 
Q 881 4594 1212 4672 
Q 1544 4750 1819 4750 
Q 2544 4750 2975 4387 
Q 3406 4025 3406 3419 
Q 3406 3131 3298 2873 
Q 3191 2616 2906 2266 
Q 2828 2175 2409 1742 
Q 1991 1309 1228 531 
z
" transform="scale(0.015625)"/>
       </defs>
       <use xlink:href="#DejaVuSans-31"/>
       <use xlink:href="#DejaVuSans-30" x="63.623047"/>
       <use xlink:href="#DejaVuSans-2e" x="127.246094"/>
       <use xlink:href="#DejaVuSans-38" x="159.033203"/>
       <use xlink:href="#DejaVuSans-32" x="222.65625"/>
      </g>
     </g>
    </g>
    <g id="xtick_5">
     <g id="line2d_5">
      <g>
       <use xlink:href="#m06d81be7c6" x="345.651705" y="299.64" style="stroke: #000000; stroke-width: 0.8"/>
      </g>
     </g>
     <g id="text_5">
      <!-- 10.84 -->
      <g transform="translate(331.337642 314.238438) scale(0.1 -0.1)">
       <defs>
        <path id="DejaVuSans-34" d="M 2419 4116 
L 825 1625 
L 2419 1625 
L 2419 4116 
z
M 2253 4666 
L 3047 4666 
L 3047 1625 
L 3713 1625 
L 3713 1100 
L 3047 1100 
L 3047 0 
L 2419 0 
L 2419 1100 
L 313 1100 
L 313 1709 
L 2253 4666 
z
" transform="scale(0.015625)"/>
       </defs>
       <use xlink:href="#DejaVuSans-31"/>
       <use xlink:href="#DejaVuSans-30" x="63.623047"/>
       <use xlink:href="#DejaVuSans-2e" x="127.246094"/>
       <use xlink:href="#DejaVuSans-38" x="159.033203"/>
       <use xlink:href="#DejaVuSans-34" x="222.65625"/>
      </g>
     </g>
    </g>
    <g id="text_6">
     <!-- $\beta$ -->
     <g transform="translate(220.70625 328.018125) scale(0.1 -0.1)">
      <defs>
       <path id="DejaVuSans-Oblique-3b2" d="M 872 216 
L 572 -1331 
L -6 -1331 
L 928 3478 
Q 1206 4903 2538 4903 
Q 3888 4903 3659 3700 
Q 3503 2844 2894 2531 
Q 3713 2250 3553 1416 
Q 3272 -69 1759 -66 
Q 1097 -63 872 216 
z
M 1019 966 
Q 1259 422 1875 425 
Q 2775 425 2966 1406 
Q 3138 2288 1675 2219 
L 1778 2750 
Q 2909 2731 3106 3750 
Q 3241 4438 2509 4434 
Q 1691 4434 1503 3459 
L 1019 966 
z
" transform="scale(0.015625)"/>
      </defs>
      <use xlink:href="#DejaVuSans-Oblique-3b2" transform="translate(0 0.390625)"/>
     </g>
    </g>
   </g>
   <g id="matplotlib.axis_2">
    <g id="ytick_1">
     <g id="line2d_6">
      <defs>
       <path id="md5d5e90cdb" d="M 0 0 
L -3.5 0 
" style="stroke: #000000; stroke-width: 0.8"/>
      </defs>
      <g>
       <use xlink:href="#md5d5e90cdb" x="56.50625" y="252.692878" style="stroke: #000000; stroke-width: 0.8"/>
      </g>
     </g>
     <g id="text_7">
      <!-- 0.434 -->
      <g transform="translate(20.878125 256.492097) scale(0.1 -0.1)">
       <defs>
        <path id="DejaVuSans-33" d="M 2597 2516 
Q 3050 2419 3304 2112 
Q 3559 1806 3559 1356 
Q 3559 666 3084 287 
Q 2609 -91 1734 -91 
Q 1441 -91 1130 -33 
Q 819 25 488 141 
L 488 750 
Q 750 597 1062 519 
Q 1375 441 1716 441 
Q 2309 441 2620 675 
Q 2931 909 2931 1356 
Q 2931 1769 2642 2001 
Q 2353 2234 1838 2234 
L 1294 2234 
L 1294 2753 
L 1863 2753 
Q 2328 2753 2575 2939 
Q 2822 3125 2822 3475 
Q 2822 3834 2567 4026 
Q 2313 4219 1838 4219 
Q 1578 4219 1281 4162 
Q 984 4106 628 3988 
L 628 4550 
Q 988 4650 1302 4700 
Q 1616 4750 1894 4750 
Q 2613 4750 3031 4423 
Q 3450 4097 3450 3541 
Q 3450 3153 3228 2886 
Q 3006 2619 2597 2516 
z
" transform="scale(0.015625)"/>
       </defs>
       <use xlink:href="#DejaVuSans-30"/>
       <use xlink:href="#DejaVuSans-2e" x="63.623047"/>
       <use xlink:href="#DejaVuSans-34" x="95.410156"/>
       <use xlink:href="#DejaVuSans-33" x="159.033203"/>
       <use xlink:href="#DejaVuSans-34" x="222.65625"/>
      </g>
     </g>
    </g>
    <g id="ytick_2">
     <g id="line2d_7">
      <g>
       <use xlink:href="#md5d5e90cdb" x="56.50625" y="194.62408" style="stroke: #000000; stroke-width: 0.8"/>
      </g>
     </g>
     <g id="text_8">
      <!-- 0.436 -->
      <g transform="translate(20.878125 198.423299) scale(0.1 -0.1)">
       <use xlink:href="#DejaVuSans-30"/>
       <use xlink:href="#DejaVuSans-2e" x="63.623047"/>
       <use xlink:href="#DejaVuSans-34" x="95.410156"/>
       <use xlink:href="#DejaVuSans-33" x="159.033203"/>
       <use xlink:href="#DejaVuSans-36" x="222.65625"/>
      </g>
     </g>
    </g>
    <g id="ytick_3">
     <g id="line2d_8">
      <g>
       <use xlink:href="#md5d5e90cdb" x="56.50625" y="136.555283" style="stroke: #000000; stroke-width: 0.8"/>
      </g>
     </g>
     <g id="text_9">
      <!-- 0.438 -->
      <g transform="translate(20.878125 140.354501) scale(0.1 -0.1)">
       <use xlink:href="#DejaVuSans-30"/>
       <use xlink:href="#DejaVuSans-2e" x="63.623047"/>
       <use xlink:href="#DejaVuSans-34" x="95.410156"/>
       <use xlink:href="#DejaVuSans-33" x="159.033203"/>
       <use xlink:href="#DejaVuSans-38" x="222.65625"/>
      </g>
     </g>
    </g>
    <g id="ytick_4">
     <g id="line2d_9">
      <g>
       <use xlink:href="#md5d5e90cdb" x="56.50625" y="78.486485" style="stroke: #000000; stroke-width: 0.8"/>
      </g>
     </g>
     <g id="text_10">
      <!-- 0.440 -->
      <g transform="translate(20.878125 82.285704) scale(0.1 -0.1)">
       <use xlink:href="#DejaVuSans-30"/>
       <use xlink:href="#DejaVuSans-2e" x="63.623047"/>
       <use xlink:href="#DejaVuSans-34" x="95.410156"/>
       <use xlink:href="#DejaVuSans-34" x="159.033203"/>
       <use xlink:href="#DejaVuSans-30" x="222.65625"/>
      </g>
     </g>
    </g>
    <g id="text_11">
     <!-- $\langle$ S $\rangle$ -->
     <g transform="translate(14.798438 171.34) rotate(-90) scale(0.1 -0.1)">
      <defs>
       <path id="DejaVuSans-27e8" d="M 572 2006 
L 1453 4856 
L 1984 4856 
L 1103 2006 
L 1984 -844 
L 1453 -844 
L 572 2006 
z
" transform="scale(0.015625)"/>
       <path id="DejaVuSans-20" transform="scale(0.015625)"/>
       <path id="DejaVuSans-53" d="M 3425 4513 
L 3425 3897 
Q 3066 4069 2747 4153 
Q 2428 4238 2131 4238 
Q 1616 4238 1336 4038 
Q 1056 3838 1056 3469 
Q 1056 3159 1242 3001 
Q 1428 2844 1947 2747 
L 2328 2669 
Q 3034 2534 3370 2195 
Q 3706 1856 3706 1288 
Q 3706 609 3251 259 
Q 2797 -91 1919 -91 
Q 1588 -91 1214 -16 
Q 841 59 441 206 
L 441 856 
Q 825 641 1194 531 
Q 1563 422 1919 422 
Q 2459 422 2753 634 
Q 3047 847 3047 1241 
Q 3047 1584 2836 1778 
Q 2625 1972 2144 2069 
L 1759 2144 
Q 1053 2284 737 2584 
Q 422 2884 422 3419 
Q 422 4038 858 4394 
Q 1294 4750 2059 4750 
Q 2388 4750 2728 4690 
Q 3069 4631 3425 4513 
z
" transform="scale(0.015625)"/>
       <path id="DejaVuSans-27e9" d="M 1925 2006 
L 1044 -844 
L 513 -844 
L 1394 2006 
L 513 4856 
L 1044 4856 
L 1925 2006 
z
" transform="scale(0.015625)"/>
      </defs>
      <use xlink:href="#DejaVuSans-27e8" transform="translate(0 0.125)"/>
      <use xlink:href="#DejaVuSans-20" transform="translate(39.013672 0.125)"/>
      <use xlink:href="#DejaVuSans-53" transform="translate(70.800781 0.125)"/>
      <use xlink:href="#DejaVuSans-20" transform="translate(134.277344 0.125)"/>
      <use xlink:href="#DejaVuSans-27e9" transform="translate(166.064453 0.125)"/>
     </g>
    </g>
   </g>
   <g id="line2d_10">
    <path d="M 71.724432 35.211599 
L 74.768068 37.675354 
L 77.811705 40.130585 
L 80.855341 42.580672 
L 83.898977 45.028818 
L 86.942614 47.477815 
L 89.98625 49.929732 
L 93.029886 52.385582 
L 96.073523 54.845058 
L 99.117159 57.306478 
L 102.160795 59.767007 
L 105.204432 62.223167 
L 108.248068 64.671542 
L 111.291705 67.109515 
L 114.335341 69.535834 
L 117.378977 71.950842 
L 120.422614 74.356279 
L 123.46625 76.754725 
L 126.509886 79.148872 
L 129.553523 81.540869 
L 132.597159 83.931954 
L 135.640795 86.322464 
L 138.684432 88.712136 
L 141.728068 91.10056 
L 144.771705 93.487613 
L 147.815341 95.873787 
L 150.858977 98.260416 
L 153.902614 100.649849 
L 156.94625 103.045685 
L 159.989886 105.453196 
L 163.033523 107.880205 
L 166.077159 110.338836 
L 169.120795 112.848733 
L 172.164432 115.442417 
L 175.208068 118.172994 
L 178.251705 121.122653 
L 181.295341 124.405713 
L 184.338977 128.151674 
L 187.382614 132.448672 
L 190.42625 137.249579 
L 193.469886 142.308646 
L 196.513523 147.251023 
L 199.557159 151.758003 
L 202.600795 155.700483 
L 205.644432 159.123458 
L 208.688068 162.152252 
L 211.731705 164.91603 
L 214.775341 167.515172 
L 217.818977 170.017304 
L 220.862614 172.464044 
L 223.90625 174.879207 
L 226.949886 177.275435 
L 229.993523 179.65892 
L 233.037159 182.032546 
L 236.080795 184.397792 
L 239.124432 186.755693 
L 242.168068 189.107092 
L 245.211705 191.452531 
L 248.255341 193.792047 
L 251.298977 196.125092 
L 254.342614 198.450642 
L 257.38625 200.767422 
L 260.429886 203.074172 
L 263.473523 205.36988 
L 266.517159 207.653952 
L 269.560795 209.926334 
L 272.604432 212.187562 
L 275.648068 214.438735 
L 278.691705 216.681425 
L 281.735341 218.917512 
L 284.778977 221.149002 
L 287.822614 223.377844 
L 290.86625 225.605788 
L 293.909886 227.83428 
L 296.953523 230.064405 
L 299.997159 232.296849 
L 303.040795 234.531858 
L 306.084432 236.769194 
L 309.128068 239.008081 
L 312.171705 241.247174 
L 315.215341 243.484603 
L 318.258977 245.7181 
L 321.302614 247.945234 
L 324.34625 250.163711 
L 327.389886 252.371721 
L 330.433523 254.568243 
L 333.477159 256.753276 
L 336.520795 258.92792 
L 339.564432 261.094274 
L 342.608068 263.255134 
L 345.651705 265.413526 
L 348.695341 267.572142 
L 351.738977 269.732833 
L 354.782614 271.896267 
L 357.82625 274.061892 
L 360.869886 276.228209 
L 363.913523 278.393283 
L 366.957159 280.555321 
L 370.000795 282.713161 
L 373.044432 284.866553 
L 376.088068 287.0162 
" clip-path="url(#pf84fd132fa)" style="fill: none; stroke-dasharray: 1.5,2.475; stroke-dashoffset: 0; stroke: #1f77b4; stroke-width: 1.5"/>
   </g>
   <g id="line2d_11">
    <path d="M 71.724432 35.197801 
L 74.768068 37.665804 
L 77.811705 40.122933 
L 80.855341 42.571977 
L 83.898977 45.016453 
L 86.942614 47.460275 
L 89.98625 49.906962 
L 93.029886 52.358746 
L 96.073523 54.815906 
L 99.117159 57.276607 
L 102.160795 59.737328 
L 105.204432 62.193776 
L 108.248068 64.641984 
L 111.291705 67.079254 
L 114.335341 69.504675 
L 117.378977 71.919091 
L 120.422614 74.324635 
L 123.46625 76.724005 
L 126.509886 79.119755 
L 129.553523 81.513797 
L 132.597159 83.907212 
L 135.640795 86.300358 
L 138.684432 88.693151 
L 141.728068 91.085417 
L 144.771705 93.477195 
L 147.815341 95.869002 
L 150.858977 98.262045 
L 153.902614 100.658433 
L 156.94625 103.061415 
L 159.989886 105.475763 
L 163.033523 107.908542 
L 166.077159 110.370752 
L 169.120795 112.880564 
L 172.164432 115.469033 
L 175.208068 118.188804 
L 178.251705 121.124504 
L 181.295341 124.398375 
L 184.338977 128.154689 
L 187.382614 132.498493 
L 190.42625 137.38695 
L 193.469886 142.551137 
L 196.513523 147.574703 
L 199.557159 152.110998 
L 202.600795 156.033483 
L 205.644432 159.407924 
L 208.688068 162.380314 
L 211.731705 165.09251 
L 214.775341 167.650105 
L 217.818977 170.121332 
L 220.862614 172.546257 
L 223.90625 174.946492 
L 226.949886 177.332608 
L 229.993523 179.709188 
L 233.037159 182.078031 
L 236.080795 184.439982 
L 239.124432 186.795738 
L 242.168068 189.145971 
L 245.211705 191.491097 
L 248.255341 193.830989 
L 251.298977 196.164863 
L 254.342614 198.491374 
L 257.38625 200.808885 
L 260.429886 203.115811 
L 263.473523 205.410958 
L 266.517159 207.693775 
L 269.560795 209.964511 
L 272.604432 212.224215 
L 275.648068 214.474597 
L 278.691705 216.717761 
L 281.735341 218.955885 
L 284.778977 221.190916 
L 287.822614 223.42437 
L 290.86625 225.657261 
L 293.909886 227.89018 
L 296.953523 230.123442 
L 299.997159 232.357233 
L 303.040795 234.59167 
L 306.084432 236.826739 
L 309.128068 239.062136 
L 312.171705 241.297094 
L 315.215341 243.530274 
L 318.258977 245.759802 
L 321.302614 247.983451 
L 324.34625 250.198968 
L 327.389886 252.404467 
L 330.433523 254.598823 
L 333.477159 256.78197 
L 336.520795 258.955013 
L 339.564432 261.120112 
L 342.608068 263.280119 
L 345.651705 265.438034 
L 348.695341 267.596401 
L 351.738977 269.756801 
L 354.782614 271.919594 
L 357.82625 274.084006 
L 360.869886 276.248516 
L 363.913523 278.411425 
L 366.957159 280.571387 
L 370.000795 282.727738 
L 373.044432 284.880521 
L 376.088068 287.03028 
" clip-path="url(#pf84fd132fa)" style="fill: none; stroke-dasharray: 1.5,2.475; stroke-dashoffset: 0; stroke: #ff7f0e; stroke-width: 1.5"/>
   </g>
   <g id="line2d_12">
    <path d="M 71.724432 35.233344 
L 74.768068 37.688212 
L 77.811705 40.134538 
L 80.855341 42.575233 
L 83.898977 45.013865 
L 86.942614 47.454009 
L 89.98625 49.898507 
L 93.029886 52.348834 
L 96.073523 54.804733 
L 99.117159 57.264238 
L 102.160795 59.724082 
L 105.204432 62.180417 
L 108.248068 64.629657 
L 111.291705 67.069237 
L 114.335341 69.498078 
L 117.378977 71.916655 
L 120.422614 74.326652 
L 123.46625 76.730342 
L 126.509886 79.129903 
L 129.553523 81.526902 
L 132.597159 83.922096 
L 135.640795 86.31557 
L 138.684432 88.70709 
L 141.728068 91.096513 
L 144.771705 93.484127 
L 147.815341 95.870902 
L 150.858977 98.258681 
L 153.902614 100.650431 
L 156.94625 103.050634 
L 159.989886 105.465985 
L 163.033523 107.906658 
L 166.077159 110.388637 
L 169.120795 112.937744 
L 172.164432 115.595961 
L 175.208068 118.429622 
L 178.251705 121.536074 
L 181.295341 125.038906 
L 184.338977 129.05371 
L 187.382614 133.61109 
L 190.42625 138.567661 
L 193.469886 143.600488 
L 196.513523 148.345277 
L 199.557159 152.573605 
L 202.600795 156.251424 
L 205.644432 159.472634 
L 208.688068 162.368139 
L 211.731705 165.052378 
L 214.775341 167.607566 
L 217.818977 170.086633 
L 220.862614 172.521267 
L 223.90625 174.929347 
L 226.949886 177.320416 
L 229.993523 179.69939 
L 233.037159 182.068943 
L 236.080795 184.430886 
L 239.124432 186.786754 
L 242.168068 189.137819 
L 245.211705 191.484801 
L 248.255341 193.827559 
L 251.298977 196.165005 
L 254.342614 198.495289 
L 257.38625 200.816226 
L 260.429886 203.125805 
L 263.473523 205.422654 
L 266.517159 207.706341 
L 269.560795 209.977465 
L 272.604432 212.23753 
L 275.648068 214.488646 
L 278.691705 216.733117 
L 281.735341 218.97303 
L 284.778977 221.209947 
L 287.822614 223.44478 
L 290.86625 225.677888 
L 293.909886 227.909335 
L 296.953523 230.139213 
L 299.997159 232.367867 
L 303.040795 234.59592 
L 306.084432 236.824086 
L 309.128068 239.052823 
L 312.171705 241.281997 
L 315.215341 243.510682 
L 318.258977 245.73718 
L 321.302614 247.959275 
L 324.34625 250.174625 
L 327.389886 252.381208 
L 330.433523 254.577719 
L 333.477159 256.763841 
L 336.520795 258.940342 
L 339.564432 261.108966 
L 342.608068 263.272123 
L 345.651705 265.432418 
L 348.695341 267.592113 
L 351.738977 269.752656 
L 354.782614 271.914427 
L 357.82625 274.076799 
L 360.869886 276.238495 
L 363.913523 278.39812 
L 366.957159 280.554669 
L 370.000795 282.707836 
L 373.044432 284.858051 
L 376.088068 287.006275 
" clip-path="url(#pf84fd132fa)" style="fill: none; stroke-dasharray: 1.5,2.475; stroke-dashoffset: 0; stroke: #2ca02c; stroke-width: 1.5"/>
   </g>
   <g id="line2d_13">
    <path d="M 71.724432 35.194129 
L 74.768068 37.673029 
L 77.811705 40.13858 
L 80.855341 42.594396 
L 83.898977 45.044887 
L 86.942614 47.494484 
L 89.98625 49.946732 
L 93.029886 52.403556 
L 96.073523 54.864872 
L 99.117159 57.328667 
L 102.160795 59.791499 
L 105.204432 62.249314 
L 108.248068 64.698342 
L 111.291705 67.135897 
L 114.335341 69.560862 
L 117.378977 71.973792 
L 120.422614 74.376619 
L 123.46625 76.77207 
L 126.509886 79.16298 
L 129.553523 81.551716 
L 132.597159 83.939822 
L 135.640795 86.327976 
L 138.684432 88.71618 
L 141.728068 91.104092 
L 144.771705 93.491398 
L 147.815341 95.878168 
L 150.858977 98.265179 
L 153.902614 100.654219 
L 156.94625 103.048448 
L 159.989886 105.452942 
L 163.033523 107.875729 
L 166.077159 110.329821 
L 169.120795 112.836951 
L 172.164432 115.433705 
L 175.208068 118.180154 
L 178.251705 121.16874 
L 181.295341 124.52545 
L 184.338977 128.385804 
L 187.382614 132.825177 
L 190.42625 137.755754 
L 193.469886 142.879274 
L 196.513523 147.796495 
L 199.557159 152.211356 
L 202.600795 156.039239 
L 205.644432 159.358738 
L 208.688068 162.308418 
L 211.731705 165.017143 
L 214.775341 167.579867 
L 217.818977 170.05838 
L 220.862614 172.489766 
L 223.90625 174.894836 
L 226.949886 177.284477 
L 229.993523 179.663967 
L 233.037159 182.035742 
L 236.080795 184.401024 
L 239.124432 186.76058 
L 242.168068 189.114905 
L 245.211705 191.464093 
L 248.255341 193.807687 
L 251.298977 196.144658 
L 254.342614 198.473551 
L 257.38625 200.792756 
L 260.429886 203.100804 
L 263.473523 205.396641 
L 266.517159 207.679839 
L 269.560795 209.950721 
L 272.604432 212.210378 
L 275.648068 214.460551 
L 278.691705 216.703385 
L 281.735341 218.941108 
L 284.778977 221.175718 
L 287.822614 223.408762 
L 290.86625 225.641255 
L 293.909886 227.873768 
L 296.953523 230.106603 
L 299.997159 232.339978 
L 303.040795 234.574113 
L 306.084432 236.809172 
L 309.128068 239.045069 
L 312.171705 241.281241 
L 315.215341 243.51647 
L 318.258977 245.748858 
L 321.302614 247.975987 
L 324.34625 250.195245 
L 327.389886 252.404259 
L 330.433523 254.601367 
L 333.477159 256.786022 
L 336.520795 258.959038 
L 339.564432 261.122586 
L 342.608068 263.279896 
L 345.651705 265.434669 
L 348.695341 267.590318 
L 351.738977 269.7492 
L 354.782614 271.912087 
L 357.82625 274.078041 
L 360.869886 276.244765 
L 363.913523 278.409322 
L 366.957159 280.568965 
L 370.000795 282.721813 
L 373.044432 284.867172 
L 376.088068 287.005478 
" clip-path="url(#pf84fd132fa)" style="fill: none; stroke-dasharray: 1.5,2.475; stroke-dashoffset: 0; stroke: #d62728; stroke-width: 1.5"/>
   </g>
   <g id="line2d_14">
    <path d="M 71.724432 35.170299 
L 74.768068 37.652421 
L 77.811705 40.126625 
L 80.855341 42.59386 
L 83.898977 45.054752 
L 86.942614 47.509719 
L 89.98625 49.959043 
L 93.029886 52.402946 
L 96.073523 54.841678 
L 99.117159 57.275582 
L 102.160795 59.70513 
L 105.204432 62.130926 
L 108.248068 64.553665 
L 111.291705 66.974047 
L 114.335341 69.39268 
L 117.378977 71.809988 
L 120.422614 74.226155 
L 123.46625 76.641149 
L 126.509886 79.05479 
L 129.553523 81.466845 
L 132.597159 83.877113 
L 135.640795 86.285477 
L 138.684432 88.691946 
L 141.728068 91.096715 
L 144.771705 93.500291 
L 147.815341 95.903677 
L 150.858977 98.308604 
L 153.902614 100.717828 
L 156.94625 103.135518 
L 159.989886 105.567938 
L 163.033523 108.024702 
L 166.077159 110.521085 
L 169.120795 113.081955 
L 172.164432 115.747772 
L 175.208068 118.582211 
L 178.251705 121.678258 
L 181.295341 125.153713 
L 184.338977 129.119589 
L 187.382614 133.608821 
L 190.42625 138.491998 
L 193.469886 143.466942 
L 196.513523 148.182774 
L 199.557159 152.409393 
L 202.600795 156.10234 
L 205.644432 159.34589 
L 208.688068 162.265496 
L 211.731705 164.973019 
L 214.775341 167.54906 
L 217.818977 170.045122 
L 220.862614 172.49184 
L 223.90625 174.90687 
L 226.949886 177.300529 
L 229.993523 179.679175 
L 233.037159 182.046928 
L 236.080795 184.40641 
L 239.124432 186.759048 
L 242.168068 189.105296 
L 245.211705 191.444913 
L 248.255341 193.777327 
L 251.298977 196.101995 
L 254.342614 198.418669 
L 257.38625 200.727515 
L 260.429886 203.029073 
L 263.473523 205.324086 
L 266.517159 207.613294 
L 269.560795 209.89723 
L 272.604432 212.176085 
L 275.648068 214.449675 
L 278.691705 216.717489 
L 281.735341 218.978823 
L 284.778977 221.232965 
L 287.822614 223.4794 
L 290.86625 225.717999 
L 293.909886 227.949129 
L 296.953523 230.173659 
L 299.997159 232.392837 
L 303.040795 234.608066 
L 306.084432 236.820634 
L 309.128068 239.03149 
L 312.171705 241.241128 
L 315.215341 243.449594 
L 318.258977 245.656594 
L 321.302614 247.861649 
L 324.34625 250.064225 
L 327.389886 252.263823 
L 330.433523 254.460022 
L 333.477159 256.652514 
L 336.520795 258.841141 
L 339.564432 261.025949 
L 342.608068 263.207214 
L 345.651705 265.385428 
L 348.695341 267.561201 
L 351.738977 269.735115 
L 354.782614 271.907549 
L 357.82625 274.078552 
L 360.869886 276.247796 
L 363.913523 278.414613 
L 366.957159 280.57812 
L 370.000795 282.737371 
L 373.044432 284.891526 
L 376.088068 287.04 
" clip-path="url(#pf84fd132fa)" style="fill: none; stroke-dasharray: 1.5,2.475; stroke-dashoffset: 0; stroke: #9467bd; stroke-width: 1.5"/>
   </g>
   <g id="line2d_15">
    <path d="M 71.724432 35.201434 
L 74.768068 37.670964 
L 77.811705 40.130652 
L 80.855341 42.583228 
L 83.898977 45.031755 
L 86.942614 47.47926 
L 89.98625 49.928195 
L 93.029886 52.379933 
L 96.073523 54.83445 
L 99.117159 57.290314 
L 102.160795 59.745009 
L 105.204432 62.19552 
L 108.248068 64.639038 
L 111.291705 67.07359 
L 114.335341 69.498426 
L 117.378977 71.914073 
L 120.422614 74.322068 
L 123.46625 76.724458 
L 126.509886 79.12326 
L 129.553523 81.520026 
L 132.597159 83.915639 
L 135.640795 86.310369 
L 138.684432 88.704101 
L 141.728068 91.096659 
L 144.771705 93.488125 
L 147.815341 95.879107 
L 150.858977 98.270985 
L 153.902614 100.666152 
L 156.94625 103.06834 
L 159.989886 105.483165 
L 163.033523 107.919167 
L 166.077159 110.389826 
L 169.120795 112.917189 
L 172.164432 115.537778 
L 175.208068 118.310757 
L 178.251705 121.326046 
L 181.295341 124.704431 
L 184.338977 128.573093 
L 187.382614 132.99845 
L 190.42625 137.890388 
L 193.469886 142.961297 
L 196.513523 147.830054 
L 199.557159 152.212671 
L 202.600795 156.025394 
L 205.644432 159.341729 
L 208.688068 162.294924 
L 211.731705 165.010216 
L 214.775341 167.580354 
L 217.818977 170.065754 
L 220.862614 172.502635 
L 223.90625 174.91135 
L 226.949886 177.302693 
L 229.993523 179.682128 
L 233.037159 182.052438 
L 236.080795 184.415219 
L 239.124432 186.771563 
L 242.168068 189.122217 
L 245.211705 191.467487 
L 248.255341 193.807122 
L 251.298977 196.140323 
L 254.342614 198.465905 
L 257.38625 200.782561 
L 260.429886 203.089133 
L 263.473523 205.384844 
L 266.517159 207.66944 
L 269.560795 209.943252 
L 272.604432 212.207154 
L 275.648068 214.462441 
L 278.691705 216.710635 
L 281.735341 218.953272 
L 284.778977 221.19171 
L 287.822614 223.427031 
L 290.86625 225.660038 
L 293.909886 227.891338 
L 296.953523 230.121464 
L 299.997159 232.350953 
L 303.040795 234.580325 
L 306.084432 236.809965 
L 309.128068 239.03992 
L 312.171705 241.269727 
L 315.215341 243.498324 
L 318.258977 245.724107 
L 321.302614 247.945119 
L 324.34625 250.159355 
L 327.389886 252.365096 
L 330.433523 254.561235 
L 333.477159 256.747525 
L 336.520795 258.924691 
L 339.564432 261.094377 
L 342.608068 263.258897 
L 345.651705 265.420815 
L 348.695341 267.582435 
L 351.738977 269.745321 
L 354.782614 271.909985 
L 357.82625 274.075858 
L 360.869886 276.241556 
L 363.913523 278.405352 
L 366.957159 280.565692 
L 370.000795 282.721584 
L 373.044432 284.872764 
L 376.088068 287.019647 
" clip-path="url(#pf84fd132fa)" style="fill: none; stroke: #8c564b; stroke-width: 1.5; stroke-linecap: square"/>
   </g>
   <g id="line2d_16">
    <path d="M 71.724432 35.097476 
L 74.768068 37.62379 
L 77.811705 40.130543 
L 80.855341 42.620691 
L 83.898977 45.098959 
L 86.942614 47.569745 
L 89.98625 50.035634 
L 93.029886 52.496852 
L 96.073523 54.951637 
L 99.117159 57.397274 
L 102.160795 59.831356 
L 105.204432 62.252817 
L 108.248068 64.662357 
L 111.291705 67.062187 
L 114.335341 69.455288 
L 117.378977 71.844596 
L 120.422614 74.232462 
L 123.46625 76.620564 
L 126.509886 79.01015 
L 129.553523 81.402324 
L 132.597159 83.798123 
L 135.640795 86.1983 
L 138.684432 88.602952 
L 141.728068 91.011267 
L 144.771705 93.421569 
L 147.815341 95.83171 
L 150.858977 98.239644 
L 153.902614 100.643921 
L 156.94625 103.04392 
L 159.989886 105.439762 
L 163.033523 107.832006 
L 166.077159 110.221329 
L 169.120795 112.608291 
L 172.164432 114.993268 
L 175.208068 117.376486 
L 178.251705 119.758124 
L 181.295341 122.138463 
L 184.338977 124.5181 
L 187.382614 126.898228 
L 190.42625 129.28091 
L 193.469886 131.669226 
L 196.513523 134.067166 
L 199.557159 136.479292 
L 202.600795 138.910329 
L 205.644432 141.364972 
L 208.688068 143.848143 
L 211.731705 146.365717 
L 214.775341 148.925442 
L 217.818977 151.537548 
L 220.862614 154.214473 
L 223.90625 156.969256 
L 226.949886 159.812511 
L 229.993523 162.748417 
L 233.037159 165.770866 
L 236.080795 168.861484 
L 239.124432 171.991082 
L 242.168068 175.124875 
L 245.211705 178.229803 
L 248.255341 181.280949 
L 251.298977 184.264479 
L 254.342614 187.176508 
L 257.38625 190.019331 
L 260.429886 192.797306 
L 263.473523 195.514173 
L 266.517159 198.172401 
L 269.560795 200.774055 
L 272.604432 203.322144 
L 275.648068 205.821523 
L 278.691705 208.278925 
L 281.735341 210.702185 
L 284.778977 213.099085 
L 287.822614 215.476286 
L 290.86625 217.838699 
L 293.909886 220.189422 
L 296.953523 222.530129 
L 299.997159 224.861677 
L 303.040795 227.184616 
L 306.084432 229.499454 
L 309.128068 231.806627 
L 312.171705 234.106301 
L 315.215341 236.398225 
L 318.258977 238.681751 
L 321.302614 240.956114 
L 324.34625 243.220858 
L 327.389886 245.476232 
L 330.433523 247.723357 
L 333.477159 249.964052 
L 336.520795 252.200369 
L 339.564432 254.434034 
L 342.608068 256.666027 
L 345.651705 258.896488 
L 348.695341 261.124934 
L 351.738977 263.350655 
L 354.782614 265.573044 
L 357.82625 267.791746 
L 360.869886 270.00659 
L 363.913523 272.217427 
L 366.957159 274.424011 
L 370.000795 276.625994 
L 373.044432 278.82302 
L 376.088068 281.014815 
" clip-path="url(#pf84fd132fa)" style="fill: none; stroke-dasharray: 1.5,2.475; stroke-dashoffset: 0; stroke: #e377c2; stroke-width: 1.5"/>
   </g>
   <g id="line2d_17">
    <path d="M 71.724432 35.086421 
L 74.768068 37.621868 
L 77.811705 40.137938 
L 80.855341 42.637542 
L 83.898977 45.12532 
L 86.942614 47.60532 
L 89.98625 50.07955 
L 93.029886 52.547628 
L 96.073523 55.0074 
L 99.117159 57.456146 
L 102.160795 59.891855 
L 105.204432 62.314109 
L 108.248068 64.724255 
L 111.291705 67.124918 
L 114.335341 69.519126 
L 117.378977 71.909501 
L 120.422614 74.29785 
L 123.46625 76.68526 
L 126.509886 79.072505 
L 129.553523 81.460434 
L 132.597159 83.850068 
L 135.640795 86.242353 
L 138.684432 88.637739 
L 141.728068 91.035865 
L 144.771705 93.435576 
L 147.815341 95.835281 
L 150.858977 98.233487 
L 153.902614 100.629266 
L 156.94625 103.022438 
L 159.989886 105.413456 
L 163.033523 107.803082 
L 166.077159 110.192039 
L 169.120795 112.58077 
L 172.164432 114.969356 
L 175.208068 117.35756 
L 178.251705 119.744978 
L 181.295341 122.131282 
L 184.338977 124.516568 
L 187.382614 126.901772 
L 190.42625 129.289061 
L 193.469886 131.682009 
L 196.513523 134.085449 
L 199.557159 136.505006 
L 202.600795 138.946482 
L 205.644432 141.415413 
L 208.688068 143.917045 
L 211.731705 146.456824 
L 214.775341 149.041148 
L 217.818977 151.677947 
L 220.862614 154.376549 
L 223.90625 157.146435 
L 226.949886 159.9948 
L 229.993523 162.923342 
L 233.037159 165.925225 
L 236.080795 168.983607 
L 239.124432 172.072973 
L 242.168068 175.163524 
L 245.211705 178.227297 
L 248.255341 181.243532 
L 251.298977 184.201109 
L 254.342614 187.097412 
L 257.38625 189.934803 
L 260.429886 192.716744 
L 263.473523 195.445308 
L 266.517159 198.120716 
L 269.560795 200.742496 
L 272.604432 203.311196 
L 275.648068 205.829654 
L 278.691705 208.303248 
L 281.735341 210.739174 
L 284.778977 213.145137 
L 287.822614 215.528028 
L 290.86625 217.893039 
L 293.909886 220.243442 
L 296.953523 222.58098 
L 299.997159 224.906581 
L 303.040795 227.221051 
L 306.084432 229.525455 
L 309.128068 231.821124 
L 312.171705 234.109367 
L 315.215341 236.391138 
L 318.258977 238.666846 
L 321.302614 240.936436 
L 324.34625 243.199684 
L 327.389886 245.456576 
L 330.433523 247.707534 
L 333.477159 249.953413 
L 336.520795 252.195235 
L 339.564432 254.433849 
L 342.608068 256.669698 
L 345.651705 258.902805 
L 348.695341 261.132989 
L 351.738977 263.360126 
L 354.782614 265.584309 
L 357.82625 267.805809 
L 360.869886 270.024873 
L 363.913523 272.241522 
L 366.957159 274.455446 
L 370.000795 276.666092 
L 373.044432 278.872869 
L 376.088068 281.075402 
" clip-path="url(#pf84fd132fa)" style="fill: none; stroke-dasharray: 1.5,2.475; stroke-dashoffset: 0; stroke: #7f7f7f; stroke-width: 1.5"/>
   </g>
   <g id="line2d_18">
    <path d="M 71.724432 35.060954 
L 74.768068 37.596802 
L 77.811705 40.114359 
L 80.855341 42.615325 
L 83.898977 45.103072 
L 86.942614 47.580842 
L 89.98625 50.050532 
L 93.029886 52.512334 
L 96.073523 54.965175 
L 99.117159 57.407622 
L 102.160795 59.838853 
L 105.204432 62.259265 
L 108.248068 64.670503 
L 111.291705 67.074944 
L 114.335341 69.474924 
L 117.378977 71.872122 
L 120.422614 74.267386 
L 123.46625 76.661025 
L 126.509886 79.05335 
L 129.553523 81.44508 
L 132.597159 83.837379 
L 135.640795 86.231494 
L 138.684432 88.628231 
L 141.728068 91.027573 
L 144.771705 93.428663 
L 147.815341 95.830143 
L 150.858977 98.230686 
L 153.902614 100.629447 
L 156.94625 103.02622 
L 159.989886 105.421306 
L 163.033523 107.815165 
L 166.077159 110.20808 
L 169.120795 112.59995 
L 172.164432 114.990285 
L 175.208068 117.378345 
L 178.251705 119.763379 
L 181.295341 122.144905 
L 184.338977 124.523034 
L 187.382614 126.89881 
L 190.42625 129.274488 
L 193.469886 131.653651 
L 196.513523 134.041066 
L 199.557159 136.44231 
L 202.600795 138.86334 
L 205.644432 141.31027 
L 208.688068 143.789547 
L 211.731705 146.308517 
L 214.775341 148.876085 
L 217.818977 151.502989 
L 220.862614 154.201163 
L 223.90625 156.981905 
L 226.949886 159.852933 
L 229.993523 162.814922 
L 233.037159 165.85866 
L 236.080795 168.964217 
L 239.124432 172.1031 
L 242.168068 175.243209 
L 245.211705 178.354907 
L 248.255341 181.415825 
L 251.298977 184.412642 
L 254.342614 187.339778 
L 257.38625 190.196367 
L 260.429886 192.983351 
L 263.473523 195.701918 
L 266.517159 198.353497 
L 269.560795 200.940651 
L 272.604432 203.46801 
L 275.648068 205.942559 
L 278.691705 208.373123 
L 281.735341 210.769258 
L 284.778977 213.139979 
L 287.822614 215.492732 
L 290.86625 217.832897 
L 293.909886 220.16389 
L 296.953523 222.487698 
L 299.997159 224.805566 
L 303.040795 227.118505 
L 306.084432 229.427451 
L 309.128068 231.733087 
L 312.171705 234.035514 
L 315.215341 236.33403 
L 318.258977 238.627201 
L 321.302614 240.913263 
L 324.34625 243.190704 
L 327.389886 245.458775 
L 330.433523 247.717708 
L 333.477159 249.968526 
L 336.520795 252.212559 
L 339.564432 254.450897 
L 342.608068 256.68407 
L 345.651705 258.912084 
L 348.695341 261.134751 
L 351.738977 263.352096 
L 354.782614 265.564581 
L 357.82625 267.773024 
L 360.869886 269.978285 
L 363.913523 272.180911 
L 366.957159 274.38093 
L 370.000795 276.577905 
L 373.044432 278.771184 
L 376.088068 280.960204 
" clip-path="url(#pf84fd132fa)" style="fill: none; stroke-dasharray: 1.5,2.475; stroke-dashoffset: 0; stroke: #bcbd22; stroke-width: 1.5"/>
   </g>
   <g id="line2d_19">
    <path d="M 71.724432 35.04 
L 74.768068 37.578183 
L 77.811705 40.100651 
L 80.855341 42.608257 
L 83.898977 45.103843 
L 86.942614 47.590104 
L 89.98625 50.068256 
L 93.029886 52.537713 
L 96.073523 54.996649 
L 99.117159 57.443032 
L 102.160795 59.875682 
L 105.204432 62.294926 
L 108.248068 64.702633 
L 111.291705 67.101661 
L 114.335341 69.49502 
L 117.378977 71.885143 
L 120.422614 74.273599 
L 123.46625 76.661291 
L 126.509886 79.04894 
L 129.553523 81.437506 
L 132.597159 83.828253 
L 135.640795 86.222411 
L 138.684432 88.620659 
L 141.728068 91.022715 
L 144.771705 93.427306 
L 147.815341 95.832541 
L 150.858977 98.236518 
L 153.902614 100.637883 
L 156.94625 103.036091 
L 159.989886 105.431311 
L 163.033523 107.824086 
L 166.077159 110.214935 
L 169.120795 112.604098 
L 172.164432 114.991483 
L 175.208068 117.376789 
L 178.251705 119.759741 
L 181.295341 122.140357 
L 184.338977 124.519231 
L 187.382614 126.897797 
L 190.42625 129.278544 
L 193.469886 131.665068 
L 196.513523 134.061898 
L 199.557159 136.474123 
L 202.600795 138.906963 
L 205.644432 141.365568 
L 208.688068 143.855229 
L 211.731705 146.382032 
L 214.775341 148.95369 
L 217.818977 151.580049 
L 220.862614 154.272706 
L 223.90625 157.043319 
L 226.949886 159.900526 
L 229.993523 162.846022 
L 233.037159 165.871042 
L 236.080795 168.955025 
L 239.124432 172.067908 
L 242.168068 175.176015 
L 245.211705 178.249474 
L 248.255341 181.267979 
L 251.298977 184.222578 
L 254.342614 187.11335 
L 257.38625 189.944802 
L 260.429886 192.721482 
L 263.473523 195.445557 
L 266.517159 198.116793 
L 269.560795 200.734211 
L 272.604432 203.298134 
L 275.648068 205.811535 
L 278.691705 208.280176 
L 281.735341 210.711677 
L 284.778977 213.114056 
L 287.822614 215.494335 
L 290.86625 217.85769 
L 293.909886 220.207315 
L 296.953523 222.544909 
L 299.997159 224.871455 
L 303.040795 227.187899 
L 306.084432 229.495467 
L 309.128068 231.795542 
L 312.171705 234.089268 
L 315.215341 236.377147 
L 318.258977 238.658896 
L 321.302614 240.933673 
L 324.34625 243.200581 
L 327.389886 245.459239 
L 330.433523 247.710107 
L 333.477159 249.954425 
L 336.520795 252.193783 
L 339.564432 254.429553 
L 342.608068 256.662473 
L 345.651705 258.892575 
L 348.695341 261.119465 
L 351.738977 263.342737 
L 354.782614 265.562291 
L 357.82625 267.778382 
L 360.869886 269.991433 
L 363.913523 272.201766 
L 366.957159 274.409452 
L 370.000795 276.614361 
L 373.044432 278.816363 
L 376.088068 281.015516 
" clip-path="url(#pf84fd132fa)" style="fill: none; stroke-dasharray: 1.5,2.475; stroke-dashoffset: 0; stroke: #17becf; stroke-width: 1.5"/>
   </g>
   <g id="line2d_20">
    <path d="M 71.724432 35.204414 
L 74.768068 37.664027 
L 77.811705 40.118282 
L 80.855341 42.570022 
L 83.898977 45.021134 
L 86.942614 47.472624 
L 89.98625 49.92463 
L 93.029886 52.376474 
L 96.073523 54.826854 
L 99.117159 57.274163 
L 102.160795 59.71686 
L 105.204432 62.153803 
L 108.248068 64.58444 
L 111.291705 67.008842 
L 114.335341 69.427577 
L 117.378977 71.841499 
L 120.422614 74.251528 
L 123.46625 76.658477 
L 126.509886 79.062968 
L 129.553523 81.465425 
L 132.597159 83.866092 
L 135.640795 86.265052 
L 138.684432 88.662225 
L 141.728068 91.057371 
L 144.771705 93.450144 
L 147.815341 95.840215 
L 150.858977 98.227438 
L 153.902614 100.612 
L 156.94625 102.994483 
L 159.989886 105.375812 
L 163.033523 107.757077 
L 166.077159 110.139307 
L 169.120795 112.523253 
L 172.164432 114.909247 
L 175.208068 117.297191 
L 178.251705 119.686689 
L 181.295341 122.0773 
L 184.338977 124.468882 
L 187.382614 126.861912 
L 190.42625 129.257737 
L 193.469886 131.65867 
L 196.513523 134.067958 
L 199.557159 136.489663 
L 202.600795 138.928574 
L 205.644432 141.390235 
L 208.688068 143.88115 
L 211.731705 146.409068 
L 214.775341 148.983186 
L 217.818977 151.613984 
L 220.862614 154.312407 
L 223.90625 157.08822 
L 226.949886 159.947614 
L 229.993523 162.890503 
L 233.037159 165.908365 
L 236.080795 168.983635 
L 239.124432 172.091346 
L 242.168068 175.202863 
L 245.211705 178.290569 
L 248.255341 181.331911 
L 251.298977 184.311569 
L 254.342614 187.221522 
L 257.38625 190.059623 
L 260.429886 192.827661 
L 263.473523 195.529669 
L 266.517159 198.170815 
L 269.560795 200.756827 
L 272.604432 203.29372 
L 275.648068 205.787607 
L 278.691705 208.244488 
L 281.735341 210.670029 
L 284.778977 213.069392 
L 287.822614 215.447168 
L 290.86625 217.807395 
L 293.909886 220.153594 
L 296.953523 222.488763 
L 299.997159 224.815297 
L 303.040795 227.134881 
L 306.084432 229.448448 
L 309.128068 231.756235 
L 312.171705 234.057975 
L 315.215341 236.353149 
L 318.258977 238.641219 
L 321.302614 240.921792 
L 324.34625 243.194674 
L 327.389886 245.459865 
L 330.433523 247.717516 
L 333.477159 249.967883 
L 336.520795 252.211302 
L 339.564432 254.44817 
L 342.608068 256.678933 
L 345.651705 258.90408 
L 348.695341 261.124146 
L 351.738977 263.339727 
L 354.782614 265.551504 
L 357.82625 267.760255 
L 360.869886 269.966858 
L 363.913523 272.172252 
L 366.957159 274.377349 
L 370.000795 276.582879 
L 373.044432 278.789183 
L 376.088068 280.995998 
" clip-path="url(#pf84fd132fa)" style="fill: none; stroke-dasharray: 1.5,2.475; stroke-dashoffset: 0; stroke: #1f77b4; stroke-width: 1.5"/>
   </g>
   <g id="line2d_21">
    <path d="M 71.724432 35.097853 
L 74.768068 37.616934 
L 77.811705 40.120355 
L 80.855341 42.610367 
L 83.898977 45.090466 
L 86.942614 47.563727 
L 89.98625 50.03172 
L 93.029886 52.4942 
L 96.073523 54.949543 
L 99.117159 57.395647 
L 102.160795 59.830921 
L 105.204432 62.254984 
L 108.248068 64.668838 
L 111.291705 67.07451 
L 114.335341 69.474387 
L 117.378977 71.870572 
L 120.422614 74.264565 
L 123.46625 76.657323 
L 126.509886 79.049583 
L 129.553523 81.442154 
L 132.597159 83.835983 
L 135.640795 86.231922 
L 138.684432 88.630361 
L 141.728068 91.030958 
L 144.771705 93.432652 
L 147.815341 95.833978 
L 150.858977 98.233555 
L 153.902614 100.630503 
L 156.94625 103.024631 
L 159.989886 105.41633 
L 163.033523 107.806283 
L 166.077159 110.195138 
L 169.120795 112.583272 
L 172.164432 114.970728 
L 175.208068 117.357274 
L 178.251705 119.742582 
L 181.295341 122.126462 
L 184.338977 124.509163 
L 187.382614 126.891704 
L 190.42625 129.276148 
L 193.469886 131.665725 
L 196.513523 134.064707 
L 199.557159 136.478079 
L 202.600795 138.911138 
L 205.644432 141.369292 
L 208.688068 143.858223 
L 211.731705 146.384432 
L 214.775341 148.95591 
L 217.818977 151.582503 
L 220.862614 154.27546 
L 223.90625 157.045827 
L 226.949886 159.901677 
L 229.993523 162.844641 
L 233.037159 165.866832 
L 236.080795 168.949594 
L 239.124432 172.065282 
L 242.168068 175.182097 
L 245.211705 178.27041 
L 248.255341 181.308039 
L 251.298977 184.282476 
L 254.342614 187.189714 
L 257.38625 190.030985 
L 260.429886 192.809309 
L 263.473523 195.527325 
L 266.517159 198.186844 
L 269.560795 200.789648 
L 272.604432 203.338641 
L 275.648068 205.838576 
L 278.691705 208.295992 
L 281.735341 210.718464 
L 284.778977 213.11353 
L 287.822614 215.48771 
L 290.86625 217.845944 
L 293.909886 220.191533 
L 296.953523 222.526496 
L 299.997159 224.852115 
L 303.040795 227.16939 
L 306.084432 229.479255 
L 309.128068 231.782523 
L 312.171705 234.079685 
L 315.215341 236.370738 
L 318.258977 238.655183 
L 321.302614 240.932255 
L 324.34625 243.2013 
L 327.389886 245.462137 
L 330.433523 247.715244 
L 333.477159 249.96166 
L 336.520795 252.20265 
L 339.564432 254.439301 
L 342.608068 256.67224 
L 345.651705 258.901606 
L 348.695341 261.127257 
L 351.738977 263.349068 
L 354.782614 265.567146 
L 357.82625 267.781843 
L 360.869886 269.993608 
L 363.913523 272.202776 
L 366.957159 274.409438 
L 370.000795 276.613446 
L 373.044432 278.814524 
L 376.088068 281.012387 
" clip-path="url(#pf84fd132fa)" style="fill: none; stroke: #ff7f0e; stroke-width: 1.5; stroke-linecap: square"/>
   </g>
   <g id="patch_3">
    <path d="M 56.50625 299.64 
L 56.50625 22.44 
" style="fill: none; stroke: #000000; stroke-width: 0.8; stroke-linejoin: miter; stroke-linecap: square"/>
   </g>
   <g id="patch_4">
    <path d="M 391.30625 299.64 
L 391.30625 22.44 
" style="fill: none; stroke: #000000; stroke-width: 0.8; stroke-linejoin: miter; stroke-linecap: square"/>
   </g>
   <g id="patch_5">
    <path d="M 56.50625 299.64 
L 391.30625 299.64 
" style="fill: none; stroke: #000000; stroke-width: 0.8; stroke-linejoin: miter; stroke-linecap: square"/>
   </g>
   <g id="patch_6">
    <path d="M 56.50625 22.44 
L 391.30625 22.44 
" style="fill: none; stroke: #000000; stroke-width: 0.8; stroke-linejoin: miter; stroke-linecap: square"/>
   </g>
   <g id="text_12">
    <!-- Wilson action average with respect to $\beta$ -->
    <g transform="translate(104.50625 16.44) scale(0.12 -0.12)">
     <defs>
      <path id="DejaVuSans-57" d="M 213 4666 
L 850 4666 
L 1831 722 
L 2809 4666 
L 3519 4666 
L 4500 722 
L 5478 4666 
L 6119 4666 
L 4947 0 
L 4153 0 
L 3169 4050 
L 2175 0 
L 1381 0 
L 213 4666 
z
" transform="scale(0.015625)"/>
      <path id="DejaVuSans-69" d="M 603 3500 
L 1178 3500 
L 1178 0 
L 603 0 
L 603 3500 
z
M 603 4863 
L 1178 4863 
L 1178 4134 
L 603 4134 
L 603 4863 
z
" transform="scale(0.015625)"/>
      <path id="DejaVuSans-6c" d="M 603 4863 
L 1178 4863 
L 1178 0 
L 603 0 
L 603 4863 
z
" transform="scale(0.015625)"/>
      <path id="DejaVuSans-73" d="M 2834 3397 
L 2834 2853 
Q 2591 2978 2328 3040 
Q 2066 3103 1784 3103 
Q 1356 3103 1142 2972 
Q 928 2841 928 2578 
Q 928 2378 1081 2264 
Q 1234 2150 1697 2047 
L 1894 2003 
Q 2506 1872 2764 1633 
Q 3022 1394 3022 966 
Q 3022 478 2636 193 
Q 2250 -91 1575 -91 
Q 1294 -91 989 -36 
Q 684 19 347 128 
L 347 722 
Q 666 556 975 473 
Q 1284 391 1588 391 
Q 1994 391 2212 530 
Q 2431 669 2431 922 
Q 2431 1156 2273 1281 
Q 2116 1406 1581 1522 
L 1381 1569 
Q 847 1681 609 1914 
Q 372 2147 372 2553 
Q 372 3047 722 3315 
Q 1072 3584 1716 3584 
Q 2034 3584 2315 3537 
Q 2597 3491 2834 3397 
z
" transform="scale(0.015625)"/>
      <path id="DejaVuSans-6f" d="M 1959 3097 
Q 1497 3097 1228 2736 
Q 959 2375 959 1747 
Q 959 1119 1226 758 
Q 1494 397 1959 397 
Q 2419 397 2687 759 
Q 2956 1122 2956 1747 
Q 2956 2369 2687 2733 
Q 2419 3097 1959 3097 
z
M 1959 3584 
Q 2709 3584 3137 3096 
Q 3566 2609 3566 1747 
Q 3566 888 3137 398 
Q 2709 -91 1959 -91 
Q 1206 -91 779 398 
Q 353 888 353 1747 
Q 353 2609 779 3096 
Q 1206 3584 1959 3584 
z
" transform="scale(0.015625)"/>
      <path id="DejaVuSans-6e" d="M 3513 2113 
L 3513 0 
L 2938 0 
L 2938 2094 
Q 2938 2591 2744 2837 
Q 2550 3084 2163 3084 
Q 1697 3084 1428 2787 
Q 1159 2491 1159 1978 
L 1159 0 
L 581 0 
L 581 3500 
L 1159 3500 
L 1159 2956 
Q 1366 3272 1645 3428 
Q 1925 3584 2291 3584 
Q 2894 3584 3203 3211 
Q 3513 2838 3513 2113 
z
" transform="scale(0.015625)"/>
      <path id="DejaVuSans-61" d="M 2194 1759 
Q 1497 1759 1228 1600 
Q 959 1441 959 1056 
Q 959 750 1161 570 
Q 1363 391 1709 391 
Q 2188 391 2477 730 
Q 2766 1069 2766 1631 
L 2766 1759 
L 2194 1759 
z
M 3341 1997 
L 3341 0 
L 2766 0 
L 2766 531 
Q 2569 213 2275 61 
Q 1981 -91 1556 -91 
Q 1019 -91 701 211 
Q 384 513 384 1019 
Q 384 1609 779 1909 
Q 1175 2209 1959 2209 
L 2766 2209 
L 2766 2266 
Q 2766 2663 2505 2880 
Q 2244 3097 1772 3097 
Q 1472 3097 1187 3025 
Q 903 2953 641 2809 
L 641 3341 
Q 956 3463 1253 3523 
Q 1550 3584 1831 3584 
Q 2591 3584 2966 3190 
Q 3341 2797 3341 1997 
z
" transform="scale(0.015625)"/>
      <path id="DejaVuSans-63" d="M 3122 3366 
L 3122 2828 
Q 2878 2963 2633 3030 
Q 2388 3097 2138 3097 
Q 1578 3097 1268 2742 
Q 959 2388 959 1747 
Q 959 1106 1268 751 
Q 1578 397 2138 397 
Q 2388 397 2633 464 
Q 2878 531 3122 666 
L 3122 134 
Q 2881 22 2623 -34 
Q 2366 -91 2075 -91 
Q 1284 -91 818 406 
Q 353 903 353 1747 
Q 353 2603 823 3093 
Q 1294 3584 2113 3584 
Q 2378 3584 2631 3529 
Q 2884 3475 3122 3366 
z
" transform="scale(0.015625)"/>
      <path id="DejaVuSans-74" d="M 1172 4494 
L 1172 3500 
L 2356 3500 
L 2356 3053 
L 1172 3053 
L 1172 1153 
Q 1172 725 1289 603 
Q 1406 481 1766 481 
L 2356 481 
L 2356 0 
L 1766 0 
Q 1100 0 847 248 
Q 594 497 594 1153 
L 594 3053 
L 172 3053 
L 172 3500 
L 594 3500 
L 594 4494 
L 1172 4494 
z
" transform="scale(0.015625)"/>
      <path id="DejaVuSans-76" d="M 191 3500 
L 800 3500 
L 1894 563 
L 2988 3500 
L 3597 3500 
L 2284 0 
L 1503 0 
L 191 3500 
z
" transform="scale(0.015625)"/>
      <path id="DejaVuSans-65" d="M 3597 1894 
L 3597 1613 
L 953 1613 
Q 991 1019 1311 708 
Q 1631 397 2203 397 
Q 2534 397 2845 478 
Q 3156 559 3463 722 
L 3463 178 
Q 3153 47 2828 -22 
Q 2503 -91 2169 -91 
Q 1331 -91 842 396 
Q 353 884 353 1716 
Q 353 2575 817 3079 
Q 1281 3584 2069 3584 
Q 2775 3584 3186 3129 
Q 3597 2675 3597 1894 
z
M 3022 2063 
Q 3016 2534 2758 2815 
Q 2500 3097 2075 3097 
Q 1594 3097 1305 2825 
Q 1016 2553 972 2059 
L 3022 2063 
z
" transform="scale(0.015625)"/>
      <path id="DejaVuSans-72" d="M 2631 2963 
Q 2534 3019 2420 3045 
Q 2306 3072 2169 3072 
Q 1681 3072 1420 2755 
Q 1159 2438 1159 1844 
L 1159 0 
L 581 0 
L 581 3500 
L 1159 3500 
L 1159 2956 
Q 1341 3275 1631 3429 
Q 1922 3584 2338 3584 
Q 2397 3584 2469 3576 
Q 2541 3569 2628 3553 
L 2631 2963 
z
" transform="scale(0.015625)"/>
      <path id="DejaVuSans-67" d="M 2906 1791 
Q 2906 2416 2648 2759 
Q 2391 3103 1925 3103 
Q 1463 3103 1205 2759 
Q 947 2416 947 1791 
Q 947 1169 1205 825 
Q 1463 481 1925 481 
Q 2391 481 2648 825 
Q 2906 1169 2906 1791 
z
M 3481 434 
Q 3481 -459 3084 -895 
Q 2688 -1331 1869 -1331 
Q 1566 -1331 1297 -1286 
Q 1028 -1241 775 -1147 
L 775 -588 
Q 1028 -725 1275 -790 
Q 1522 -856 1778 -856 
Q 2344 -856 2625 -561 
Q 2906 -266 2906 331 
L 2906 616 
Q 2728 306 2450 153 
Q 2172 0 1784 0 
Q 1141 0 747 490 
Q 353 981 353 1791 
Q 353 2603 747 3093 
Q 1141 3584 1784 3584 
Q 2172 3584 2450 3431 
Q 2728 3278 2906 2969 
L 2906 3500 
L 3481 3500 
L 3481 434 
z
" transform="scale(0.015625)"/>
      <path id="DejaVuSans-77" d="M 269 3500 
L 844 3500 
L 1563 769 
L 2278 3500 
L 2956 3500 
L 3675 769 
L 4391 3500 
L 4966 3500 
L 4050 0 
L 3372 0 
L 2619 2869 
L 1863 0 
L 1184 0 
L 269 3500 
z
" transform="scale(0.015625)"/>
      <path id="DejaVuSans-68" d="M 3513 2113 
L 3513 0 
L 2938 0 
L 2938 2094 
Q 2938 2591 2744 2837 
Q 2550 3084 2163 3084 
Q 1697 3084 1428 2787 
Q 1159 2491 1159 1978 
L 1159 0 
L 581 0 
L 581 4863 
L 1159 4863 
L 1159 2956 
Q 1366 3272 1645 3428 
Q 1925 3584 2291 3584 
Q 2894 3584 3203 3211 
Q 3513 2838 3513 2113 
z
" transform="scale(0.015625)"/>
      <path id="DejaVuSans-70" d="M 1159 525 
L 1159 -1331 
L 581 -1331 
L 581 3500 
L 1159 3500 
L 1159 2969 
Q 1341 3281 1617 3432 
Q 1894 3584 2278 3584 
Q 2916 3584 3314 3078 
Q 3713 2572 3713 1747 
Q 3713 922 3314 415 
Q 2916 -91 2278 -91 
Q 1894 -91 1617 61 
Q 1341 213 1159 525 
z
M 3116 1747 
Q 3116 2381 2855 2742 
Q 2594 3103 2138 3103 
Q 1681 3103 1420 2742 
Q 1159 2381 1159 1747 
Q 1159 1113 1420 752 
Q 1681 391 2138 391 
Q 2594 391 2855 752 
Q 3116 1113 3116 1747 
z
" transform="scale(0.015625)"/>
     </defs>
     <use xlink:href="#DejaVuSans-57" transform="translate(0 0.390625)"/>
     <use xlink:href="#DejaVuSans-69" transform="translate(98.876953 0.390625)"/>
     <use xlink:href="#DejaVuSans-6c" transform="translate(126.660156 0.390625)"/>
     <use xlink:href="#DejaVuSans-73" transform="translate(154.443359 0.390625)"/>
     <use xlink:href="#DejaVuSans-6f" transform="translate(206.542969 0.390625)"/>
     <use xlink:href="#DejaVuSans-6e" transform="translate(267.724609 0.390625)"/>
     <use xlink:href="#DejaVuSans-20" transform="translate(331.103516 0.390625)"/>
     <use xlink:href="#DejaVuSans-61" transform="translate(362.890625 0.390625)"/>
     <use xlink:href="#DejaVuSans-63" transform="translate(424.169922 0.390625)"/>
     <use xlink:href="#DejaVuSans-74" transform="translate(479.150391 0.390625)"/>
     <use xlink:href="#DejaVuSans-69" transform="translate(518.359375 0.390625)"/>
     <use xlink:href="#DejaVuSans-6f" transform="translate(546.142578 0.390625)"/>
     <use xlink:href="#DejaVuSans-6e" transform="translate(607.324219 0.390625)"/>
     <use xlink:href="#DejaVuSans-20" transform="translate(670.703125 0.390625)"/>
     <use xlink:href="#DejaVuSans-61" transform="translate(702.490234 0.390625)"/>
     <use xlink:href="#DejaVuSans-76" transform="translate(763.769531 0.390625)"/>
     <use xlink:href="#DejaVuSans-65" transform="translate(822.949219 0.390625)"/>
     <use xlink:href="#DejaVuSans-72" transform="translate(884.472656 0.390625)"/>
     <use xlink:href="#DejaVuSans-61" transform="translate(925.585938 0.390625)"/>
     <use xlink:href="#DejaVuSans-67" transform="translate(986.865234 0.390625)"/>
     <use xlink:href="#DejaVuSans-65" transform="translate(1050.341797 0.390625)"/>
     <use xlink:href="#DejaVuSans-20" transform="translate(1111.865234 0.390625)"/>
     <use xlink:href="#DejaVuSans-77" transform="translate(1143.652344 0.390625)"/>
     <use xlink:href="#DejaVuSans-69" transform="translate(1225.439453 0.390625)"/>
     <use xlink:href="#DejaVuSans-74" transform="translate(1253.222656 0.390625)"/>
     <use xlink:href="#DejaVuSans-68" transform="translate(1292.431641 0.390625)"/>
     <use xlink:href="#DejaVuSans-20" transform="translate(1355.810547 0.390625)"/>
     <use xlink:href="#DejaVuSans-72" transform="translate(1387.597656 0.390625)"/>
     <use xlink:href="#DejaVuSans-65" transform="translate(1428.710938 0.390625)"/>
     <use xlink:href="#DejaVuSans-73" transform="translate(1490.234375 0.390625)"/>
     <use xlink:href="#DejaVuSans-70" transform="translate(1542.333984 0.390625)"/>
     <use xlink:href="#DejaVuSans-65" transform="translate(1605.810547 0.390625)"/>
     <use xlink:href="#DejaVuSans-63" transform="translate(1667.333984 0.390625)"/>
     <use xlink:href="#DejaVuSans-74" transform="translate(1722.314453 0.390625)"/>
     <use xlink:href="#DejaVuSans-20" transform="translate(1761.523438 0.390625)"/>
     <use xlink:href="#DejaVuSans-74" transform="translate(1793.310547 0.390625)"/>
     <use xlink:href="#DejaVuSans-6f" transform="translate(1832.519531 0.390625)"/>
     <use xlink:href="#DejaVuSans-20" transform="translate(1893.701172 0.390625)"/>
     <use xlink:href="#DejaVuSans-Oblique-3b2" transform="translate(1925.488281 0.390625)"/>
    </g>
   </g>
   <g id="legend_1">
    <g id="patch_7">
     <path d="M 315.84375 206.5775 
L 384.30625 206.5775 
Q 386.30625 206.5775 386.30625 204.5775 
L 386.30625 29.44 
Q 386.30625 27.44 384.30625 27.44 
L 315.84375 27.44 
Q 313.84375 27.44 313.84375 29.44 
L 313.84375 204.5775 
Q 313.84375 206.5775 315.84375 206.5775 
z
" style="fill: #ffffff; opacity: 0.8; stroke: #cccccc; stroke-linejoin: miter"/>
    </g>
    <g id="line2d_22">
     <path d="M 317.84375 35.538437 
L 327.84375 35.538437 
L 337.84375 35.538437 
" style="fill: none; stroke-dasharray: 1.5,2.475; stroke-dashoffset: 0; stroke: #1f77b4; stroke-width: 1.5"/>
    </g>
    <g id="text_13">
     <!-- 0 -->
     <g transform="translate(345.84375 39.038437) scale(0.1 -0.1)">
      <use xlink:href="#DejaVuSans-30"/>
     </g>
    </g>
    <g id="line2d_23">
     <path d="M 317.84375 50.216563 
L 327.84375 50.216563 
L 337.84375 50.216563 
" style="fill: none; stroke-dasharray: 1.5,2.475; stroke-dashoffset: 0; stroke: #ff7f0e; stroke-width: 1.5"/>
    </g>
    <g id="text_14">
     <!-- 1 -->
     <g transform="translate(345.84375 53.716563) scale(0.1 -0.1)">
      <use xlink:href="#DejaVuSans-31"/>
     </g>
    </g>
    <g id="line2d_24">
     <path d="M 317.84375 64.894688 
L 327.84375 64.894688 
L 337.84375 64.894688 
" style="fill: none; stroke-dasharray: 1.5,2.475; stroke-dashoffset: 0; stroke: #2ca02c; stroke-width: 1.5"/>
    </g>
    <g id="text_15">
     <!-- 2 -->
     <g transform="translate(345.84375 68.394688) scale(0.1 -0.1)">
      <use xlink:href="#DejaVuSans-32"/>
     </g>
    </g>
    <g id="line2d_25">
     <path d="M 317.84375 79.572812 
L 327.84375 79.572812 
L 337.84375 79.572812 
" style="fill: none; stroke-dasharray: 1.5,2.475; stroke-dashoffset: 0; stroke: #d62728; stroke-width: 1.5"/>
    </g>
    <g id="text_16">
     <!-- 3 -->
     <g transform="translate(345.84375 83.072812) scale(0.1 -0.1)">
      <use xlink:href="#DejaVuSans-33"/>
     </g>
    </g>
    <g id="line2d_26">
     <path d="M 317.84375 94.250938 
L 327.84375 94.250938 
L 337.84375 94.250938 
" style="fill: none; stroke-dasharray: 1.5,2.475; stroke-dashoffset: 0; stroke: #9467bd; stroke-width: 1.5"/>
    </g>
    <g id="text_17">
     <!-- 4 -->
     <g transform="translate(345.84375 97.750938) scale(0.1 -0.1)">
      <use xlink:href="#DejaVuSans-34"/>
     </g>
    </g>
    <g id="line2d_27">
     <path d="M 317.84375 108.929062 
L 327.84375 108.929062 
L 337.84375 108.929062 
" style="fill: none; stroke: #8c564b; stroke-width: 1.5; stroke-linecap: square"/>
    </g>
    <g id="text_18">
     <!-- notwist -->
     <g transform="translate(345.84375 112.429062) scale(0.1 -0.1)">
      <use xlink:href="#DejaVuSans-6e"/>
      <use xlink:href="#DejaVuSans-6f" x="63.378906"/>
      <use xlink:href="#DejaVuSans-74" x="124.560547"/>
      <use xlink:href="#DejaVuSans-77" x="163.769531"/>
      <use xlink:href="#DejaVuSans-69" x="245.556641"/>
      <use xlink:href="#DejaVuSans-73" x="273.339844"/>
      <use xlink:href="#DejaVuSans-74" x="325.439453"/>
     </g>
    </g>
    <g id="line2d_28">
     <path d="M 317.84375 123.607188 
L 327.84375 123.607188 
L 337.84375 123.607188 
" style="fill: none; stroke-dasharray: 1.5,2.475; stroke-dashoffset: 0; stroke: #e377c2; stroke-width: 1.5"/>
    </g>
    <g id="text_19">
     <!-- 0 -->
     <g transform="translate(345.84375 127.107188) scale(0.1 -0.1)">
      <use xlink:href="#DejaVuSans-30"/>
     </g>
    </g>
    <g id="line2d_29">
     <path d="M 317.84375 138.285312 
L 327.84375 138.285312 
L 337.84375 138.285312 
" style="fill: none; stroke-dasharray: 1.5,2.475; stroke-dashoffset: 0; stroke: #7f7f7f; stroke-width: 1.5"/>
    </g>
    <g id="text_20">
     <!-- 1 -->
     <g transform="translate(345.84375 141.785312) scale(0.1 -0.1)">
      <use xlink:href="#DejaVuSans-31"/>
     </g>
    </g>
    <g id="line2d_30">
     <path d="M 317.84375 152.963437 
L 327.84375 152.963437 
L 337.84375 152.963437 
" style="fill: none; stroke-dasharray: 1.5,2.475; stroke-dashoffset: 0; stroke: #bcbd22; stroke-width: 1.5"/>
    </g>
    <g id="text_21">
     <!-- 2 -->
     <g transform="translate(345.84375 156.463437) scale(0.1 -0.1)">
      <use xlink:href="#DejaVuSans-32"/>
     </g>
    </g>
    <g id="line2d_31">
     <path d="M 317.84375 167.641562 
L 327.84375 167.641562 
L 337.84375 167.641562 
" style="fill: none; stroke-dasharray: 1.5,2.475; stroke-dashoffset: 0; stroke: #17becf; stroke-width: 1.5"/>
    </g>
    <g id="text_22">
     <!-- 3 -->
     <g transform="translate(345.84375 171.141562) scale(0.1 -0.1)">
      <use xlink:href="#DejaVuSans-33"/>
     </g>
    </g>
    <g id="line2d_32">
     <path d="M 317.84375 182.319687 
L 327.84375 182.319687 
L 337.84375 182.319687 
" style="fill: none; stroke-dasharray: 1.5,2.475; stroke-dashoffset: 0; stroke: #1f77b4; stroke-width: 1.5"/>
    </g>
    <g id="text_23">
     <!-- 4 -->
     <g transform="translate(345.84375 185.819687) scale(0.1 -0.1)">
      <use xlink:href="#DejaVuSans-34"/>
     </g>
    </g>
    <g id="line2d_33">
     <path d="M 317.84375 196.997812 
L 327.84375 196.997812 
L 337.84375 196.997812 
" style="fill: none; stroke: #ff7f0e; stroke-width: 1.5; stroke-linecap: square"/>
    </g>
    <g id="text_24">
     <!-- twist -->
     <g transform="translate(345.84375 200.497812) scale(0.1 -0.1)">
      <use xlink:href="#DejaVuSans-74"/>
      <use xlink:href="#DejaVuSans-77" x="39.208984"/>
      <use xlink:href="#DejaVuSans-69" x="120.996094"/>
      <use xlink:href="#DejaVuSans-73" x="148.779297"/>
      <use xlink:href="#DejaVuSans-74" x="200.878906"/>
     </g>
    </g>
   </g>
  </g>
  <g id="text_25">
   <!-- Twist coefficients 0 and 1. N=5 Jackknife bins -->
   <g transform="translate(45.70625 339.24) scale(0.1 -0.1)">
    <defs>
     <path id="DejaVuSans-Oblique-54" d="M 378 4666 
L 4325 4666 
L 4225 4134 
L 2559 4134 
L 1759 0 
L 1125 0 
L 1925 4134 
L 275 4134 
L 378 4666 
z
" transform="scale(0.015625)"/>
     <path id="DejaVuSans-Oblique-77" d="M 544 3500 
L 1113 3500 
L 1259 684 
L 2566 3500 
L 3231 3500 
L 3425 684 
L 4666 3500 
L 5241 3500 
L 3641 0 
L 2969 0 
L 2797 2900 
L 1459 0 
L 781 0 
L 544 3500 
z
" transform="scale(0.015625)"/>
     <path id="DejaVuSans-Oblique-69" d="M 1172 4863 
L 1747 4863 
L 1606 4134 
L 1031 4134 
L 1172 4863 
z
M 909 3500 
L 1484 3500 
L 800 0 
L 225 0 
L 909 3500 
z
" transform="scale(0.015625)"/>
     <path id="DejaVuSans-Oblique-73" d="M 3200 3397 
L 3091 2853 
Q 2863 2978 2609 3040 
Q 2356 3103 2088 3103 
Q 1634 3103 1373 2948 
Q 1113 2794 1113 2528 
Q 1113 2219 1719 2053 
Q 1766 2041 1788 2034 
L 1972 1978 
Q 2547 1819 2739 1644 
Q 2931 1469 2931 1166 
Q 2931 609 2489 259 
Q 2047 -91 1331 -91 
Q 1053 -91 747 -37 
Q 441 16 72 128 
L 184 722 
Q 500 559 806 475 
Q 1113 391 1394 391 
Q 1816 391 2080 572 
Q 2344 753 2344 1031 
Q 2344 1331 1650 1516 
L 1591 1531 
L 1394 1581 
Q 956 1697 753 1886 
Q 550 2075 550 2369 
Q 550 2928 970 3256 
Q 1391 3584 2113 3584 
Q 2397 3584 2667 3537 
Q 2938 3491 3200 3397 
z
" transform="scale(0.015625)"/>
     <path id="DejaVuSans-Oblique-74" d="M 2706 3500 
L 2619 3053 
L 1472 3053 
L 1100 1153 
Q 1081 1047 1072 975 
Q 1063 903 1063 863 
Q 1063 663 1183 572 
Q 1303 481 1569 481 
L 2150 481 
L 2053 0 
L 1503 0 
Q 991 0 739 200 
Q 488 400 488 806 
Q 488 878 497 964 
Q 506 1050 525 1153 
L 897 3053 
L 409 3053 
L 500 3500 
L 978 3500 
L 1172 4494 
L 1747 4494 
L 1556 3500 
L 2706 3500 
z
" transform="scale(0.015625)"/>
     <path id="DejaVuSans-Oblique-20" transform="scale(0.015625)"/>
     <path id="DejaVuSans-Oblique-63" d="M 3431 3366 
L 3316 2797 
Q 3109 2947 2876 3022 
Q 2644 3097 2394 3097 
Q 2119 3097 1870 3000 
Q 1622 2903 1453 2725 
Q 1184 2453 1037 2087 
Q 891 1722 891 1331 
Q 891 859 1127 628 
Q 1363 397 1844 397 
Q 2081 397 2348 469 
Q 2616 541 2906 684 
L 2797 116 
Q 2547 13 2283 -39 
Q 2019 -91 1741 -91 
Q 1044 -91 669 257 
Q 294 606 294 1253 
Q 294 1797 489 2255 
Q 684 2713 1069 3078 
Q 1331 3328 1684 3456 
Q 2038 3584 2456 3584 
Q 2700 3584 2940 3529 
Q 3181 3475 3431 3366 
z
" transform="scale(0.015625)"/>
     <path id="DejaVuSans-Oblique-6f" d="M 1625 -91 
Q 1009 -91 651 289 
Q 294 669 294 1325 
Q 294 1706 417 2101 
Q 541 2497 738 2766 
Q 1047 3184 1428 3384 
Q 1809 3584 2291 3584 
Q 2888 3584 3255 3212 
Q 3622 2841 3622 2241 
Q 3622 1825 3500 1412 
Q 3378 1000 3181 728 
Q 2875 309 2494 109 
Q 2113 -91 1625 -91 
z
M 891 1344 
Q 891 869 1089 633 
Q 1288 397 1691 397 
Q 2269 397 2648 901 
Q 3028 1406 3028 2181 
Q 3028 2634 2825 2865 
Q 2622 3097 2228 3097 
Q 1903 3097 1650 2945 
Q 1397 2794 1197 2484 
Q 1050 2253 970 1956 
Q 891 1659 891 1344 
z
" transform="scale(0.015625)"/>
     <path id="DejaVuSans-Oblique-65" d="M 3078 2063 
Q 3088 2113 3092 2166 
Q 3097 2219 3097 2272 
Q 3097 2653 2873 2875 
Q 2650 3097 2266 3097 
Q 1838 3097 1509 2826 
Q 1181 2556 1013 2059 
L 3078 2063 
z
M 3578 1613 
L 903 1613 
Q 884 1494 878 1425 
Q 872 1356 872 1306 
Q 872 872 1139 634 
Q 1406 397 1894 397 
Q 2269 397 2603 481 
Q 2938 566 3225 728 
L 3116 159 
Q 2806 34 2476 -28 
Q 2147 -91 1806 -91 
Q 1078 -91 686 257 
Q 294 606 294 1247 
Q 294 1794 489 2264 
Q 684 2734 1063 3103 
Q 1306 3334 1642 3459 
Q 1978 3584 2356 3584 
Q 2950 3584 3301 3228 
Q 3653 2872 3653 2272 
Q 3653 2128 3634 1964 
Q 3616 1800 3578 1613 
z
" transform="scale(0.015625)"/>
     <path id="DejaVuSans-Oblique-66" d="M 3059 4863 
L 2969 4384 
L 2419 4384 
Q 2106 4384 1964 4261 
Q 1822 4138 1753 3809 
L 1691 3500 
L 2638 3500 
L 2553 3053 
L 1606 3053 
L 1013 0 
L 434 0 
L 1031 3053 
L 481 3053 
L 563 3500 
L 1113 3500 
L 1159 3744 
Q 1278 4363 1576 4613 
Q 1875 4863 2516 4863 
L 3059 4863 
z
" transform="scale(0.015625)"/>
     <path id="DejaVuSans-Oblique-6e" d="M 3566 2113 
L 3156 0 
L 2578 0 
L 2988 2091 
Q 3016 2238 3031 2350 
Q 3047 2463 3047 2528 
Q 3047 2791 2881 2937 
Q 2716 3084 2419 3084 
Q 1956 3084 1622 2776 
Q 1288 2469 1184 1941 
L 800 0 
L 225 0 
L 903 3500 
L 1478 3500 
L 1363 2950 
Q 1603 3253 1940 3418 
Q 2278 3584 2650 3584 
Q 3113 3584 3367 3334 
Q 3622 3084 3622 2631 
Q 3622 2519 3608 2391 
Q 3594 2263 3566 2113 
z
" transform="scale(0.015625)"/>
     <path id="DejaVuSans-Oblique-30" d="M 2444 4750 
Q 3078 4750 3414 4328 
Q 3750 3906 3750 3116 
Q 3750 2516 3592 1923 
Q 3434 1331 3150 863 
Q 2859 394 2467 151 
Q 2075 -91 1600 -91 
Q 988 -91 653 334 
Q 319 759 319 1544 
Q 319 2138 480 2733 
Q 641 3328 928 3794 
Q 1216 4263 1602 4506 
Q 1988 4750 2444 4750 
z
M 2406 4250 
Q 2169 4250 1955 4123 
Q 1741 3997 1569 3750 
Q 1281 3338 1111 2720 
Q 941 2103 941 1453 
Q 941 938 1123 673 
Q 1306 409 1663 409 
Q 1913 409 2125 536 
Q 2338 663 2509 909 
Q 2794 1319 2961 1936 
Q 3128 2553 3128 3206 
Q 3128 3722 2945 3986 
Q 2763 4250 2406 4250 
z
" transform="scale(0.015625)"/>
     <path id="DejaVuSans-Oblique-61" d="M 3438 1997 
L 3047 0 
L 2472 0 
L 2578 531 
Q 2325 219 2001 64 
Q 1678 -91 1281 -91 
Q 834 -91 548 182 
Q 263 456 263 884 
Q 263 1497 752 1853 
Q 1241 2209 2100 2209 
L 2900 2209 
L 2931 2363 
Q 2938 2388 2941 2417 
Q 2944 2447 2944 2509 
Q 2944 2788 2717 2942 
Q 2491 3097 2081 3097 
Q 1800 3097 1504 3025 
Q 1209 2953 897 2809 
L 997 3341 
Q 1322 3463 1633 3523 
Q 1944 3584 2234 3584 
Q 2853 3584 3176 3315 
Q 3500 3047 3500 2534 
Q 3500 2431 3484 2292 
Q 3469 2153 3438 1997 
z
M 2816 1759 
L 2241 1759 
Q 1534 1759 1195 1570 
Q 856 1381 856 984 
Q 856 709 1029 553 
Q 1203 397 1509 397 
Q 1978 397 2328 733 
Q 2678 1069 2791 1631 
L 2816 1759 
z
" transform="scale(0.015625)"/>
     <path id="DejaVuSans-Oblique-64" d="M 2675 525 
Q 2444 222 2128 65 
Q 1813 -91 1428 -91 
Q 903 -91 598 267 
Q 294 625 294 1247 
Q 294 1766 478 2236 
Q 663 2706 1013 3078 
Q 1244 3325 1534 3454 
Q 1825 3584 2144 3584 
Q 2481 3584 2739 3421 
Q 2997 3259 3138 2956 
L 3513 4863 
L 4091 4863 
L 3144 0 
L 2566 0 
L 2675 525 
z
M 891 1350 
Q 891 897 1095 644 
Q 1300 391 1663 391 
Q 1931 391 2161 520 
Q 2391 650 2566 903 
Q 2750 1166 2856 1509 
Q 2963 1853 2963 2188 
Q 2963 2622 2758 2865 
Q 2553 3109 2194 3109 
Q 1922 3109 1687 2981 
Q 1453 2853 1288 2613 
Q 1106 2353 998 2009 
Q 891 1666 891 1350 
z
" transform="scale(0.015625)"/>
     <path id="DejaVuSans-Oblique-31" d="M 416 531 
L 1447 531 
L 2144 4122 
L 978 3897 
L 1088 4441 
L 2247 4666 
L 2881 4666 
L 2075 531 
L 3103 531 
L 3003 0 
L 313 0 
L 416 531 
z
" transform="scale(0.015625)"/>
     <path id="DejaVuSans-Oblique-2e" d="M 525 794 
L 1184 794 
L 1031 0 
L 372 0 
L 525 794 
z
" transform="scale(0.015625)"/>
     <path id="DejaVuSans-Oblique-4e" d="M 1081 4666 
L 1931 4666 
L 3219 666 
L 4000 4666 
L 4616 4666 
L 3706 0 
L 2853 0 
L 1569 4025 
L 788 0 
L 172 0 
L 1081 4666 
z
" transform="scale(0.015625)"/>
     <path id="DejaVuSans-Oblique-3d" d="M 678 2906 
L 4684 2906 
L 4684 2381 
L 678 2381 
L 678 2906 
z
M 678 1631 
L 4684 1631 
L 4684 1100 
L 678 1100 
L 678 1631 
z
" transform="scale(0.015625)"/>
     <path id="DejaVuSans-Oblique-35" d="M 3719 4666 
L 3622 4141 
L 1691 4141 
L 1466 2988 
Q 1609 3034 1757 3056 
Q 1906 3078 2059 3078 
Q 2706 3078 3081 2731 
Q 3456 2384 3456 1791 
Q 3456 1375 3264 994 
Q 3072 613 2719 325 
Q 2469 125 2108 17 
Q 1747 -91 1319 -91 
Q 1038 -91 744 -41 
Q 450 9 128 109 
L 244 697 
Q 531 556 820 486 
Q 1109 416 1403 416 
Q 2013 416 2411 781 
Q 2809 1147 2809 1697 
Q 2809 2103 2548 2328 
Q 2288 2553 1819 2553 
Q 1572 2553 1305 2495 
Q 1038 2438 756 2322 
L 1209 4666 
L 3719 4666 
z
" transform="scale(0.015625)"/>
     <path id="DejaVuSans-Oblique-4a" d="M 1069 4666 
L 1703 4666 
L 856 325 
Q 691 -522 298 -901 
Q -94 -1281 -800 -1281 
L -1050 -1281 
L -947 -750 
L -750 -750 
Q -328 -750 -109 -509 
Q 109 -269 225 325 
L 1069 4666 
z
" transform="scale(0.015625)"/>
     <path id="DejaVuSans-Oblique-6b" d="M 1172 4863 
L 1747 4863 
L 1197 2028 
L 3169 3500 
L 3916 3500 
L 1716 1825 
L 3322 0 
L 2625 0 
L 1131 1709 
L 800 0 
L 225 0 
L 1172 4863 
z
" transform="scale(0.015625)"/>
     <path id="DejaVuSans-Oblique-62" d="M 3169 2138 
Q 3169 2591 2961 2847 
Q 2753 3103 2388 3103 
Q 2122 3103 1889 2973 
Q 1656 2844 1484 2597 
Q 1303 2338 1198 1995 
Q 1094 1653 1094 1313 
Q 1094 881 1298 636 
Q 1503 391 1863 391 
Q 2134 391 2365 517 
Q 2597 644 2772 891 
Q 2950 1147 3059 1487 
Q 3169 1828 3169 2138 
z
M 1381 2969 
Q 1594 3256 1914 3420 
Q 2234 3584 2584 3584 
Q 3122 3584 3439 3221 
Q 3756 2859 3756 2241 
Q 3756 1734 3570 1259 
Q 3384 784 3041 416 
Q 2816 172 2522 40 
Q 2228 -91 1906 -91 
Q 1566 -91 1316 65 
Q 1066 222 909 531 
L 806 0 
L 231 0 
L 1178 4863 
L 1753 4863 
L 1381 2969 
z
" transform="scale(0.015625)"/>
    </defs>
    <use xlink:href="#DejaVuSans-Oblique-54"/>
    <use xlink:href="#DejaVuSans-Oblique-77" x="52.958984"/>
    <use xlink:href="#DejaVuSans-Oblique-69" x="134.746094"/>
    <use xlink:href="#DejaVuSans-Oblique-73" x="162.529297"/>
    <use xlink:href="#DejaVuSans-Oblique-74" x="214.628906"/>
    <use xlink:href="#DejaVuSans-Oblique-20" x="253.837891"/>
    <use xlink:href="#DejaVuSans-Oblique-63" x="285.625"/>
    <use xlink:href="#DejaVuSans-Oblique-6f" x="340.605469"/>
    <use xlink:href="#DejaVuSans-Oblique-65" x="401.787109"/>
    <use xlink:href="#DejaVuSans-Oblique-66" x="463.310547"/>
    <use xlink:href="#DejaVuSans-Oblique-66" x="498.515625"/>
    <use xlink:href="#DejaVuSans-Oblique-69" x="533.720703"/>
    <use xlink:href="#DejaVuSans-Oblique-63" x="561.503906"/>
    <use xlink:href="#DejaVuSans-Oblique-69" x="616.484375"/>
    <use xlink:href="#DejaVuSans-Oblique-65" x="644.267578"/>
    <use xlink:href="#DejaVuSans-Oblique-6e" x="705.791016"/>
    <use xlink:href="#DejaVuSans-Oblique-74" x="769.169922"/>
    <use xlink:href="#DejaVuSans-Oblique-73" x="808.378906"/>
    <use xlink:href="#DejaVuSans-Oblique-20" x="860.478516"/>
    <use xlink:href="#DejaVuSans-Oblique-30" x="892.265625"/>
    <use xlink:href="#DejaVuSans-Oblique-20" x="955.888672"/>
    <use xlink:href="#DejaVuSans-Oblique-61" x="987.675781"/>
    <use xlink:href="#DejaVuSans-Oblique-6e" x="1048.955078"/>
    <use xlink:href="#DejaVuSans-Oblique-64" x="1112.333984"/>
    <use xlink:href="#DejaVuSans-Oblique-20" x="1175.810547"/>
    <use xlink:href="#DejaVuSans-Oblique-31" x="1207.597656"/>
    <use xlink:href="#DejaVuSans-Oblique-2e" x="1271.220703"/>
    <use xlink:href="#DejaVuSans-Oblique-20" x="1303.007812"/>
    <use xlink:href="#DejaVuSans-Oblique-4e" x="1334.794922"/>
    <use xlink:href="#DejaVuSans-Oblique-3d" x="1409.599609"/>
    <use xlink:href="#DejaVuSans-Oblique-35" x="1493.388672"/>
    <use xlink:href="#DejaVuSans-Oblique-20" x="1557.011719"/>
    <use xlink:href="#DejaVuSans-Oblique-4a" x="1588.798828"/>
    <use xlink:href="#DejaVuSans-Oblique-61" x="1618.291016"/>
    <use xlink:href="#DejaVuSans-Oblique-63" x="1679.570312"/>
    <use xlink:href="#DejaVuSans-Oblique-6b" x="1734.550781"/>
    <use xlink:href="#DejaVuSans-Oblique-6b" x="1792.460938"/>
    <use xlink:href="#DejaVuSans-Oblique-6e" x="1850.371094"/>
    <use xlink:href="#DejaVuSans-Oblique-69" x="1913.75"/>
    <use xlink:href="#DejaVuSans-Oblique-66" x="1941.533203"/>
    <use xlink:href="#DejaVuSans-Oblique-65" x="1976.738281"/>
    <use xlink:href="#DejaVuSans-Oblique-20" x="2038.261719"/>
    <use xlink:href="#DejaVuSans-Oblique-62" x="2070.048828"/>
    <use xlink:href="#DejaVuSans-Oblique-69" x="2133.525391"/>
    <use xlink:href="#DejaVuSans-Oblique-6e" x="2161.308594"/>
    <use xlink:href="#DejaVuSans-Oblique-73" x="2224.6875"/>
   </g>
  </g>
 </g>
 <defs>
  <clipPath id="pf84fd132fa">
   <rect x="56.50625" y="22.44" width="334.8" height="277.2"/>
  </clipPath>
 </defs>
</svg>
